<svg width="9" height="18" viewBox="0 0 9 18" fill="none" xmlns="http://www.w3.org/2000/svg">
<path d="M7.72284 17.8861C8.02073 17.8867 8.30941 17.783 8.53879 17.5929C8.66788 17.4859 8.77459 17.3544 8.85281 17.2061C8.93103 17.0578 8.97922 16.8954 8.99462 16.7285C9.01001 16.5615 8.99231 16.3931 8.94253 16.233C8.89276 16.0728 8.81188 15.9241 8.70453 15.7953L2.99289 8.9617L8.50054 2.11539C8.60644 1.98498 8.68553 1.83493 8.73325 1.67386C8.78097 1.51279 8.79639 1.34387 8.77862 1.17682C8.76085 1.00977 8.71024 0.847878 8.62969 0.70045C8.54915 0.553023 8.44027 0.422967 8.3093 0.317757C8.17739 0.201693 8.02291 0.114148 7.85556 0.0606151C7.68822 0.0070825 7.51161 -0.011281 7.33683 0.00667604C7.16204 0.0246331 6.99286 0.0785236 6.83989 0.164965C6.68692 0.251407 6.55348 0.368534 6.44792 0.508995L0.290065 8.1585C0.102548 8.38663 3.6962e-05 8.67277 3.6962e-05 8.96808C3.6962e-05 9.26338 0.102548 9.54952 0.290065 9.77765L6.66466 17.4272C6.79255 17.5814 6.95502 17.7034 7.13888 17.7832C7.32273 17.8629 7.5228 17.8982 7.72284 17.8861Z" fill="#231F20"/>
</svg>
