<svg width="129" height="86" viewBox="0 0 129 86" fill="none" xmlns="http://www.w3.org/2000/svg">
<g clip-path="url(#clip0_33_1754)">
<path d="M10.4906 86C6.81273 86.0033 3.5271 83.7517 2.27994 80.3723C-0.394478 73.0969 -2.75026 59.6201 7.72048 45.0428C19.2982 28.9247 42.4604 12.2618 58.752 10.5549C84.2743 7.88256 91.4081 36.9408 102.86 43.703C112.754 49.5454 127.083 58.3065 128.956 76.6163C129.438 81.3035 125.938 85.485 121.138 85.9564C120.85 85.9848 120.559 85.9991 120.269 85.9993L10.4906 86Z" fill="#F3F5FD"/>
<path d="M81.9242 27.5117C81.9242 27.5117 81.487 26.2129 80.6109 25.6947C79.7348 25.1766 79.7368 25.76 80.126 26.345C80.5153 26.9299 81.4332 28.1606 81.4332 28.1606" fill="#E98862"/>
<path d="M81.4097 26.9695C81.4097 26.9695 79.8759 25.1584 78.9787 25.1584C78.9787 25.1584 77.5333 25.7819 77.5537 26.1847C77.5844 26.7916 80.0287 29.0566 80.0287 29.0566L81.4097 26.9695Z" fill="#E98862"/>
<path d="M92.3414 84.0445C91.9761 81.2755 91.976 80.9907 91.976 80.897H95.4395C95.4395 80.8876 95.4395 80.8754 95.4395 80.8606C95.4517 81.0918 95.6263 82.5018 95.7812 83.6757L92.3414 84.0445Z" fill="#E98862"/>
<path d="M106.142 84.4177C106.142 84.4177 106.13 81.1832 106.13 80.8967H109.594C109.594 81.1823 109.605 84.4076 109.605 84.4076L106.142 84.4177Z" fill="#E98862"/>
<path d="M97.1654 83.0583L91.0632 82.9646C91.3168 77.1698 91.3601 70.5417 91.4282 64.544C91.4471 63.0574 91.5716 61.5734 91.8009 60.1012C92.7825 53.7471 93.4229 47.4296 94.7445 41.1118L94.7885 41.1236L94.9175 40.3309L107.464 39.6326L108.118 47.0243C108.118 47.0243 109.752 72.5976 110.497 82.8803L104.417 83.3436C103.322 73.2631 101.627 58.5729 100.584 47.9818C99.3861 53.1382 98.5716 58.4772 97.5302 63.5894C97.3221 69.9886 97.1459 76.6782 97.1654 83.0583Z" fill="#262626"/>
<path d="M101.932 85.6259C101.839 85.6255 101.747 85.6078 101.661 85.5739C101.576 85.54 101.5 85.4906 101.436 85.4288C101.373 85.367 101.325 85.2942 101.295 85.2148C101.264 85.1355 101.252 85.0513 101.259 84.9675C101.269 84.8515 101.316 84.7404 101.394 84.6474C101.471 84.5544 101.577 84.4834 101.698 84.4427L105.729 83.225C105.807 83.2017 105.89 83.1939 105.972 83.2021C106.053 83.2103 106.132 83.2343 106.203 83.2725C106.757 83.6193 107.42 83.7966 108.094 83.7782C108.619 83.7445 109.123 83.5785 109.549 83.299C109.586 83.2713 109.632 83.2538 109.68 83.2485C109.728 83.2431 109.776 83.2503 109.82 83.269C109.864 83.2877 109.901 83.3172 109.926 83.3541C109.952 83.391 109.966 83.4338 109.966 83.4774V85.255C109.966 85.3074 109.954 85.3594 109.932 85.4078C109.909 85.4562 109.877 85.5002 109.836 85.5372C109.794 85.5742 109.746 85.6035 109.692 85.6234C109.638 85.6434 109.58 85.6535 109.522 85.6533L101.932 85.6259Z" fill="#C1D8ED"/>
<path d="M88.1219 85.6259C88.0288 85.6255 87.9368 85.6078 87.8516 85.5739C87.7664 85.54 87.6898 85.4906 87.6267 85.4288C87.5637 85.367 87.5154 85.2942 87.4849 85.2148C87.4545 85.1354 87.4425 85.0513 87.4497 84.9675C87.4597 84.8515 87.5063 84.7404 87.5839 84.6474C87.6616 84.5544 87.7671 84.4834 87.8881 84.4427L91.9193 83.225C91.9974 83.2017 92.0801 83.1939 92.1619 83.2021C92.2436 83.2103 92.3225 83.2343 92.393 83.2725C92.9471 83.6193 93.6101 83.7966 94.2843 83.7782C94.8095 83.7445 95.3136 83.5785 95.7391 83.299C95.7765 83.2713 95.8219 83.2538 95.8699 83.2485C95.9179 83.2431 95.9666 83.2503 96.0103 83.269C96.054 83.2877 96.0909 83.3172 96.1167 83.3541C96.1425 83.391 96.1561 83.4338 96.1559 83.4774V85.255C96.1559 85.3075 96.1444 85.3594 96.1221 85.4078C96.0998 85.4563 96.0671 85.5002 96.0259 85.5372C95.9847 85.5742 95.9358 85.6036 95.882 85.6235C95.8282 85.6434 95.7706 85.6535 95.7124 85.6533L88.1219 85.6259Z" fill="#C1D8ED"/>
<path d="M90.4076 36.3282C90.0144 36.3282 89.6328 36.2076 89.3257 35.9861L79.5161 28.9081L81.6801 26.469L89.9316 32.4226L94.8794 24.8702L97.8612 26.4592L91.8985 35.5607C91.7454 35.7944 91.5273 35.9881 91.2659 36.1226C91.0044 36.2571 90.7086 36.3279 90.4076 36.3279V36.3282Z" fill="#367CFF"/>
<path d="M94.1037 40.8288C94.7948 42.261 108.373 42.856 108.554 40.3365C108.67 38.7332 107.103 37.3337 107.103 34.2089C107.103 31.0842 110.291 27.0938 107.694 24.7514C106.94 24.0717 105.639 23.6329 104.052 23.6315C103.933 24.4658 98.3159 24.4688 98.273 23.6508C98.0586 23.6538 97.8921 23.6567 97.7882 23.6612C92.316 23.8739 94.7206 29.4898 94.7733 33.6155C94.8377 38.4432 93.3913 39.3533 94.1037 40.8288Z" fill="#367CFF"/>
<path d="M98.273 23.6508C98.3159 24.4688 98.809 25.672 100.331 25.7627C102.36 25.8832 103.933 24.4658 104.052 23.6315H104.047C102.05 23.6315 99.4374 23.6344 98.273 23.6508Z" fill="#E98862"/>
<path d="M79.1556 45.4908L79.0458 44.2016C78.7709 41.6235 79.7604 38.8964 82.3443 36.0703C84.4337 33.8394 85.8077 32.1037 85.8077 30.17C85.8077 28.0878 84.3781 26.6993 81.2993 26.6496C79.375 26.6496 77.1762 27.195 75.8011 28.1369L74.1518 23.7736C76.1309 22.6333 79.3201 21.7408 82.7838 21.7408C89.6016 21.7408 92.7355 25.3103 92.7355 29.2771C92.7355 32.8466 90.3164 35.3262 87.9527 37.7557C85.8087 40.0365 84.9286 42.0687 85.0387 44.4493L85.0936 45.4904L79.1556 45.4908ZM77.7811 52.3827C77.7811 50.102 79.5406 48.5158 81.9597 48.5158C84.4335 48.5158 86.0828 50.1024 86.1382 52.3827C86.1382 54.5642 84.489 56.2496 81.9597 56.2496C79.4856 56.2501 77.7811 54.5642 77.7811 52.3827Z" fill="#0CBC8B"/>
<path d="M95.31 32.1271C95.31 32.1271 95.6918 30.1682 94.1215 30.0062C93.1308 29.904 90.6401 28.6622 90.1676 29.7001C89.7578 30.6007 92.1364 31.6727 92.9879 31.8715C93.7506 32.0484 95.31 32.1271 95.31 32.1271Z" fill="#E98862"/>
<path d="M94.6572 30.1619C94.6572 30.1619 92.6338 29.1613 92.0801 29.1846C91.59 29.2053 92.4237 30.0603 92.4237 30.0603L94.6572 30.1619Z" fill="#E98862"/>
<path d="M101.819 38.3067C101.424 38.3067 101.041 38.1897 100.727 37.9737L92.404 32.2388L94.5875 29.6619L101.104 34.1521L105.216 25.8508L108.499 27.1732L103.46 37.3462C103.319 37.6321 103.088 37.8748 102.797 38.0452C102.506 38.2156 102.166 38.3063 101.819 38.3064V38.3067Z" fill="#367CFF"/>
<path d="M103.568 24.4954C103.568 24.4954 102.292 23.8856 102.577 20.7539L99.9421 20.3133C99.9421 20.3133 100.238 23.121 98.9052 24.0125L103.568 24.4954Z" fill="#E98862"/>
<g opacity="0.15">
<path d="M99.4452 23.4259L101.634 21.9159L99.9149 21.8998C99.865 22.4305 99.7057 22.948 99.4452 23.4259Z" fill="black"/>
</g>
<path d="M104.072 19.54C103.89 20.4902 103.315 21.3898 102.385 21.6965C101.372 22.0591 100.276 22.1926 99.1928 22.0854C96.3083 21.8722 96.8789 15.9579 98.2483 14.8088C99.6177 13.6597 103.637 14.3874 104.126 16.309C104.379 17.3031 104.246 18.6355 104.072 19.54Z" fill="#E98862"/>
<path d="M96.522 16.9731C96.522 16.9731 97.0872 12.7693 102.207 13.8018C103.035 13.9997 103.772 14.4293 104.312 15.0288C104.516 14.655 104.839 14.3448 105.24 14.1381C105.641 13.9314 106.101 13.8377 106.562 13.8692C107.022 13.9006 107.461 14.0558 107.823 14.3145C108.185 14.5733 108.453 14.9239 108.591 15.321C108.73 15.7182 108.734 16.1437 108.602 16.5428C108.47 16.9419 108.209 17.2962 107.851 17.56C107.494 17.8239 107.057 17.9852 106.598 18.0231C106.138 18.0611 105.676 17.9739 105.271 17.7729C105.267 17.8324 105.262 17.8934 105.255 17.955C104.942 20.5577 102.54 21.8608 102.54 21.8608C102.54 21.8608 101.895 21.4205 102.124 17.2153C101.012 17.3007 98.4686 17.4242 96.522 16.9731Z" fill="#0F1011"/>
<path d="M99.9459 18.8081C100.078 18.8081 100.185 18.7116 100.185 18.5926C100.185 18.4735 100.078 18.3771 99.9459 18.3771C99.8139 18.3771 99.7069 18.4735 99.7069 18.5926C99.7069 18.7116 99.8139 18.8081 99.9459 18.8081Z" fill="#0F1011"/>
<path d="M98.0606 18.6687C98.1926 18.6687 98.2996 18.5722 98.2996 18.4532C98.2996 18.3342 98.1926 18.2377 98.0606 18.2377C97.9286 18.2377 97.8216 18.3342 97.8216 18.4532C97.8216 18.5722 97.9286 18.6687 98.0606 18.6687Z" fill="#0F1011"/>
<path d="M97.6465 17.9939C97.6167 17.9941 97.5881 17.9836 97.5669 17.9647C97.5457 17.9458 97.5337 17.9201 97.5335 17.8932C97.5333 17.8664 97.545 17.8406 97.5659 17.8215C97.5869 17.8024 97.6154 17.7915 97.6452 17.7914L98.2782 17.7844H98.2795C98.3085 17.7852 98.3361 17.7961 98.3564 17.8149C98.3767 17.8336 98.3881 17.8587 98.3883 17.8849C98.3885 17.9111 98.3774 17.9364 98.3574 17.9554C98.3374 17.9744 98.31 17.9856 98.281 17.9868L97.6478 17.9939H97.6465Z" fill="#0F1011"/>
<path d="M100.462 18.202C100.453 18.202 100.444 18.2011 100.435 18.1993L99.8111 18.0638C99.7828 18.0571 99.7584 18.0406 99.7434 18.0178C99.7283 17.9951 99.7238 17.968 99.7306 17.9423C99.7375 17.9165 99.7552 17.8942 99.7801 17.8802C99.8049 17.8661 99.8349 17.8613 99.8636 17.8669L100.488 18.0023C100.515 18.0081 100.538 18.0225 100.554 18.0429C100.569 18.0632 100.576 18.088 100.573 18.1126C100.57 18.1372 100.557 18.1599 100.536 18.1764C100.516 18.1929 100.489 18.202 100.462 18.202Z" fill="#0F1011"/>
<path d="M99.8354 20.2898C99.8354 20.2898 98.9532 20.3737 98.3346 20.1789C98.3346 20.1789 98.3395 20.7029 99.0375 20.7545C99.7354 20.8061 99.8354 20.2898 99.8354 20.2898Z" fill="white"/>
<path d="M101.189 19.12C101.171 19.3595 101.259 19.5957 101.432 19.7776C101.606 19.9595 101.852 20.0725 102.117 20.092C102.383 20.1116 102.646 20.0361 102.85 19.8821C103.054 19.728 103.183 19.5077 103.208 19.2687C103.222 19.1487 103.208 19.0276 103.168 18.9125C103.128 18.7974 103.063 18.6907 102.977 18.5988C102.89 18.5069 102.784 18.4316 102.665 18.3774C102.545 18.3233 102.415 18.2913 102.282 18.2835C101.56 18.2628 101.235 18.6171 101.189 19.12Z" fill="#E98862"/>
<g opacity="0.15">
<path d="M98.8851 19.7879C98.9048 19.7879 98.9239 19.7815 98.9389 19.7699C98.9539 19.7583 98.9637 19.7422 98.9667 19.7246C98.9696 19.707 98.9654 19.689 98.9549 19.6739C98.9444 19.6588 98.9282 19.6477 98.9093 19.6424L98.4233 19.5078L98.7632 18.8252C98.7678 18.8162 98.7704 18.8066 98.7708 18.7968C98.7712 18.7869 98.7695 18.7771 98.7657 18.7679C98.7619 18.7587 98.7561 18.7502 98.7486 18.743C98.7412 18.7358 98.7322 18.7301 98.7222 18.726C98.7123 18.722 98.7015 18.7198 98.6906 18.7195C98.6797 18.7192 98.6688 18.7209 98.6587 18.7245C98.6485 18.728 98.6392 18.7334 98.6313 18.7402C98.6234 18.747 98.6171 18.7552 98.6128 18.7642L98.2346 19.5237C98.2298 19.5334 98.2273 19.5438 98.2274 19.5543C98.2274 19.5649 98.2299 19.5753 98.2347 19.5849C98.2395 19.5945 98.2465 19.6031 98.2553 19.6101C98.2641 19.617 98.2744 19.6222 98.2856 19.6253L98.8608 19.7846C98.8687 19.7868 98.8769 19.7879 98.8851 19.7879Z" fill="black"/>
</g>
<path d="M29.9858 25.5579H67.352L73.9346 30.1238V0H29.9858V25.5579Z" fill="#C1D8ED"/>
<path d="M35.4069 7.56368L68.5137 7.56368V5.48061L35.4069 5.48061V7.56368Z" fill="white"/>
<path d="M35.4069 13.653L68.5137 13.653V11.57L35.4069 11.57V13.653Z" fill="white"/>
<path d="M35.4069 19.7424L68.5137 19.7424V17.6593L35.4069 17.6593V19.7424Z" fill="white"/>
<path d="M44.5533 50.6518H15.3949L10.2582 54.2147V30.7079H44.5533V50.6518Z" fill="#DEE8F5"/>
<path d="M40.3231 34.9847H14.4885V36.6102H40.3231V34.9847Z" fill="white"/>
<path d="M40.3231 39.7364H14.4885V41.3618H40.3231V39.7364Z" fill="white"/>
<path d="M40.3231 44.4882H14.4885V46.1137H40.3231V44.4882Z" fill="white"/>
</g>
<defs>
<clipPath id="clip0_33_1754">
<rect width="129" height="86" fill="white"/>
</clipPath>
</defs>
</svg>
