<svg width="97" height="116" viewBox="0 0 97 116" fill="none" xmlns="http://www.w3.org/2000/svg">
<g clip-path="url(#clip0_41_877)" filter="url(#filter0_di_41_877)">
<path opacity="0.2" d="M53.3704 110.095C29.2744 110.095 9.74078 90.31 9.74078 65.9035C9.74078 41.497 29.2744 21.7115 53.3704 21.7115C77.4664 21.7115 97 41.497 97 65.9035C97 90.31 77.4664 110.095 53.3704 110.095Z" fill="#367CFF"/>
<path d="M93.6006 102.968C95.467 98.894 96.4347 94.4567 96.4366 89.9652C96.4385 85.4736 95.4744 81.0355 93.6114 76.9596C91.7485 72.8836 89.0314 69.2675 85.649 66.3629C82.2667 63.4582 78.3003 61.3347 74.0256 60.1399L71.4295 69.6462C74.3415 70.4591 77.0436 71.9049 79.348 73.8829C81.6524 75.8609 83.5037 78.3236 84.7731 81.0997C86.0426 83.8759 86.6997 86.8988 86.6989 89.9583C86.698 93.0177 86.0391 96.0403 84.768 98.8157L93.6006 102.968Z" fill="#DBFF00"/>
<path d="M93.0912 116C93.6306 116 94.1595 115.849 94.6194 115.564C95.0793 115.279 95.4522 114.87 95.6969 114.383C96.3804 113.023 96.7928 111.541 96.9106 110.02C97.0284 108.499 96.8493 106.969 96.3835 105.518C95.4427 102.588 93.3913 100.156 90.6804 98.7581C89.3381 98.0658 87.8744 97.6481 86.3727 97.5288C84.8711 97.4094 83.3609 97.5909 81.9285 98.0627C79.0355 99.0156 76.6348 101.093 75.2544 103.839C75.0769 104.186 74.9689 104.565 74.9366 104.954C74.9043 105.343 74.9483 105.735 75.0662 106.106C75.184 106.478 75.3733 106.823 75.6232 107.12C75.8731 107.417 76.1786 107.662 76.5222 107.839C76.8657 108.016 77.2404 108.122 77.6248 108.152C78.0092 108.182 78.3956 108.135 78.7618 108.012C79.1279 107.89 79.4666 107.696 79.7582 107.441C80.0499 107.185 80.2888 106.874 80.4611 106.525C80.7954 105.856 81.2567 105.261 81.8185 104.773C82.3803 104.285 83.0316 103.914 83.7351 103.681C84.4386 103.449 85.1805 103.359 85.9183 103.417C86.6561 103.475 87.3753 103.68 88.0348 104.02C88.6942 104.361 89.281 104.829 89.7614 105.399C90.2419 105.969 90.6066 106.63 90.8346 107.343C91.0627 108.056 91.1497 108.808 91.0906 109.555C91.0315 110.302 90.8274 111.03 90.4901 111.697C90.2636 112.148 90.155 112.651 90.1747 113.156C90.1944 113.662 90.3417 114.154 90.6026 114.585C90.8635 115.017 91.2293 115.373 91.6649 115.621C92.1006 115.869 92.5917 115.999 93.0912 116V116Z" fill="#292A2E"/>
<path d="M17.5837 65.6077C21.6873 69.1575 26.6525 71.5328 31.9659 72.488L33.6803 62.778C28.9561 61.9156 24.6718 59.4244 21.5544 55.727C18.4369 52.0296 16.6783 47.3537 16.5767 42.4926L6.84112 42.6982C6.99204 50.6201 10.1519 58.1781 15.6635 63.8006C16.2816 64.4332 16.9217 65.0355 17.5837 65.6077Z" fill="#DBFF00"/>
<path d="M4.0423 42.4162C5.69932 43.8422 7.72231 44.7617 9.87553 45.0677C12.0287 45.3737 14.2235 45.0536 16.2039 44.1446C18.1844 43.2355 19.869 41.7751 21.0614 39.9335C22.2538 38.0919 22.9049 35.945 22.9388 33.7429C22.9463 32.9611 22.6481 32.2081 22.1093 31.6483C21.5704 31.0885 20.8348 30.7674 20.063 30.7553C19.2912 30.7431 18.546 31.0408 17.9902 31.5833C17.4344 32.1258 17.1131 32.8691 17.0966 33.6507C17.0734 35.1622 16.4584 36.6025 15.3868 37.6546C14.3152 38.7068 12.8749 39.2847 11.3826 39.2612C9.89034 39.2377 8.46842 38.6147 7.42964 37.5294C6.39086 36.444 5.82031 34.985 5.84351 33.4735C5.85555 32.6889 5.55936 31.9315 5.02008 31.368C4.4808 30.8045 3.74261 30.4811 2.96791 30.4689C2.1932 30.4567 1.44544 30.7567 0.889126 31.3029C0.332809 31.8491 0.0135078 32.5968 0.00145912 33.3815C-0.0260525 34.9076 0.245544 36.424 0.800522 37.8431C1.3555 39.2621 2.18283 40.5556 3.23465 41.6486C3.49319 41.9189 3.76242 42.1747 4.0423 42.4162Z" fill="#292A2E"/>
<path d="M24.8797 0.225751L27.5296 8.00977C27.5465 8.05937 27.5516 8.1123 27.5446 8.16428C27.5376 8.21626 27.5186 8.26584 27.4891 8.30901C27.4597 8.35218 27.4206 8.38774 27.3751 8.41281C27.3296 8.43789 27.279 8.45177 27.2272 8.45335L25.4394 8.50738C25.3869 8.50897 25.3356 8.52319 25.2897 8.54886C25.2437 8.57452 25.2045 8.61091 25.1752 8.655C25.1459 8.69908 25.1273 8.74961 25.1211 8.80238C25.1149 8.85516 25.1212 8.90867 25.1395 8.9585L28.0887 17.0004C28.1162 17.0757 28.1161 17.1584 28.0884 17.2336C28.0608 17.3088 28.0074 17.3714 27.9379 17.41C27.8685 17.4487 27.7877 17.4608 27.7102 17.4441C27.6327 17.4274 27.5637 17.3831 27.5157 17.3192L20.572 8.04939C20.5412 8.00832 20.5202 7.96061 20.5107 7.90997C20.5011 7.85933 20.5032 7.80714 20.5169 7.75747C20.5305 7.7078 20.5553 7.66199 20.5892 7.62361C20.6232 7.58523 20.6655 7.55533 20.7128 7.53622L22.7925 6.69573C22.8332 6.6793 22.8703 6.65483 22.9015 6.62377C22.9328 6.5927 22.9576 6.55565 22.9746 6.51476C22.9916 6.47388 23.0004 6.42999 23.0004 6.38563C23.0005 6.34128 22.9919 6.29735 22.9751 6.25641L20.643 0.581892C20.6224 0.531881 20.6142 0.477567 20.6189 0.423616C20.6237 0.369664 20.6413 0.317685 20.6702 0.272144C20.6992 0.226603 20.7386 0.188859 20.7851 0.162155C20.8317 0.13545 20.8839 0.120582 20.9373 0.118827L24.5567 0.000113089C24.6273 -0.00219389 24.6968 0.0184739 24.7549 0.0590836C24.813 0.0996933 24.8568 0.158106 24.8797 0.225751Z" fill="#DBFF00"/>
<path d="M92.5637 35.9496L89.476 42.032C89.4564 42.0708 89.4461 42.1137 89.4458 42.1573C89.4456 42.2008 89.4554 42.2439 89.4746 42.2829C89.4937 42.3219 89.5216 42.3558 89.5561 42.3819C89.5905 42.408 89.6306 42.4255 89.6729 42.433L91.1364 42.6916C91.1793 42.6992 91.2199 42.7171 91.2546 42.7437C91.2894 42.7704 91.3174 42.805 91.3363 42.8447C91.3553 42.8845 91.3646 42.9282 91.3636 42.9723C91.3626 43.0165 91.3512 43.0597 91.3304 43.0985L87.9661 49.3569C87.9353 49.4155 87.9261 49.4833 87.9403 49.5481C87.9544 49.6129 87.991 49.6705 88.0433 49.7104C88.0957 49.7503 88.1604 49.7699 88.2258 49.7658C88.2912 49.7616 88.353 49.7339 88.4 49.6877L95.1917 42.8982C95.2217 42.8681 95.2444 42.8314 95.2581 42.791C95.2719 42.7505 95.2762 42.7074 95.2708 42.665C95.2654 42.6225 95.2504 42.5819 95.227 42.5463C95.2036 42.5107 95.1724 42.481 95.1359 42.4596L93.5241 41.5194C93.4926 41.5009 93.4651 41.4764 93.443 41.4471C93.421 41.4178 93.4049 41.3843 93.3957 41.3487C93.3866 41.313 93.3844 41.2759 93.3895 41.2394C93.3946 41.203 93.4068 41.1679 93.4254 41.1362L96.0054 36.7502C96.028 36.7115 96.0411 36.6679 96.0434 36.623C96.0457 36.5782 96.0373 36.5334 96.0188 36.4926C96.0004 36.4517 95.9724 36.416 95.9374 36.3885C95.9023 36.3609 95.8612 36.3424 95.8176 36.3344L92.8555 35.8034C92.7978 35.7931 92.7384 35.8018 92.6859 35.8281C92.6334 35.8544 92.5906 35.897 92.5637 35.9496Z" fill="#292A2E"/>
<path d="M80.5646 60.6577L74.109 97.6383C73.2745 102.419 70.8044 106.749 67.1322 109.868C63.4599 112.988 58.8202 114.698 54.0274 114.698C49.3546 114.698 44.8235 113.073 41.1922 110.094C37.5609 107.116 35.0497 102.964 34.0786 98.3345L26.176 60.6572L80.5646 60.6577Z" fill="#DBFF00"/>
<path d="M53.3704 68.8014C38.3515 68.8014 26.1762 65.1554 26.1762 60.6577C26.1762 56.16 38.3515 52.5139 53.3704 52.5139C68.3893 52.5139 80.5646 56.16 80.5646 60.6577C80.5646 65.1554 68.3893 68.8014 53.3704 68.8014Z" fill="#292A2E"/>
<path d="M43.6943 81.5542H62.7285C64.5316 81.5542 65.9932 83.0347 65.9932 84.861V94.1878C65.9932 96.0141 64.5316 97.4946 62.7285 97.4946H43.6943C41.8912 97.4946 40.4295 96.0141 40.4295 94.1878V84.861C40.4295 83.0347 41.8912 81.5542 43.6943 81.5542Z" fill="#292A2E"/>
<path d="M55.2738 89.8221H56.4054C56.4054 88.3121 55.73 86.2311 52.5122 84.8923C50.6272 84.1081 51.2512 81.2104 51.258 81.1812L50.155 80.9248C50.1191 81.0825 49.3081 84.7985 52.0821 85.9517C54.2 86.8328 55.2738 88.1356 55.2738 89.8221Z" fill="#FF3636"/>
<path d="M45.1211 98.1649C46.2215 96.0749 46.6808 96.1163 48.6173 96.2906C49.2478 96.3474 50.0321 96.4181 50.9898 96.4181C55.2762 96.4181 55.7222 93.2579 55.7264 93.2261L54.604 93.0817L55.1653 93.1539L54.6047 93.0763C54.5918 93.166 54.249 95.2719 50.9901 95.2719C50.0828 95.2719 49.3574 95.2064 48.7179 95.149C46.5392 94.9525 45.517 94.9774 44.123 97.6256L45.1211 98.1649Z" fill="#FF3636"/>
<path d="M58.2018 90.4096C58.2404 90.4095 58.2785 90.4001 58.3128 90.3821L59.5359 89.7435C59.5931 89.7136 59.6362 89.6619 59.6557 89.5998C59.6753 89.5378 59.6696 89.4704 59.6401 89.4125C59.6106 89.3546 59.5596 89.3109 59.4983 89.2912C59.437 89.2714 59.3705 89.277 59.3133 89.3069L58.0902 89.9455C58.0418 89.9708 58.0032 90.0117 57.9805 90.0619C57.9579 90.1121 57.9526 90.1685 57.9655 90.2221C57.9784 90.2757 58.0087 90.3233 58.0515 90.3573C58.0944 90.3913 58.1473 90.4097 58.2018 90.4096Z" fill="white"/>
<path d="M59.6795 92.8403C59.7361 92.8402 59.7908 92.82 59.8342 92.7832C59.8776 92.7465 59.907 92.6955 59.9173 92.6392C59.9275 92.5828 59.918 92.5246 59.8903 92.4746C59.8627 92.4247 59.8186 92.386 59.7658 92.3655L58.4795 91.8695C58.4203 91.8497 58.3558 91.8539 58.2995 91.881C58.2432 91.9082 58.1994 91.9562 58.1771 92.0153C58.1549 92.0743 58.156 92.1397 58.1801 92.1979C58.2043 92.2562 58.2497 92.3027 58.3069 92.328L59.5932 92.8241C59.6207 92.8348 59.65 92.8403 59.6795 92.8403Z" fill="white"/>
<path d="M51.9436 91.831C52.0043 91.8309 52.0629 91.8078 52.1076 91.766C52.1523 91.7243 52.1799 91.6671 52.1849 91.6058C52.1899 91.5445 52.1721 91.4834 52.1348 91.4348C52.0975 91.3862 52.0436 91.3535 51.9837 91.3432L50.6257 91.1109C50.5625 91.1004 50.4977 91.1157 50.4455 91.1535C50.3934 91.1912 50.3581 91.2483 50.3474 91.3123C50.3368 91.3764 50.3515 91.4421 50.3885 91.4951C50.4255 91.5481 50.4818 91.5841 50.5449 91.5952L51.9028 91.8276C51.9163 91.8299 51.9299 91.831 51.9436 91.831Z" fill="white"/>
<path d="M52.9367 90.167C52.98 90.167 53.0226 90.1552 53.0599 90.1329C53.0972 90.1105 53.128 90.0784 53.1489 90.04C53.1698 90.0015 53.1802 89.9581 53.1789 89.9142C53.1776 89.8703 53.1648 89.8276 53.1416 89.7904L52.4069 88.6115C52.3903 88.5835 52.3683 88.5592 52.3422 88.5399C52.3162 88.5206 52.2866 88.5068 52.2552 88.4993C52.2238 88.4918 52.1912 88.4906 52.1594 88.496C52.1276 88.5014 52.0972 88.5131 52.0699 88.5305C52.0426 88.548 52.019 88.5707 52.0005 88.5975C51.9821 88.6243 51.969 88.6545 51.9622 88.6864C51.9554 88.7184 51.955 88.7514 51.9609 88.7835C51.9668 88.8156 51.979 88.8462 51.9968 88.8735L52.7315 90.0524C52.7534 90.0875 52.7836 90.1164 52.8195 90.1365C52.8554 90.1565 52.8957 90.167 52.9367 90.167Z" fill="white"/>
<path d="M39.0949 88.9644C41.449 88.9644 43.413 88.313 44.9481 87.0201C47.7844 84.6311 48.0885 80.9438 48.1005 80.7881L46.9721 80.7021L47.5363 80.7452L46.9722 80.7013C46.9695 80.734 46.6838 84.0744 44.2163 86.1462C42.5997 87.5029 40.3958 88.038 37.6616 87.7363L37.5391 88.8758C38.0557 88.9338 38.5751 88.9634 39.0949 88.9644Z" fill="#367CFF"/>
<path d="M68.5974 96.0879L68.8065 94.9613C64.468 94.1351 64.4712 92.3069 64.475 90.1903C64.4774 88.7648 64.4803 87.1491 62.8223 86.2043C59.7387 84.4472 59.9857 80.4645 59.9884 80.4242L58.86 80.3383C58.8457 80.531 58.5479 85.0835 62.2675 87.203C63.2952 87.7887 63.3459 88.7188 63.3433 90.1879C63.3395 92.3701 63.3348 95.0855 68.5974 96.0879Z" fill="#969461"/>
<path d="M35.1559 63.1984C35.1776 63.1985 35.1993 63.1963 35.2206 63.1919C36.4455 62.9423 38.7564 61.8819 38.7357 59.6524C38.7374 59.2154 38.6348 58.7844 38.4367 58.3962C38.2386 58.008 37.9509 57.6739 37.5979 57.4226C37.9591 56.7445 38.066 55.9571 37.8988 55.2055C37.4368 52.7672 35.0132 52.34 33.7956 52.4556C33.7104 52.4639 33.632 52.5061 33.5775 52.5728C33.523 52.6395 33.4968 52.7254 33.5047 52.8117C33.5126 52.8979 33.5539 52.9775 33.6195 53.033C33.6852 53.0885 33.7699 53.1154 33.855 53.1078C33.9745 53.0966 36.7972 52.8681 37.2638 55.329C37.4015 55.9229 37.3232 56.5472 37.0433 57.0874C35.8431 56.5009 34.1992 56.4979 33.4446 57.0823C33.2934 57.1871 33.1757 57.3344 33.1059 57.506C33.0362 57.6776 33.0174 57.8661 33.0519 58.0484C33.2029 58.8458 34.127 59.2437 35.297 59.0161C36.0337 58.88 36.7076 58.5076 37.2193 57.9539C37.4902 58.1451 37.711 58.4003 37.8625 58.6973C38.0141 58.9944 38.0918 59.3244 38.0891 59.6588C38.1099 61.9021 35.1228 62.5438 35.0927 62.55C35.014 62.566 34.944 62.611 34.8963 62.6764C34.8486 62.7417 34.8266 62.8227 34.8345 62.9035C34.8425 62.9844 34.8798 63.0594 34.9393 63.1139C34.9988 63.1685 35.0762 63.1986 35.1564 63.1986L35.1559 63.1984ZM36.6364 57.6194C36.2286 58.0047 35.7218 58.2657 35.1742 58.3726C34.4029 58.5221 33.7627 58.3299 33.6859 57.9246C33.6744 57.8617 33.6827 57.7966 33.7098 57.7388C33.7368 57.6809 33.7812 57.6332 33.8366 57.6024C34.3247 57.2241 35.5969 57.1625 36.6364 57.6194Z" fill="white"/>
<path d="M62.7913 60.7387C62.8591 60.7387 62.9253 60.7171 62.9803 60.6769C63.0354 60.6367 63.0765 60.58 63.098 60.5148C63.1195 60.4495 63.1201 60.3792 63.0999 60.3135C63.0797 60.2479 63.0396 60.1904 62.9853 60.1492C62.9156 60.096 61.2878 58.8249 62.2133 57.2826C62.4118 56.9227 62.7233 56.6403 63.0983 56.4802C63.5024 57.4136 64.4163 58.2323 65.134 58.2933C65.2853 58.3137 65.4391 58.2889 65.5767 58.222C65.7142 58.1551 65.8295 58.049 65.9084 57.9167C65.9969 57.7608 66.0418 57.5834 66.0382 57.4036C66.0346 57.2238 65.9827 57.0484 65.888 56.8963C65.5277 56.2297 64.6314 55.7314 63.7573 55.7114C63.6846 55.7101 63.6119 55.7114 63.5407 55.7162C63.5002 55.4936 63.5113 55.2646 63.5733 55.0471C63.6354 54.8297 63.7465 54.6299 63.898 54.4636C64.9614 53.2507 66.8816 54.3874 66.9007 54.399C66.9371 54.421 66.9775 54.4356 67.0196 54.4418C67.0616 54.4479 67.1044 54.4457 67.1456 54.4351C67.1867 54.4246 67.2254 54.4059 67.2595 54.3802C67.2935 54.3544 67.3222 54.3222 67.3439 54.2852C67.3657 54.2483 67.38 54.2074 67.3861 54.1648C67.3922 54.1222 67.39 54.0789 67.3796 54.0372C67.3691 53.9955 67.3507 53.9563 67.3253 53.9218C67.2999 53.8873 67.2681 53.8583 67.2316 53.8363C67.1346 53.7775 64.8287 52.4155 63.4146 54.0285C63.1954 54.2713 63.0353 54.5627 62.9471 54.8794C62.859 55.196 62.8452 55.5292 62.907 55.8523C62.3812 56.0608 61.9414 56.4451 61.6608 56.9415C60.6747 58.5835 61.8425 60.0998 62.5973 60.6722C62.6531 60.7152 62.7212 60.7385 62.7913 60.7387ZM63.7612 56.3679C64.4649 56.3908 65.1056 56.8129 65.3214 57.212C65.3593 57.2641 65.3825 57.3256 65.3886 57.39C65.3947 57.4544 65.3835 57.5193 65.3562 57.5778C65.34 57.6055 65.3115 57.6505 65.1877 57.6413C64.7824 57.6073 64.1169 57.0617 63.7616 56.3679H63.7612Z" fill="white"/>
<path d="M27.3875 33.4718C25.7323 45.3268 36.7153 52.7192 51.246 54.8003C65.7768 56.8815 78.3523 52.8641 80.0073 41.0083C81.6624 29.1524 71.7703 13.9479 57.2397 11.8667C42.7091 9.78557 29.0426 21.616 27.3875 33.4718Z" fill="#DBFF00"/>
<path d="M41.327 20.7941L56.2924 22.9375C60.9834 23.6093 64.2486 28.0058 63.5853 32.7572C62.922 37.5087 58.5815 40.8159 53.8905 40.144L38.925 38.0007C34.234 37.3289 30.9689 32.9324 31.6322 28.181C32.2955 23.4295 36.636 20.1223 41.327 20.7941Z" fill="white"/>
<path d="M58.5268 2.69232L59.6873 2.9176L57.4461 14.7615L56.2856 14.5362L58.5268 2.69232Z" fill="#DBFF00"/>
<path d="M58.9411 5.86833C57.7485 5.86833 56.7817 4.88906 56.7817 3.68105C56.7817 2.47305 57.7485 1.49377 58.9411 1.49377C60.1338 1.49377 61.1006 2.47305 61.1006 3.68105C61.1006 4.88906 60.1338 5.86833 58.9411 5.86833Z" fill="#292A2E"/>
<path d="M50.8356 34.7418C51.0456 34.7419 51.2499 34.6725 51.4176 34.5443L57.7726 29.703C57.8762 29.6261 57.9637 29.5292 58.03 29.4178C58.0964 29.3064 58.1402 29.1828 58.159 29.0541C58.1778 28.9254 58.1712 28.7943 58.1395 28.6682C58.1079 28.5421 58.0518 28.4237 57.9746 28.3197C57.8974 28.2158 57.8006 28.1284 57.6898 28.0626C57.579 27.9969 57.4564 27.9541 57.3291 27.9367C57.2019 27.9193 57.0724 27.9277 56.9484 27.9613C56.8243 27.995 56.7081 28.0533 56.6065 28.1328L50.2518 32.9745C50.0889 33.0984 49.9685 33.271 49.9078 33.468C49.8472 33.665 49.8493 33.8763 49.9139 34.072C49.9785 34.2678 50.1023 34.4379 50.2677 34.5583C50.4332 34.6787 50.6319 34.7433 50.8356 34.743V34.7418Z" fill="#292A2E"/>
<path d="M56.4033 35.539C56.5835 35.5389 56.7601 35.4879 56.9133 35.3918C57.0665 35.2957 57.1902 35.1583 57.2706 34.995C57.351 34.8316 57.3849 34.6488 57.3685 34.4671C57.3521 34.2853 57.286 34.1118 57.1777 33.966L52.3972 27.5292C52.2417 27.3233 52.0122 27.1881 51.7587 27.1528C51.5052 27.1176 51.2482 27.1852 51.0437 27.341C50.8392 27.4969 50.7038 27.7282 50.667 27.9847C50.6301 28.2412 50.6949 28.5021 50.8471 28.7105L55.6273 35.1472C55.7177 35.2691 55.8349 35.3679 55.9696 35.436C56.1043 35.504 56.2528 35.5393 56.4033 35.539Z" fill="#292A2E"/>
<path d="M37.0352 32.765C37.2452 32.765 37.4495 32.6957 37.6171 32.5675L43.9718 27.7256C44.0744 27.6484 44.1609 27.5514 44.2264 27.4401C44.2918 27.3289 44.3349 27.2057 44.3532 27.0775C44.3714 26.9494 44.3645 26.8188 44.3328 26.6934C44.301 26.5679 44.2451 26.4501 44.1683 26.3466C44.0915 26.2431 43.9952 26.1561 43.885 26.0904C43.7748 26.0247 43.6529 25.9818 43.5263 25.964C43.3997 25.9462 43.2708 25.954 43.1472 25.9868C43.0235 26.0197 42.9075 26.0769 42.8058 26.1553L36.4511 30.9972C36.2881 31.121 36.1678 31.2937 36.1071 31.4907C36.0464 31.6877 36.0486 31.899 36.1132 32.0947C36.1778 32.2904 36.3016 32.4606 36.467 32.581C36.6324 32.7014 36.8311 32.766 37.0349 32.7656L37.0352 32.765Z" fill="#292A2E"/>
<path d="M42.6026 33.5626C42.7828 33.5625 42.9594 33.5115 43.1126 33.4154C43.2658 33.3193 43.3895 33.1819 43.47 33.0186C43.5504 32.8552 43.5843 32.6724 43.5679 32.4907C43.5515 32.3089 43.4854 32.1354 43.3771 31.9895L38.5968 25.5528C38.4421 25.3445 38.2122 25.2071 37.9574 25.1706C37.7027 25.1341 37.4441 25.2016 37.2385 25.3582C37.0329 25.5149 36.8972 25.7478 36.8612 26.0058C36.8252 26.2638 36.8918 26.5258 37.0465 26.734L41.8267 33.1707C41.9171 33.2926 42.0343 33.3915 42.1689 33.4595C42.3036 33.5275 42.4521 33.5628 42.6026 33.5626Z" fill="#292A2E"/>
<path d="M46.2651 42.8313C45.9732 42.4399 45.5774 42.1405 45.124 41.9681C44.6705 41.7957 44.178 41.7573 43.7039 41.8576C43.2297 41.9578 42.7935 42.1924 42.4459 42.5341C42.0984 42.8758 41.8539 43.3105 41.7409 43.7876C41.7204 43.872 41.7165 43.9597 41.7296 44.0456C41.7426 44.1315 41.7723 44.214 41.8169 44.2882C41.8616 44.3625 41.9202 44.427 41.9896 44.4782C42.059 44.5294 42.1377 44.5662 42.2211 44.5865C42.3046 44.6067 42.3912 44.6101 42.4759 44.5963C42.5606 44.5825 42.6418 44.5519 42.7149 44.5063C42.7879 44.4606 42.8513 44.4007 42.9013 44.3301C42.9514 44.2595 42.9872 44.1796 43.0067 44.0949C43.0451 43.9328 43.1146 43.7799 43.2113 43.645C43.3081 43.5101 43.4301 43.3958 43.5704 43.3086C43.7107 43.2214 43.8667 43.1631 44.0292 43.137C44.1918 43.1109 44.3579 43.1174 44.518 43.1563C44.6781 43.1952 44.829 43.2656 44.9622 43.3636C45.0954 43.4615 45.2083 43.5851 45.2943 43.7273C45.3804 43.8694 45.4379 44.0273 45.4637 44.192C45.4895 44.3567 45.4831 44.5249 45.4447 44.687C45.4057 44.8566 45.4345 45.0349 45.5248 45.183C45.6152 45.3312 45.7597 45.4371 45.9268 45.4777C46.094 45.5183 46.2702 45.4902 46.417 45.3997C46.5638 45.3091 46.6693 45.1634 46.7105 44.9944C46.7895 44.6639 46.8031 44.3208 46.7504 43.985C46.6976 43.6492 46.5797 43.3273 46.4033 43.038C46.3604 42.9666 46.3144 42.8977 46.2651 42.8313Z" fill="#292A2E"/>
</g>
<defs>
<filter id="filter0_di_41_877" x="-3" y="0" width="105" height="124" filterUnits="userSpaceOnUse" color-interpolation-filters="sRGB">
<feFlood flood-opacity="0" result="BackgroundImageFix"/>
<feColorMatrix in="SourceAlpha" type="matrix" values="0 0 0 0 0 0 0 0 0 0 0 0 0 0 0 0 0 0 127 0" result="hardAlpha"/>
<feOffset dx="1" dy="4"/>
<feGaussianBlur stdDeviation="2"/>
<feComposite in2="hardAlpha" operator="out"/>
<feColorMatrix type="matrix" values="0 0 0 0 0 0 0 0 0 0 0 0 0 0 0 0 0 0 0.3 0"/>
<feBlend mode="normal" in2="BackgroundImageFix" result="effect1_dropShadow_41_877"/>
<feBlend mode="normal" in="SourceGraphic" in2="effect1_dropShadow_41_877" result="shape"/>
<feColorMatrix in="SourceAlpha" type="matrix" values="0 0 0 0 0 0 0 0 0 0 0 0 0 0 0 0 0 0 127 0" result="hardAlpha"/>
<feOffset dy="4"/>
<feGaussianBlur stdDeviation="2"/>
<feComposite in2="hardAlpha" operator="arithmetic" k2="-1" k3="1"/>
<feColorMatrix type="matrix" values="0 0 0 0 0 0 0 0 0 0 0 0 0 0 0 0 0 0 0.25 0"/>
<feBlend mode="normal" in2="shape" result="effect2_innerShadow_41_877"/>
</filter>
<clipPath id="clip0_41_877">
<rect width="97" height="116" fill="white" transform="matrix(-1 0 0 1 97 0)"/>
</clipPath>
</defs>
</svg>
