<svg width="121" height="107" viewBox="0 0 121 107" fill="none" xmlns="http://www.w3.org/2000/svg">
<g opacity="0.7">
<path d="M102.904 0.931946H81.6219V24.7423H102.904V0.931946Z" fill="#F4F4F4"/>
<path d="M102.904 24.7423H103.595V0.931944H102.904V24.7423Z" fill="#F4F4F4"/>
<path opacity="0.05" d="M102.904 24.7423H103.595V0.931944H102.904V24.7423Z" fill="#292A2E"/>
<path opacity="0.05" d="M99.0274 5.69464H85.4988V19.9797H99.0274V5.69464Z" fill="#292A2E"/>
<path opacity="0.03" d="M99.0274 5.69464H98.3224V19.9797H99.0274V5.69464Z" fill="#292A2E"/>
<path d="M120.31 31.1719H102.904V47.7503H120.31V31.1719Z" fill="#F4F4F4"/>
<path opacity="0.05" d="M117.139 34.1918H106.075V44.7303H117.139V34.1918Z" fill="#292A2E"/>
<path d="M120.31 47.7502H121V31.1718H120.31V47.7502Z" fill="#F4F4F4"/>
<path opacity="0.05" d="M120.31 47.7502H121V31.1718H120.31V47.7502Z" fill="#292A2E"/>
<path opacity="0.03" d="M117.139 34.1918H116.434V44.7303H117.139V34.1918Z" fill="#292A2E"/>
</g>
<g opacity="0.7">
<path d="M59.3283 0H9.22388V47.2897H59.3283V0Z" fill="#F4F4F4"/>
<path d="M9.22392 0H8.64963V47.2897H9.22392V0Z" fill="#F4F4F4"/>
<path opacity="0.05" d="M9.22392 0H8.64963V47.2897H9.22392V0Z" fill="#292A2E"/>
<path opacity="0.05" d="M21.362 32.5865V20.214H32.1001V27.4021H48.7336V40.1297H55.8031V47.2897H48.7336H47.3718H11.6342V32.5865H21.362Z" fill="#292A2E"/>
<path opacity="0.34" d="M30.7219 21.5574H22.9022V22.9007H30.7219V21.5574Z" fill="#FFFFFA"/>
<path opacity="0.34" d="M30.7219 24.3412H22.9022V25.6845H30.7219V24.3412Z" fill="#FFFFFA"/>
<path opacity="0.34" d="M30.7219 27.1248H22.9022V28.4682H30.7219V27.1248Z" fill="#FFFFFA"/>
<path opacity="0.34" d="M14.462 33.8905H13.0208V35.2338H14.462V33.8905Z" fill="#FFFFFA"/>
<path opacity="0.34" d="M14.462 36.6743H13.0208V38.0177H14.462V36.6743Z" fill="#FFFFFA"/>
<path opacity="0.34" d="M14.462 39.458H13.0208V40.8013H14.462V39.458Z" fill="#FFFFFA"/>
<path opacity="0.34" d="M17.1284 33.8905H15.6872V35.2338H17.1284V33.8905Z" fill="#FFFFFA"/>
<path opacity="0.34" d="M17.1284 36.6743H15.6871V38.0177H17.1284V36.6743Z" fill="#FFFFFA"/>
<path opacity="0.34" d="M17.1284 39.458H15.6871V40.8013H17.1284V39.458Z" fill="#FFFFFA"/>
<path opacity="0.34" d="M19.7227 33.8905H18.2815V35.2338H19.7227V33.8905Z" fill="#FFFFFA"/>
<path opacity="0.34" d="M19.7227 36.6743H18.2815V38.0177H19.7227V36.6743Z" fill="#FFFFFA"/>
<path opacity="0.34" d="M19.7227 39.458H18.2815V40.8013H19.7227V39.458Z" fill="#FFFFFA"/>
<path d="M9.22388 23.3796H19.3057V0H20.1395V23.3796H47.3717V0H48.2055V23.3796H59.3283V24.1665H48.2055V47.2897H47.3717V24.1665H20.1395V47.2897H19.3057V24.1665H9.22388V23.3796Z" fill="white"/>
<path d="M61.3243 47.2326H7.22791V48.8053H61.3243V47.2326Z" fill="#F4F4F4"/>
<path opacity="0.1" d="M61.3243 47.2326H7.22791V48.8053H61.3243V47.2326Z" fill="#292A2E"/>
<path opacity="0.1" d="M7.22788 47.2326H6.4469V48.8053H7.22788V47.2326Z" fill="#292A2E"/>
<path opacity="0.1" d="M7.22788 47.2326H6.4469V48.8053H7.22788V47.2326Z" fill="#292A2E"/>
</g>
<path d="M38.142 5.87207H96.788C97.6328 5.87207 98.443 6.18881 99.0403 6.7526C99.6377 7.3164 99.9733 8.08107 99.9733 8.87839V75.1735C99.9733 75.9881 99.6304 76.7694 99.0201 77.3455C98.4097 77.9216 97.5819 78.2452 96.7188 78.2452H38.2114C37.3483 78.2452 36.5205 77.9216 35.9101 77.3455C35.2998 76.7694 34.9569 75.9881 34.9569 75.1735V8.87804C34.957 8.0808 35.2926 7.31624 35.8899 6.75252C36.4873 6.1888 37.2973 5.8721 38.142 5.87207Z" fill="white"/>
<path d="M96.7187 78.3618H38.2113C37.3154 78.3618 36.4561 78.0259 35.8226 77.4279C35.189 76.83 34.8331 76.019 34.8331 75.1734V8.76131C34.8332 7.96406 35.1688 7.19948 35.7661 6.63576C36.3634 6.07203 37.1736 5.75534 38.0183 5.75534H96.9116C97.7564 5.75534 98.5665 6.07206 99.1639 6.63583C99.7612 7.1996 100.097 7.96424 100.097 8.76155V75.1734C100.097 76.019 99.741 76.83 99.1074 77.4279C98.4739 78.0259 97.6146 78.3618 96.7187 78.3618ZM35.0805 8.87304V75.1734C35.0805 75.5614 35.1615 75.9457 35.3188 76.3042C35.4761 76.6627 35.7067 76.9885 35.9975 77.2629C36.2882 77.5373 36.6334 77.7549 37.0132 77.9034C37.3931 78.0519 37.8002 78.1283 38.2113 78.1283H96.7187C97.549 78.1283 98.3454 77.817 98.9325 77.2628C99.5196 76.7087 99.8495 75.9571 99.8495 75.1734V8.84385C99.8495 8.46888 99.7712 8.09758 99.6191 7.75117C99.467 7.40476 99.2441 7.09001 98.9631 6.8249C98.6822 6.55978 98.3486 6.3495 97.9816 6.20604C97.6145 6.06259 97.2211 5.98878 96.8238 5.98882H38.1366C37.3261 5.98882 36.5488 6.29269 35.9757 6.83358C35.4026 7.37446 35.0806 8.10807 35.0805 8.87304Z" fill="#292A2E"/>
<path d="M47.569 20.2636H40.4619C40.0659 20.2632 39.6862 20.1145 39.4061 19.8502C39.126 19.5859 38.9684 19.2275 38.9679 18.8537V12.1457C38.9684 11.7719 39.1259 11.4135 39.406 11.1491C39.6861 10.8848 40.0658 10.7361 40.4619 10.7356H47.569C47.9652 10.736 48.345 10.8847 48.6251 11.1491C48.9052 11.4134 49.0628 11.7719 49.0632 12.1457V18.8537C49.0627 19.2275 48.9051 19.5859 48.625 19.8502C48.3449 20.1145 47.9651 20.2632 47.569 20.2636ZM40.4619 10.9689C40.1314 10.9692 39.8146 11.0933 39.5809 11.3139C39.3471 11.5345 39.2157 11.8336 39.2153 12.1455V18.8537C39.2157 19.1657 39.3471 19.4647 39.5809 19.6853C39.8146 19.9059 40.1314 20.03 40.4619 20.0303H47.569C47.8996 20.03 48.2165 19.9059 48.4502 19.6853C48.684 19.4648 48.8154 19.1657 48.8158 18.8537V12.1457C48.8154 11.8338 48.684 11.5347 48.4502 11.3141C48.2165 11.0935 47.8996 10.9694 47.569 10.9691L40.4619 10.9689Z" fill="#292A2E"/>
<path d="M47.569 33.5532H40.4619C40.0658 33.5528 39.6861 33.4041 39.406 33.1397C39.1259 32.8754 38.9684 32.517 38.9679 32.1431V25.4353C38.9683 25.0614 39.1259 24.7029 39.406 24.4386C39.686 24.1742 40.0658 24.0255 40.4619 24.025H47.569C47.9652 24.0255 48.345 24.1742 48.6251 24.4386C48.9052 24.7029 49.0628 25.0614 49.0632 25.4353V32.1431C49.0628 32.517 48.9052 32.8754 48.6251 33.1398C48.345 33.4041 47.9652 33.5528 47.569 33.5532ZM40.4619 24.2589C40.1314 24.2592 39.8145 24.3833 39.5808 24.6039C39.3471 24.8245 39.2156 25.1236 39.2153 25.4356V32.1435C39.2156 32.4554 39.3471 32.7545 39.5808 32.9751C39.8145 33.1957 40.1314 33.3197 40.4619 33.3201H47.569C47.8996 33.3197 48.2165 33.1957 48.4502 32.9751C48.684 32.7545 48.8154 32.4554 48.8158 32.1435V25.4353C48.8154 25.1233 48.684 24.8242 48.4502 24.6036C48.2165 24.383 47.8996 24.2589 47.569 24.2585L40.4619 24.2589Z" fill="#292A2E"/>
<path d="M47.569 46.8428H40.4619C40.0658 46.8424 39.6861 46.6937 39.406 46.4293C39.1259 46.165 38.9684 45.8065 38.9679 45.4327V38.7248C38.9684 38.351 39.1259 37.9926 39.406 37.7282C39.6861 37.4639 40.0658 37.3152 40.4619 37.3147H47.569C47.9652 37.3151 48.345 37.4638 48.6251 37.7282C48.9052 37.9925 49.0628 38.351 49.0632 38.7248V45.4327C49.0628 45.8066 48.9052 46.165 48.6251 46.4294C48.345 46.6937 47.9652 46.8424 47.569 46.8428ZM40.4619 37.5482C40.1314 37.5486 39.8145 37.6726 39.5808 37.8932C39.3471 38.1138 39.2156 38.4129 39.2153 38.7248V45.4327C39.2156 45.7447 39.3471 46.0437 39.5808 46.2643C39.8145 46.4849 40.1314 46.609 40.4619 46.6093H47.569C47.8996 46.609 48.2165 46.4849 48.4502 46.2643C48.684 46.0437 48.8154 45.7447 48.8158 45.4327V38.7248C48.8154 38.4129 48.684 38.1138 48.4502 37.8932C48.2165 37.6726 47.8996 37.5486 47.569 37.5482H40.4619Z" fill="#292A2E"/>
<path d="M47.569 59.9498H40.4619C40.0658 59.9494 39.6861 59.8007 39.406 59.5363C39.1259 59.272 38.9684 58.9136 38.9679 58.5397V51.8319C38.9683 51.458 39.1259 51.0995 39.406 50.8352C39.686 50.5708 40.0658 50.4221 40.4619 50.4216H47.569C47.9652 50.4221 48.345 50.5708 48.6251 50.8352C48.9052 51.0995 49.0628 51.458 49.0632 51.8319V58.5397C49.0628 58.9136 48.9052 59.272 48.6251 59.5364C48.345 59.8007 47.9652 59.9494 47.569 59.9498ZM40.4619 50.6551C40.1314 50.6555 39.8145 50.7795 39.5808 51.0002C39.3471 51.2208 39.2156 51.5199 39.2153 51.8319V58.5397C39.2157 58.8517 39.3471 59.1507 39.5809 59.3713C39.8146 59.5919 40.1314 59.716 40.4619 59.7163H47.569C47.8996 59.716 48.2165 59.5919 48.4502 59.3713C48.684 59.1508 48.8154 58.8517 48.8158 58.5397V51.8319C48.8155 51.5199 48.684 51.2208 48.4503 51.0002C48.2165 50.7795 47.8996 50.6555 47.569 50.6551H40.4619Z" fill="#292A2E"/>
<path d="M47.569 73.0567H40.4619C40.0658 73.0563 39.686 72.9075 39.406 72.6432C39.1259 72.3788 38.9683 72.0203 38.9679 71.6465V64.9387C38.9683 64.5649 39.1259 64.2064 39.406 63.942C39.686 63.6777 40.0658 63.5289 40.4619 63.5285H47.569C47.9652 63.5289 48.345 63.6777 48.6251 63.942C48.9052 64.2064 49.0628 64.5649 49.0632 64.9387V71.6466C49.0627 72.0204 48.9051 72.3789 48.625 72.6432C48.3449 72.9076 47.9652 73.0563 47.569 73.0567ZM40.4619 63.7619C40.1314 63.7622 39.8145 63.8863 39.5808 64.1069C39.3471 64.3276 39.2156 64.6267 39.2153 64.9386V71.6465C39.2156 71.9584 39.3471 72.2575 39.5808 72.4781C39.8145 72.6987 40.1314 72.8228 40.4619 72.8232H47.569C47.8996 72.8228 48.2165 72.6987 48.4502 72.4781C48.684 72.2575 48.8154 71.9584 48.8158 71.6465V64.9387C48.8154 64.6268 48.684 64.3277 48.4502 64.1071C48.2165 63.8865 47.8996 63.7624 47.569 63.762L40.4619 63.7619Z" fill="#292A2E"/>
<path d="M42.7513 31.4728C42.6234 31.4729 42.5005 31.4261 42.4084 31.3424L40.3369 29.4628C40.29 29.4203 40.2525 29.3695 40.2264 29.3134C40.2004 29.2572 40.1863 29.1967 40.185 29.1354C40.1837 29.0741 40.1953 29.0131 40.2189 28.956C40.2426 28.8989 40.278 28.8468 40.323 28.8025C40.368 28.7583 40.4218 28.7229 40.4814 28.6983C40.5409 28.6738 40.605 28.6605 40.6699 28.6593C40.7349 28.658 40.7995 28.6689 40.86 28.6913C40.9205 28.7136 40.9757 28.747 41.0226 28.7895L42.7429 30.3504L47.0548 26.2435C47.1475 26.1569 47.2726 26.1084 47.4029 26.1085C47.5333 26.1085 47.6584 26.1571 47.751 26.2437C47.8436 26.3303 47.8962 26.4479 47.8975 26.5709C47.8988 26.6939 47.8485 26.8124 47.7578 26.9007L43.1027 31.334C43.0568 31.3779 43.0021 31.4129 42.9418 31.4367C42.8814 31.4605 42.8167 31.4728 42.7513 31.4728Z" fill="#0CBC8B"/>
<path d="M42.7513 44.7624C42.6234 44.7625 42.5005 44.7158 42.4084 44.6321L40.3369 42.7526C40.2422 42.6667 40.1876 42.549 40.185 42.4251C40.1824 42.3013 40.2321 42.1816 40.323 42.0923C40.4139 42.003 40.5387 41.9514 40.6699 41.949C40.8011 41.9465 40.928 41.9934 41.0226 42.0792L42.7429 43.6397L47.0548 39.5331C47.1472 39.4451 47.2728 39.3953 47.404 39.3948C47.5352 39.3942 47.6613 39.4429 47.7545 39.53C47.8478 39.6172 47.9005 39.7358 47.9011 39.8596C47.9017 39.9835 47.8501 40.1025 47.7578 40.1904L43.1027 44.6237C43.0568 44.6677 43.0021 44.7026 42.9417 44.7264C42.8814 44.7502 42.8167 44.7624 42.7513 44.7624Z" fill="#0CBC8B"/>
<path opacity="0.5" d="M94.6295 13.4225H52.9475C52.7569 13.4225 52.6023 13.5684 52.6023 13.7484C52.6023 13.9283 52.7569 14.0742 52.9475 14.0742H94.6295C94.8202 14.0742 94.9748 13.9283 94.9748 13.7484C94.9748 13.5684 94.8202 13.4225 94.6295 13.4225Z" fill="#262626"/>
<path opacity="0.5" d="M79.7867 16.9248H52.9475C52.7569 16.9248 52.6023 17.0707 52.6023 17.2506C52.6023 17.4306 52.7569 17.5765 52.9475 17.5765H79.7867C79.9774 17.5765 80.132 17.4306 80.132 17.2506C80.132 17.0707 79.9774 16.9248 79.7867 16.9248Z" fill="#262626"/>
<path opacity="0.5" d="M94.6295 26.7122H52.9475C52.7569 26.7122 52.6023 26.8581 52.6023 27.038C52.6023 27.218 52.7569 27.3638 52.9475 27.3638H94.6295C94.8202 27.3638 94.9748 27.218 94.9748 27.038C94.9748 26.8581 94.8202 26.7122 94.6295 26.7122Z" fill="#262626"/>
<path opacity="0.5" d="M79.7867 30.2144H52.9475C52.7569 30.2144 52.6023 30.3603 52.6023 30.5403C52.6023 30.7202 52.7569 30.8661 52.9475 30.8661H79.7867C79.9774 30.8661 80.132 30.7202 80.132 30.5403C80.132 30.3603 79.9774 30.2144 79.7867 30.2144Z" fill="#262626"/>
<path opacity="0.5" d="M94.6295 40.0018H52.9475C52.7569 40.0018 52.6023 40.1477 52.6023 40.3276C52.6023 40.5076 52.7569 40.6534 52.9475 40.6534H94.6295C94.8202 40.6534 94.9748 40.5076 94.9748 40.3276C94.9748 40.1477 94.8202 40.0018 94.6295 40.0018Z" fill="#262626"/>
<path opacity="0.5" d="M79.7867 43.5041H52.9475C52.7569 43.5041 52.6023 43.6499 52.6023 43.8299C52.6023 44.0098 52.7569 44.1557 52.9475 44.1557H79.7867C79.9774 44.1557 80.132 44.0098 80.132 43.8299C80.132 43.6499 79.9774 43.5041 79.7867 43.5041Z" fill="#262626"/>
<path opacity="0.5" d="M94.6295 53.1088H52.9475C52.7569 53.1088 52.6023 53.2547 52.6023 53.4346C52.6023 53.6146 52.7569 53.7605 52.9475 53.7605H94.6295C94.8202 53.7605 94.9748 53.6146 94.9748 53.4346C94.9748 53.2547 94.8202 53.1088 94.6295 53.1088Z" fill="#262626"/>
<path opacity="0.5" d="M79.7867 56.611H52.9475C52.7569 56.611 52.6023 56.7569 52.6023 56.9368C52.6023 57.1168 52.7569 57.2627 52.9475 57.2627H79.7867C79.9774 57.2627 80.132 57.1168 80.132 56.9368C80.132 56.7569 79.9774 56.611 79.7867 56.611Z" fill="#262626"/>
<path opacity="0.5" d="M94.6295 66.2158H52.9475C52.7569 66.2158 52.6023 66.3616 52.6023 66.5416C52.6023 66.7215 52.7569 66.8674 52.9475 66.8674H94.6295C94.8202 66.8674 94.9748 66.7215 94.9748 66.5416C94.9748 66.3616 94.8202 66.2158 94.6295 66.2158Z" fill="#262626"/>
<path opacity="0.5" d="M79.7867 69.7179H52.9475C52.7569 69.7179 52.6023 69.8638 52.6023 70.0437C52.6023 70.2237 52.7569 70.3695 52.9475 70.3695H79.7867C79.9774 70.3695 80.132 70.2237 80.132 70.0437C80.132 69.8638 79.9774 69.7179 79.7867 69.7179Z" fill="#262626"/>
<path d="M42.3942 17.8878C42.4302 17.8042 42.4942 17.734 42.5765 17.6878C42.6587 17.6417 42.7547 17.6222 42.8497 17.6323C42.8497 17.6251 42.8431 17.6075 42.8564 17.6077L42.5472 17.4232C42.4547 17.3707 42.3855 17.2884 42.3524 17.1915C42.3192 17.0946 42.3244 16.9896 42.3669 16.896C42.412 16.8048 42.4914 16.7327 42.5896 16.6936C42.6879 16.6545 42.7981 16.6513 42.8987 16.6846C42.8977 16.6806 42.9003 16.6767 42.9007 16.6729L42.7735 16.5972C42.6866 16.5473 42.6206 16.4707 42.5867 16.3803C42.5527 16.2898 42.5529 16.1911 42.5873 16.1008C42.6101 16.0446 42.6458 15.9939 42.6919 15.9523C42.738 15.9107 42.7932 15.8793 42.8537 15.8603C42.9142 15.8413 42.9784 15.8352 43.0417 15.8425C43.105 15.8498 43.1658 15.8702 43.2197 15.9023L43.5133 16.0774C43.5141 16.0758 43.5133 16.074 43.5141 16.0725C43.5148 16.071 43.5182 16.0703 43.5196 16.0685C43.4507 16.0034 43.4073 15.9181 43.3964 15.8267C43.3856 15.7352 43.408 15.6429 43.4599 15.565C43.5804 15.3557 43.8898 15.38 44.0797 15.4931L44.6487 15.8934C44.7364 15.9552 44.8066 16.0365 44.853 16.1301C44.8994 16.2236 44.9206 16.3266 44.9146 16.4297C44.864 17.3226 44.6727 19.6518 44.0667 19.2899L42.5751 18.401C42.4888 18.3467 42.4241 18.2667 42.3913 18.1738C42.3585 18.0808 42.3596 17.9802 42.3942 17.8878Z" fill="#E98862"/>
<path d="M42.7513 18.0501C42.6234 18.0502 42.5005 18.0034 42.4084 17.9197L40.3369 16.0402C40.2893 15.9978 40.2511 15.947 40.2245 15.8907C40.1979 15.8343 40.1834 15.7736 40.1818 15.7119C40.1802 15.6502 40.1915 15.5889 40.2152 15.5313C40.2389 15.4738 40.2744 15.4213 40.3197 15.3769C40.365 15.3324 40.4192 15.2968 40.4791 15.2722C40.5391 15.2476 40.6036 15.2345 40.669 15.2336C40.7343 15.2326 40.7992 15.244 40.8599 15.2668C40.9206 15.2897 40.9759 15.3237 41.0226 15.3669L42.7429 16.9275L47.0549 12.8209C47.1006 12.7774 47.155 12.7427 47.2149 12.719C47.2748 12.6953 47.3391 12.6829 47.4041 12.6826C47.469 12.6823 47.5334 12.6941 47.5936 12.7173C47.6537 12.7406 47.7084 12.7747 47.7546 12.8179C47.8007 12.861 47.8374 12.9124 47.8626 12.9689C47.8877 13.0255 47.9008 13.0861 47.9011 13.1475C47.9014 13.2088 47.8889 13.2696 47.8643 13.3263C47.8397 13.3831 47.8035 13.4347 47.7578 13.4783L43.1027 17.9115C43.0568 17.9555 43.0021 17.9904 42.9418 18.0141C42.8814 18.0379 42.8167 18.0502 42.7513 18.0501Z" fill="#0CBC8B"/>
<path d="M41.3257 16.9102C41.3361 16.8422 41.3611 16.7769 41.3991 16.7183C41.4371 16.6597 41.4873 16.609 41.5467 16.5694C41.6062 16.5297 41.6736 16.5019 41.7448 16.4876C41.816 16.4733 41.8895 16.4729 41.9609 16.4863C42.0981 16.5169 42.2178 16.5955 42.296 16.7061C42.3742 16.8168 42.405 16.9514 42.3822 17.0826L42.3673 17.7995C42.3642 17.9512 42.4199 18.0987 42.5241 18.2142C42.6283 18.3297 42.7736 18.4052 42.9327 18.4264C43.0887 18.4473 43.2474 18.4147 43.38 18.3345C43.5126 18.2543 43.6103 18.1319 43.6554 17.9895L44.043 16.7657L43.6216 16.1718C43.769 15.9477 43.8927 15.3681 44.1481 15.5407C44.3642 15.6675 44.8549 15.9741 44.9892 16.2645C44.9918 16.2657 45.243 18.7578 45.1063 18.9656L43.8969 22.019C43.3167 22.9007 40.5166 22.2184 40.5166 22.2184L41.3257 16.9102Z" fill="#E98862"/>
<path d="M42.7428 16.9275L47.0548 12.8209C47.1005 12.7774 47.1549 12.7427 47.2148 12.719C47.2747 12.6953 47.339 12.6829 47.404 12.6826C47.4689 12.6823 47.5333 12.6941 47.5935 12.7173C47.6536 12.7406 47.7083 12.7747 47.7545 12.8179C47.8007 12.861 47.8373 12.9124 47.8625 12.9689C47.8876 13.0255 47.9007 13.0861 47.901 13.1475C47.9013 13.2088 47.8888 13.2696 47.8642 13.3263C47.8396 13.3831 47.8034 13.4347 47.7577 13.4783L43.1026 17.9115" fill="#0CBC8B"/>
<path d="M20.7357 38.1521L38.1868 36.7661C39.4717 36.798 40.5904 35.7897 41.0617 34.6582L45.6338 21.1328L39.6529 18.9138L35.617 30.4995L20.2694 31.5133L20.7357 38.1521Z" fill="#367CFF"/>
<path d="M10.603 101.833C10.603 101.833 11.1615 104.565 13.8719 104.718C16.5823 104.871 15.9945 106.908 15.9945 106.908H5.63684V102.024L10.603 101.833Z" fill="#367CFF"/>
<path d="M7.40833 51.9929C7.40833 51.9929 7.44086 51.1716 7.43393 53.0346C7.40833 59.9841 7.28056 67.9221 6.96837 72.5672C6.46656 80.0345 5.17981 103.577 5.17981 103.577L11.986 103.523L18.5826 51.7106L7.40833 51.9929Z" fill="#262626"/>
<path d="M15.0944 60.188C15.0944 60.188 15.3764 65.2312 15.4283 66.4151C15.5493 69.1533 15.5913 71.9882 15.5913 75.2026L16.6645 66.7761C16.6645 66.7761 15.8794 64.1354 15.0944 60.188Z" fill="#0A0A0A"/>
<path d="M22.7198 101.833C22.7198 101.833 23.2783 104.565 25.9887 104.718C28.6991 104.871 28.1113 106.908 28.1113 106.908H17.7537V102.024L22.7198 101.833Z" fill="#367CFF"/>
<path d="M26.0153 52.5325C26.0153 52.5325 26.6182 76.2842 26.5298 77.4451L23.9988 103.397L17.305 103.513L17.9574 76.5062C17.9574 76.5062 17.4973 69.0562 15.5901 62.1383C14.6143 58.5879 14.027 54.9523 13.8375 51.2888L26.0153 52.5325Z" fill="#262626"/>
<path d="M7.33415 51.9921L7.31189 51.9933C7.31189 51.9933 7.32809 51.588 7.33415 51.9921Z" fill="#333333"/>
<path d="M26.9734 40.0493C26.8331 41.6057 26.1502 50.6154 26.0153 52.5326H7.41576C7.31075 50.8035 6.83888 43.2428 6.44047 39.8616C6.06012 36.6351 5.3139 35.0197 5.86086 34.0658C6.75464 32.5069 9.19702 31.6061 10.8624 31.3933C11.8794 31.2633 20.5493 31.17 20.5701 31.17C21.2511 31.17 25.2166 31.4721 26.0932 32.1093C27.6793 33.2622 27.2185 37.3352 26.9734 40.0493Z" fill="#367CFF"/>
<path d="M27.2303 37.6821C27.2461 37.6821 27.2613 37.6764 27.2728 37.6662C27.2843 37.656 27.2912 37.642 27.2921 37.6271L27.4422 35.3891C27.4431 35.3736 27.4375 35.3584 27.4266 35.3469C27.4157 35.3353 27.4004 35.3283 27.384 35.3274C27.3677 35.3267 27.3517 35.3321 27.3395 35.3423C27.3273 35.3526 27.3199 35.3669 27.3187 35.3823L27.1687 37.6203C27.1677 37.6358 27.1733 37.651 27.1842 37.6625C27.1951 37.6741 27.2104 37.6811 27.2268 37.682L27.2303 37.6821Z" fill="#0C0C0C"/>
<path d="M3.39462 52.4308C2.84763 52.4306 2.30877 52.3057 1.82391 52.0667C1.33905 51.8278 0.922524 51.4818 0.609783 51.0582C0.297041 50.6347 0.0973365 50.1461 0.0276618 49.634C-0.0420129 49.122 0.0204042 48.6016 0.209602 48.1172C0.401198 47.6254 4.90599 36.3665 5.76328 34.2803L12.1134 36.7085C11.631 37.8814 9.88413 42.3274 8.4805 45.909L10.8123 45.6698L11.5463 52.0422L3.76185 52.4119C3.63989 52.4244 3.5173 52.4307 3.39462 52.4308Z" fill="#367CFF"/>
<path d="M22.786 30.957C22.7652 30.9545 22.1946 32.9809 17.7422 32.6654C14.6598 32.4475 13.9078 30.4673 13.8375 30.4673C14.1699 30.4006 14.7097 30.3314 14.8572 30.2572C15.3426 30.011 15.6962 29.7114 15.8741 29.0683C16.0132 28.5655 16.0844 26.6296 16.0844 25.6583L20.8275 26.6642C20.7613 27.7598 20.2986 30.2999 21.9204 30.7495C22.1902 30.8237 22.4809 30.892 22.786 30.957Z" fill="#E98862"/>
<path d="M20.6632 28.8181C18.7934 28.9574 16.3913 28.2122 15.935 25.8576L15.5234 23.733C15.0671 21.3784 16.0075 19.2434 18.3565 18.838C20.7054 18.4325 22.831 20.0383 23.2871 22.3929L23.4695 23.3335C23.6445 24.237 23.9993 28.5697 20.6632 28.8181Z" fill="#E98862"/>
<path d="M22.397 26.6563C22.0614 25.0646 21.9074 24.0026 21.9254 22.8824C22.3981 22.1002 22.2738 21.2013 22.1663 20.8132C22.4919 21.0084 22.8747 21.101 23.2596 21.0778C23.2596 21.0778 22.4778 18.1163 19.8204 17.3194C19.3317 17.14 18.0841 16.9133 16.4275 17.1277C15.0185 17.3101 11.5453 18.3043 11.0491 21.9949V21.997C11.0327 22.1195 10.6993 25.5198 10.0348 27.1512C9.14115 29.3443 7.88631 30.0258 7.9181 32.5564C7.95904 35.8112 14.299 36.2446 18.1225 36.0011C21.946 35.7575 24.0812 34.5709 24.1091 32.2252C24.1395 29.5967 23.0686 29.8408 22.397 26.6563Z" fill="#0A0A0A"/>
<path d="M7.01986 39.9266L6.89624 39.9306L7.35324 52.5345L7.47686 52.5305L7.01986 39.9266Z" fill="#0C0C0C"/>
<path d="M118.184 106.99H1.86356C1.8406 106.99 1.81857 106.981 1.80234 106.966C1.7861 106.951 1.77698 106.93 1.77698 106.908C1.77698 106.887 1.7861 106.866 1.80234 106.85C1.81857 106.835 1.8406 106.827 1.86356 106.827H118.184C118.207 106.827 118.229 106.835 118.245 106.85C118.261 106.866 118.271 106.887 118.271 106.908C118.271 106.93 118.261 106.951 118.245 106.966C118.229 106.981 118.207 106.99 118.184 106.99Z" fill="#292A2E"/>
<path d="M106.177 91.6905C106.145 91.6904 106.113 91.6781 106.09 91.6563C105.916 91.4918 105.632 88.474 104.866 79.489C104.553 75.8126 104.258 72.3401 104.042 70.2297C104.026 70.0789 103.965 70.0614 103.944 70.0557C103.649 69.9715 102.75 70.6402 102.249 71.2257C102.238 71.2376 102.226 71.2475 102.212 71.2548C102.197 71.2622 102.182 71.2668 102.165 71.2684C102.149 71.27 102.133 71.2686 102.117 71.2642C102.102 71.2599 102.087 71.2527 102.075 71.243C102.062 71.2334 102.052 71.2215 102.044 71.208C102.036 71.1946 102.031 71.1798 102.029 71.1645C102.028 71.1493 102.029 71.1339 102.034 71.1192C102.038 71.1045 102.046 71.0908 102.056 71.0788C102.388 70.6917 103.469 69.6769 104.015 69.832C104.125 69.8633 104.263 69.9537 104.288 70.2072C104.504 72.3194 104.8 75.793 105.113 79.4703C105.578 84.9303 106.105 91.116 106.278 91.5055C106.291 91.523 106.299 91.5435 106.301 91.565C106.302 91.5864 106.298 91.6078 106.287 91.627C106.277 91.6461 106.261 91.6621 106.242 91.6733C106.222 91.6845 106.2 91.6905 106.177 91.6905Z" fill="#494949"/>
<path d="M103.724 74.1021C105.776 72.5493 106.457 70.1324 105.243 68.7038C104.03 67.2751 101.383 67.3758 99.3301 68.9286C97.2776 70.4814 96.5974 72.8984 97.8107 74.327C99.024 75.7556 101.671 75.6549 103.724 74.1021Z" fill="#0CBC8B"/>
<path opacity="0.2" d="M103.724 74.1021C105.776 72.5493 106.457 70.1324 105.243 68.7038C104.03 67.2751 101.383 67.3758 99.3301 68.9286C97.2776 70.4814 96.5974 72.8984 97.8107 74.327C99.024 75.7556 101.671 75.6549 103.724 74.1021Z" fill="white"/>
<path d="M98.3862 74.6904C98.3745 74.6903 98.363 74.6872 98.3531 74.6812C98.3432 74.6753 98.3353 74.6668 98.3303 74.6568C98.3253 74.6467 98.3235 74.6356 98.325 74.6246C98.3264 74.6136 98.3312 74.6033 98.3387 74.5947L104.188 67.9371C104.193 67.931 104.2 67.926 104.207 67.9223C104.214 67.9186 104.222 67.9163 104.23 67.9155C104.238 67.9147 104.247 67.9155 104.254 67.9178C104.262 67.92 104.27 67.9237 104.276 67.9287C104.282 67.9337 104.287 67.9397 104.291 67.9466C104.295 67.9535 104.297 67.961 104.298 67.9687C104.299 67.9765 104.298 67.9842 104.295 67.9916C104.293 67.999 104.289 68.0058 104.283 68.0117L98.4338 74.6693C98.428 74.6759 98.4207 74.6812 98.4125 74.6849C98.4042 74.6885 98.3953 74.6904 98.3862 74.6904Z" fill="white"/>
<path d="M107.453 90.2631C107.434 90.2631 107.414 90.2587 107.397 90.2501C107.379 90.2416 107.364 90.2292 107.352 90.214C107.341 90.1988 107.334 90.1813 107.331 90.1628C107.328 90.1444 107.33 90.1256 107.336 90.108L109.534 84.144C109.598 83.9688 109.709 83.8117 109.854 83.687C110 83.5624 110.176 83.4743 110.368 83.4308C110.559 83.3873 110.758 83.3897 110.948 83.4378C111.138 83.486 111.312 83.5784 111.454 83.7065L112.616 84.7542C112.64 84.7756 112.653 84.805 112.654 84.836C112.655 84.8669 112.643 84.8969 112.62 84.9193C112.597 84.9417 112.566 84.9546 112.533 84.9553C112.5 84.956 112.469 84.9444 112.445 84.923L111.283 83.8757C111.171 83.7747 111.034 83.7018 110.884 83.6638C110.734 83.6258 110.576 83.6239 110.426 83.6582C110.275 83.6926 110.135 83.7621 110.02 83.8604C109.905 83.9588 109.818 84.0828 109.767 84.2211L107.57 90.1847C107.562 90.2076 107.546 90.2274 107.525 90.2415C107.504 90.2555 107.479 90.2631 107.453 90.2631Z" fill="#494949"/>
<path d="M115.862 88.056C117.383 86.9196 117.292 84.4203 115.66 82.4736C114.027 80.5269 111.47 79.87 109.949 81.0064C108.428 82.1428 108.519 84.6421 110.151 86.5888C111.784 88.5354 114.34 89.1923 115.862 88.056Z" fill="#0CBC8B"/>
<path d="M105.179 91.3101C105.151 91.31 105.124 91.3012 105.103 91.2849C105.081 91.2687 105.065 91.2459 105.059 91.2204L101.372 76.6693C101.347 76.5701 101.293 76.4794 101.217 76.4071C101.14 76.3348 101.044 76.2838 100.939 76.2597C100.834 76.2355 100.724 76.2392 100.621 76.2703C100.518 76.3014 100.427 76.3586 100.356 76.4358L99.2193 77.6755C99.1978 77.6989 99.1673 77.7133 99.1346 77.7156C99.1019 77.7178 99.0695 77.7077 99.0447 77.6874C99.0199 77.6671 99.0046 77.6384 99.0023 77.6075C98.9999 77.5766 99.0106 77.5461 99.0321 77.5227L100.169 76.283C100.269 76.1734 100.4 76.092 100.546 76.0479C100.693 76.0038 100.849 75.9987 100.998 76.033C101.147 76.0674 101.284 76.14 101.392 76.2427C101.5 76.3455 101.577 76.4745 101.612 76.6155L105.3 91.1666C105.304 91.1838 105.304 91.2016 105.3 91.2189C105.296 91.2361 105.288 91.2523 105.276 91.2662C105.265 91.28 105.25 91.2912 105.233 91.2989C105.216 91.3066 105.198 91.3106 105.179 91.3105V91.3101Z" fill="#494949"/>
<path d="M103.746 80.9103C104.193 78.4648 103.007 76.23 101.096 75.9188C99.185 75.6075 97.2735 77.3376 96.8263 79.7831C96.3791 82.2286 97.5656 84.4634 99.4765 84.7746C101.387 85.0859 103.299 83.3558 103.746 80.9103Z" fill="#0CBC8B"/>
<path d="M106.178 91.6905C106.172 91.6904 106.167 91.6901 106.162 91.6895C106.146 91.6876 106.131 91.6828 106.116 91.6752C106.102 91.6677 106.09 91.6576 106.08 91.6455C106.07 91.6334 106.063 91.6196 106.058 91.6048C106.054 91.59 106.053 91.5746 106.055 91.5594L108.409 73.5162C108.435 73.3196 108.52 73.1342 108.655 72.9823C108.789 72.8304 108.967 72.7184 109.168 72.6598C109.368 72.6011 109.582 72.5984 109.784 72.6519C109.986 72.7054 110.168 72.8128 110.307 72.9613L112.998 75.8381C113.02 75.8614 113.031 75.8918 113.029 75.9227C113.027 75.9536 113.012 75.9825 112.987 76.003C112.963 76.0236 112.93 76.034 112.898 76.0321C112.865 76.0302 112.834 76.0161 112.812 75.9928L110.121 73.116C110.014 73.0012 109.874 72.9182 109.718 72.8768C109.561 72.8355 109.396 72.8376 109.241 72.8829C109.086 72.9281 108.948 73.0147 108.844 73.1321C108.74 73.2495 108.674 73.3927 108.655 73.5446L106.3 91.588C106.296 91.6162 106.282 91.6422 106.259 91.6611C106.237 91.68 106.208 91.6904 106.178 91.6905Z" fill="#494949"/>
<path d="M115.758 77.4369C116.697 75.8348 115.593 73.5618 113.291 72.3601C110.989 71.1584 108.362 71.483 107.423 73.0852C106.484 74.6873 107.589 76.9603 109.89 78.162C112.192 79.3638 114.819 79.0391 115.758 77.4369Z" fill="#0CBC8B"/>
<path opacity="0.2" d="M115.862 88.056C117.383 86.9196 117.292 84.4203 115.66 82.4736C114.027 80.5269 111.47 79.87 109.949 81.0064C108.428 82.1428 108.519 84.6421 110.151 86.5888C111.784 88.5354 114.34 89.1923 115.862 88.056Z" fill="white"/>
<path opacity="0.5" d="M103.746 80.9103C104.193 78.4648 103.007 76.23 101.096 75.9188C99.185 75.6075 97.2735 77.3376 96.8263 79.7831C96.3791 82.2286 97.5656 84.4634 99.4765 84.7746C101.387 85.0859 103.299 83.3558 103.746 80.9103Z" fill="white"/>
<path opacity="0.5" d="M115.758 77.4369C116.697 75.8348 115.593 73.5618 113.291 72.3601C110.989 71.1584 108.362 71.483 107.423 73.0852C106.484 74.6873 107.589 76.9603 109.89 78.162C112.192 79.3638 114.819 79.0391 115.758 77.4369Z" fill="white"/>
<path d="M109.189 107H103.166L102.168 88.8112H110.187L109.189 107Z" fill="#292A2E"/>
<path opacity="0.3" d="M109.189 107H103.166L102.168 88.8112H110.187L109.189 107Z" fill="white"/>
<path d="M115.862 88.1135C115.852 88.1136 115.843 88.1116 115.835 88.1077C115.826 88.1039 115.819 88.0983 115.813 88.0914L109.901 81.0418C109.89 81.0297 109.886 81.0142 109.888 80.9988C109.89 80.9834 109.898 80.9694 109.911 80.9597C109.924 80.9501 109.94 80.9457 109.956 80.9475C109.973 80.9493 109.987 80.9572 109.998 80.9693L115.91 88.0189C115.917 88.0275 115.922 88.0378 115.923 88.0487C115.924 88.0596 115.922 88.0706 115.917 88.0805C115.912 88.0904 115.904 88.0987 115.895 88.1046C115.885 88.1104 115.873 88.1135 115.862 88.1135H115.862Z" fill="white"/>
<path d="M115.365 78.0017C115.352 78.0016 115.339 77.9975 115.329 77.9901L107.763 72.7765C107.756 72.772 107.751 72.7663 107.747 72.7598C107.742 72.7532 107.74 72.7459 107.738 72.7384C107.737 72.7308 107.737 72.723 107.739 72.7156C107.741 72.7081 107.745 72.7011 107.749 72.6949C107.754 72.6887 107.76 72.6835 107.767 72.6795C107.774 72.6755 107.782 72.6728 107.79 72.6717C107.798 72.6705 107.806 72.6708 107.814 72.6726C107.822 72.6744 107.829 72.6777 107.836 72.6822L115.402 77.8962C115.412 77.9036 115.42 77.9138 115.424 77.9255C115.428 77.9372 115.428 77.9497 115.424 77.9614C115.419 77.973 115.412 77.9831 115.401 77.9903C115.391 77.9974 115.378 78.0013 115.365 78.0013V78.0017Z" fill="white"/>
<path d="M99.2391 84.6968C99.2337 84.6967 99.2283 84.6961 99.223 84.6948C99.2072 84.6908 99.1936 84.681 99.1854 84.6676C99.1772 84.6542 99.175 84.6383 99.1792 84.6233L101.588 76.1067C101.59 76.0992 101.593 76.0921 101.598 76.0859C101.603 76.0797 101.609 76.0745 101.616 76.0705C101.623 76.0666 101.631 76.064 101.639 76.063C101.647 76.0619 101.656 76.0624 101.664 76.0644C101.672 76.0664 101.679 76.0699 101.686 76.0746C101.692 76.0794 101.697 76.0853 101.702 76.092C101.706 76.0987 101.708 76.1062 101.709 76.1139C101.71 76.1216 101.709 76.1294 101.707 76.1368L99.2987 84.6534C99.2952 84.6658 99.2875 84.6768 99.2767 84.6846C99.2659 84.6925 99.2527 84.6967 99.2391 84.6968Z" fill="white"/>
</svg>
