<svg width="45" height="40" viewBox="0 0 45 40" fill="none" xmlns="http://www.w3.org/2000/svg">
<path d="M41.053 40L3.94219 39.973C3.23602 39.9727 2.54287 39.7684 1.93515 39.3814C1.32744 38.9945 0.827444 38.4391 0.487385 37.7732C0.147327 37.1074 -0.0203162 36.3556 0.0019638 35.5962C0.0242438 34.8369 0.23563 34.0979 0.614045 33.4565L19.1897 1.96922C19.5459 1.36545 20.0383 0.868324 20.6209 0.524048C21.2035 0.179772 21.8576 -0.000489307 22.5224 9.9754e-07C23.1871 0.000491302 23.841 0.181719 24.4232 0.526855C25.0054 0.87199 25.497 1.36983 25.8525 1.97413L44.3887 33.4877C44.7663 34.1297 44.9768 34.8689 44.9982 35.6283C45.0196 36.3877 44.8511 37.1393 44.5102 37.8047C44.1694 38.47 43.6688 39.0248 43.0607 39.4109C42.4526 39.7971 41.7592 40.0005 41.053 40Z" fill="#DBFF00"/>
<path d="M19.623 31.8015C19.623 29.9685 20.8541 28.5566 22.5119 28.558C24.1698 28.5594 25.3976 29.9727 25.3967 31.8057C25.4094 32.2225 25.3441 32.6378 25.2046 33.0268C25.0651 33.4158 24.8543 33.7707 24.5846 34.0703C24.315 34.3699 23.9921 34.608 23.6352 34.7705C23.2782 34.9331 22.8946 35.0167 22.507 35.0164C22.1194 35.0161 21.7358 34.932 21.3791 34.7689C21.0223 34.6058 20.6997 34.3672 20.4305 34.0672C20.1613 33.7673 19.9509 33.4121 19.8119 33.0229C19.6728 32.6336 19.608 32.2183 19.6213 31.8015H19.623ZM20.2837 15.8139L20.1254 11.1635L24.9199 11.167L24.7568 15.8171L24.0837 26.5214L20.9418 26.5185L20.2837 15.8139Z" fill="black"/>
</svg>
