<svg width="9" height="18" viewBox="0 0 9 18" fill="none" xmlns="http://www.w3.org/2000/svg">
<path d="M7.72283 17.8862C8.02072 17.8868 8.30941 17.783 8.53878 17.593C8.66788 17.4859 8.77459 17.3545 8.85281 17.2061C8.93103 17.0578 8.97922 16.8955 8.99462 16.7285C9.01001 16.5615 8.99231 16.3932 8.94253 16.233C8.89276 16.0729 8.81188 15.9241 8.70452 15.7953L2.99287 8.96173L8.50054 2.1154C8.60644 1.98499 8.68552 1.83494 8.73325 1.67386C8.78097 1.51279 8.79639 1.34387 8.77862 1.17682C8.76085 1.00977 8.71023 0.847881 8.62969 0.700453C8.54915 0.553025 8.44027 0.422968 8.3093 0.317758C8.17739 0.201694 8.02291 0.114148 7.85556 0.0606153C7.68821 0.00708253 7.5116 -0.0112811 7.33682 0.00667607C7.16204 0.0246332 6.99285 0.0785238 6.83988 0.164966C6.68692 0.251408 6.55347 0.368535 6.44791 0.508997L0.290036 8.15853C0.102518 8.38666 6.80882e-06 8.6728 6.80882e-06 8.96811C6.80882e-06 9.26341 0.102518 9.54956 0.290036 9.77768L6.66465 17.4272C6.79254 17.5815 6.95501 17.7035 7.13887 17.7832C7.32273 17.863 7.52279 17.8982 7.72283 17.8862Z" fill="#231F20"/>
</svg>
