<svg width="44" height="64" viewBox="0 0 44 64" fill="none" xmlns="http://www.w3.org/2000/svg">
<path d="M20.6094 49.2538C18.4325 48.6724 16.7938 46.8599 16.1428 44.8415C15.4917 42.8231 15.721 40.6329 16.3566 38.61C16.8754 36.9594 17.6619 35.3638 17.8557 33.6536C18.5012 27.9585 12.5638 22.1391 15.3583 17.0372C16.2617 15.3871 18.0099 14.0976 18.3218 12.2685C18.5797 10.7562 17.779 9.28619 17.3808 7.80025C16.8331 5.755 17.1108 3.43446 18.5367 1.79682C19.9626 0.159178 22.6572 -0.556309 24.6219 0.492428C27.1917 1.86422 27.4146 5.25041 26.7542 7.93778C26.0937 10.6252 24.8697 13.3899 25.6765 16.0422C26.4457 18.5704 28.9487 20.4741 29.3975 23.0682C29.7716 25.2246 28.6392 27.3273 28.1413 29.4621C27.3598 32.8172 28.1552 36.2952 28.1891 39.7279C28.2231 43.1606 27.1837 47.0106 20.6094 49.2538Z" fill="#8DDBE0"/>
<path d="M17.2501 49.5799C15.9546 49.1968 14.7921 48.4998 13.8818 47.5604C12.9715 46.621 12.3464 45.4732 12.0704 44.2347C11.6444 42.1919 12.1677 39.8975 10.9661 38.1417C9.33786 35.7637 7.6685 35.4949 5.64153 33.3989C2.52517 30.1761 2.41559 28.7484 2.62139 22.7797C2.70825 20.2555 -1.03726 17.408 0.281712 14.9817C1.44407 12.845 4.97683 12.834 6.98028 14.3376C8.98373 15.8412 9.86385 18.2513 10.7367 20.5052C11.6096 22.7591 12.7103 25.1418 14.9233 26.3647C16.2502 27.098 17.9878 27.437 18.7209 28.7011C19.3089 29.7165 19.013 30.9563 18.7762 32.0891C18.1813 34.9366 18.3304 38.4101 20.8986 40.0547C22.0572 40.7968 23.5745 41.0522 24.527 42.0154C25.4689 42.9674 25.6207 44.3779 25.5571 45.6711C25.4318 48.1564 24.6959 50.5819 23.4058 52.7611" fill="#DEE8F5"/>
<path d="M20.3469 51.5628C18.0348 49.1045 17.7079 45.2102 19.5817 42.4477C21.1541 40.1297 24.0842 38.5333 24.6994 35.8529C25.2473 33.4654 23.7276 30.9984 24.1825 28.5941C24.6772 25.9796 27.273 24.2638 29.3349 22.4292C29.8714 21.983 30.3329 21.4645 30.7039 20.8908C31.6107 19.372 31.3579 17.5086 31.6661 15.7956C32.2556 12.5129 35.1614 9.60316 38.6894 9.06051C41.7835 8.58476 44 10.2386 44 13.2845C44 16.8931 41.0948 18.4392 39.6128 20.0739C37.4841 22.4392 36.3544 25.4452 36.4349 28.5294C36.5394 31.974 38.1158 35.642 36.4317 38.7109C35.1959 40.9633 32.5563 42.1642 30.482 43.7986C28.9147 45.0482 27.6388 46.583 26.733 48.3086C25.8271 50.0343 25.3104 51.9142 25.2147 53.8326" fill="#F3F5FD"/>
<path d="M30.3263 45.9052H11.668V63.2666H30.3263V45.9052Z" fill="#0CBC8B"/>
<g opacity="0.42">
<path d="M30.3263 49.2905H11.668V52.6792H30.3263V49.2905Z" fill="white"/>
</g>
</svg>
