<svg width="252" height="238" viewBox="0 0 252 238" fill="none" xmlns="http://www.w3.org/2000/svg">
<path d="M0 81.9C0 47.2912 0 29.9869 9.01419 17.9811C11.5649 14.5838 14.5838 11.5649 17.9811 9.01419C29.9869 0 47.2912 0 81.9 0H170.1C204.709 0 222.013 0 234.019 9.01419C237.416 11.5649 240.435 14.5838 242.986 17.9811C252 29.9869 252 47.2912 252 81.9V156.1C252 190.709 252 208.013 242.986 220.019C240.435 223.416 237.416 226.435 234.019 228.986C222.013 238 204.709 238 170.1 238H81.9C47.2912 238 29.9869 238 17.9811 228.986C14.5838 226.435 11.5649 223.416 9.01419 220.019C0 208.013 0 190.709 0 156.1V81.9Z" fill="#828BFF"/>
</svg>
