<svg width="99" height="70" viewBox="0 0 99 70" fill="none" xmlns="http://www.w3.org/2000/svg">
<path d="M92.2403 12.1649H90.7362C90.6166 12.1652 90.5 12.1188 90.4024 12.0324C90.3048 11.9459 90.2311 11.8235 90.1915 11.6823C90.0763 11.2684 89.9401 10.8641 89.7838 10.4719C89.7297 10.3363 89.7113 10.1827 89.7309 10.0332C89.7506 9.88357 89.8074 9.74557 89.8933 9.63875L90.9624 8.30011C91.071 8.16397 91.132 7.9794 91.132 7.78697C91.132 7.59453 91.071 7.40997 90.9624 7.27383L88.6528 4.38308C88.5441 4.24706 88.3967 4.17064 88.2431 4.17064C88.0894 4.17064 87.942 4.24706 87.8333 4.38308L86.7451 5.74588C86.6603 5.85235 86.5511 5.92304 86.4328 5.94808C86.3144 5.97311 86.1927 5.95125 86.0847 5.88553C85.7775 5.69767 85.4611 5.53434 85.1374 5.39654C85.0233 5.34788 84.9243 5.25568 84.8543 5.1329C84.7842 5.01012 84.7467 4.86293 84.7469 4.71204V2.78146C84.7469 2.68621 84.7319 2.5919 84.7028 2.5039C84.6737 2.4159 84.6311 2.33594 84.5773 2.26859C84.5235 2.20124 84.4597 2.14782 84.3894 2.11138C84.3191 2.07494 84.2438 2.05619 84.1677 2.05621H80.9029C80.8268 2.05619 80.7515 2.07494 80.6812 2.11138C80.6109 2.14782 80.5471 2.20124 80.4933 2.26859C80.4395 2.33594 80.3968 2.4159 80.3677 2.5039C80.3386 2.5919 80.3237 2.68621 80.3237 2.78146V4.71204C80.3239 4.86293 80.2864 5.01012 80.2163 5.1329C80.1463 5.25568 80.0473 5.34788 79.9332 5.39654C79.6095 5.53432 79.2931 5.69764 78.986 5.88553C78.878 5.95125 78.7563 5.97311 78.638 5.94808C78.5196 5.92304 78.4104 5.85235 78.3257 5.74588L77.2374 4.38308C77.1286 4.24708 76.9813 4.17069 76.8276 4.17069C76.6739 4.17069 76.5265 4.24708 76.4178 4.38308L74.1081 7.27383C73.9995 7.40997 73.9385 7.59453 73.9385 7.78697C73.9385 7.9794 73.9995 8.16397 74.1081 8.30011L75.1773 9.63875C75.2631 9.74558 75.3199 9.8836 75.3396 10.0332C75.3592 10.1828 75.3408 10.3363 75.2867 10.4719C75.1303 10.8639 74.9944 11.2682 74.8801 11.6823C74.8401 11.8235 74.7662 11.9458 74.6685 12.0322C74.5707 12.1187 74.454 12.165 74.3343 12.1649H72.8302C72.7541 12.1649 72.6788 12.1836 72.6085 12.22C72.5383 12.2565 72.4744 12.3099 72.4206 12.3773C72.3668 12.4446 72.3242 12.5246 72.2951 12.6126C72.266 12.7006 72.251 12.7949 72.251 12.8902V16.9799C72.251 17.0751 72.266 17.1695 72.2951 17.2575C72.3242 17.3455 72.3668 17.4255 72.4206 17.4928C72.4744 17.5602 72.5383 17.6136 72.6085 17.65C72.6788 17.6865 72.7541 17.7052 72.8302 17.7051H74.2949C74.4167 17.705 74.5354 17.7531 74.6341 17.8425C74.7328 17.932 74.8064 18.0581 74.8444 18.203C74.9574 18.6281 75.0926 19.0435 75.2491 19.4464C75.3022 19.5821 75.3202 19.7352 75.3006 19.8844C75.2809 20.0335 75.2246 20.1712 75.1395 20.2784L74.108 21.5701C74.0542 21.6374 74.0115 21.7173 73.9823 21.8053C73.9532 21.8933 73.9382 21.9876 73.9382 22.0828C73.9382 22.1781 73.9532 22.2724 73.9823 22.3604C74.0115 22.4483 74.0542 22.5283 74.108 22.5956L76.4176 25.4871C76.5263 25.6231 76.6737 25.6995 76.8274 25.6995C76.981 25.6995 77.1284 25.6231 77.2371 25.4871L78.2483 24.2208C78.3345 24.1132 78.4455 24.0423 78.5656 24.018C78.6858 23.9938 78.809 24.0175 78.9177 24.0859C79.2449 24.2905 79.5827 24.4671 79.929 24.6143C80.0438 24.6629 80.1436 24.7553 80.2143 24.8785C80.2851 25.0018 80.3232 25.1497 80.3235 25.3015V27.0871C80.3233 27.1825 80.3382 27.2769 80.3673 27.365C80.3963 27.4532 80.439 27.5333 80.4928 27.6008C80.5466 27.6683 80.6104 27.7218 80.6808 27.7583C80.7511 27.7949 80.8265 27.8137 80.9026 27.8137H84.1675C84.2437 27.8137 84.3191 27.7949 84.3894 27.7583C84.4597 27.7218 84.5236 27.6683 84.5774 27.6008C84.6312 27.5333 84.6738 27.4532 84.7029 27.365C84.7319 27.2769 84.7468 27.1825 84.7467 27.0871V25.3017C84.7469 25.1499 84.7851 25.0021 84.8559 24.8788C84.9266 24.7556 85.0264 24.6632 85.1412 24.6145C85.4874 24.4674 85.8253 24.2908 86.1524 24.0861C86.2612 24.0178 86.3844 23.9941 86.5045 24.0183C86.6247 24.0425 86.7357 24.1135 86.8219 24.2211L87.8331 25.4874C87.9418 25.6234 88.0892 25.6998 88.2429 25.6998C88.3965 25.6998 88.5439 25.6234 88.6526 25.4874L90.9621 22.5953C91.016 22.528 91.0587 22.4481 91.0878 22.3601C91.117 22.2721 91.132 22.1778 91.132 22.0826C91.132 21.9873 91.117 21.893 91.0878 21.805C91.0587 21.717 91.016 21.6371 90.9621 21.5698L89.9306 20.2781C89.8455 20.171 89.7892 20.0332 89.7696 19.8841C89.75 19.735 89.7679 19.5819 89.821 19.4462C89.9776 19.0433 90.1128 18.6279 90.2258 18.2028C90.2638 18.0579 90.3374 17.9317 90.4361 17.8423C90.5348 17.7529 90.6535 17.7048 90.7753 17.7049H92.2399C92.3159 17.7049 92.3912 17.6862 92.4615 17.6497C92.5318 17.6133 92.5957 17.5599 92.6495 17.4925C92.7032 17.4252 92.7459 17.3452 92.775 17.2572C92.8041 17.1692 92.819 17.0749 92.819 16.9796V12.8902C92.819 12.795 92.8041 12.7007 92.775 12.6127C92.746 12.5247 92.7033 12.4448 92.6496 12.3774C92.5959 12.3101 92.5321 12.2567 92.4618 12.2202C92.3916 12.1837 92.3163 12.1649 92.2403 12.1649ZM82.5357 20.9783C81.5811 20.9784 80.6479 20.624 79.8542 19.9599C79.0604 19.2959 78.4417 18.352 78.0764 17.2476C77.711 16.1432 77.6154 14.928 77.8016 13.7555C77.9878 12.5831 78.4475 11.5062 79.1225 10.6609C79.7975 9.81561 80.6575 9.23998 81.5938 9.0068C82.5301 8.77362 83.5006 8.89335 84.3825 9.35086C85.2644 9.80836 86.0182 10.5831 86.5485 11.5771C87.0788 12.5711 87.3618 13.7396 87.3617 14.935C87.3616 16.5377 86.8531 18.0748 85.9481 19.2081C85.043 20.3414 83.8156 20.9781 82.5357 20.9783Z" fill="#F4F4F4"/>
<path d="M28.2749 56.2851H27.1702C27.0823 56.2853 26.9966 56.2512 26.925 56.1877C26.8533 56.1241 26.7991 56.0343 26.7701 55.9305C26.6855 55.6264 26.5854 55.3295 26.4705 55.0414C26.4309 54.9418 26.4173 54.829 26.4318 54.7191C26.4462 54.6092 26.4879 54.5079 26.551 54.4294L27.3366 53.4459C27.4164 53.3459 27.4613 53.2103 27.4613 53.0689C27.4613 52.9276 27.4164 52.792 27.3366 52.692L25.6403 50.5688C25.5604 50.4688 25.4522 50.4127 25.3393 50.4127C25.2264 50.4127 25.1181 50.4688 25.0383 50.5688L24.239 51.5698C24.1767 51.648 24.0966 51.6999 24.0096 51.7182C23.9227 51.7366 23.8334 51.7206 23.7541 51.6723C23.5285 51.5344 23.2961 51.4144 23.0583 51.3132C22.9746 51.2774 22.9018 51.2097 22.8504 51.1195C22.7989 51.0293 22.7714 50.9212 22.7715 50.8104V49.3926C22.7715 49.3226 22.7605 49.2533 22.7392 49.1887C22.7178 49.1241 22.6865 49.0653 22.6469 49.0158C22.6074 48.9664 22.5605 48.9271 22.5089 48.9004C22.4573 48.8736 22.402 48.8598 22.3461 48.8599H19.9472C19.8914 48.8598 19.836 48.8736 19.7844 48.9004C19.7328 48.9271 19.6859 48.9664 19.6464 49.0158C19.6069 49.0653 19.5756 49.1241 19.5542 49.1887C19.5328 49.2533 19.5218 49.3226 19.5218 49.3926V50.8107C19.522 50.9215 19.4944 51.0296 19.443 51.1198C19.3915 51.21 19.3188 51.2777 19.235 51.3134C18.9973 51.4147 18.7649 51.5346 18.5392 51.6726C18.46 51.7209 18.3706 51.737 18.2837 51.7186C18.1968 51.7002 18.1166 51.6483 18.0544 51.5701L17.2549 50.569C17.1751 50.4691 17.0668 50.413 16.9539 50.413C16.8411 50.413 16.7328 50.4691 16.6529 50.569L14.9566 52.6923C14.8768 52.7923 14.832 52.9279 14.832 53.0692C14.832 53.2106 14.8768 53.3461 14.9566 53.4461L15.7418 54.4294C15.8049 54.5079 15.8466 54.6092 15.861 54.7191C15.8755 54.829 15.8619 54.9418 15.8223 55.0414C15.7074 55.3293 15.6075 55.6263 15.5235 55.9305C15.4942 56.0342 15.4399 56.124 15.3681 56.1875C15.2964 56.251 15.2106 56.2851 15.1228 56.2851H14.0178C13.9619 56.2851 13.9066 56.2988 13.8549 56.3256C13.8033 56.3524 13.7564 56.3916 13.7169 56.4411C13.6774 56.4905 13.6461 56.5493 13.6247 56.6139C13.6033 56.6785 13.5923 56.7478 13.5924 56.8178V59.8217C13.5923 59.8917 13.6033 59.961 13.6247 60.0256C13.6461 60.0902 13.6774 60.149 13.7169 60.1985C13.7564 60.2479 13.8033 60.2872 13.8549 60.3139C13.9066 60.3407 13.9619 60.3545 14.0178 60.3544H15.0936C15.183 60.3543 15.2703 60.3896 15.3428 60.4553C15.4153 60.5209 15.4694 60.6136 15.4973 60.7201C15.5803 61.0323 15.6797 61.3375 15.7946 61.6334C15.8336 61.7331 15.8468 61.8456 15.8324 61.9551C15.818 62.0647 15.7766 62.1658 15.7141 62.2445L14.9565 63.1934C14.917 63.2428 14.8856 63.3014 14.8643 63.366C14.8429 63.4306 14.8319 63.4998 14.8319 63.5698C14.8319 63.6397 14.8429 63.7089 14.8643 63.7735C14.8856 63.8381 14.917 63.8967 14.9565 63.9461L16.6528 66.0705C16.7327 66.1704 16.8409 66.2265 16.9538 66.2265C17.0667 66.2265 17.175 66.1704 17.2548 66.0705L17.9976 65.1403C18.0609 65.0613 18.1424 65.0092 18.2307 64.9915C18.3189 64.9738 18.4094 64.9913 18.4892 65.0415C18.7295 65.1918 18.9777 65.3215 19.2321 65.4296C19.3164 65.4653 19.3897 65.5331 19.4417 65.6236C19.4936 65.7141 19.5217 65.8227 19.5218 65.9342V67.246C19.5217 67.316 19.5327 67.3854 19.554 67.4501C19.5754 67.5148 19.6067 67.5736 19.6462 67.6232C19.6857 67.6728 19.7326 67.7121 19.7843 67.7389C19.8359 67.7657 19.8913 67.7795 19.9472 67.7795H22.3455C22.4014 67.7795 22.4568 67.7657 22.5084 67.7389C22.5601 67.7121 22.607 67.6728 22.6465 67.6232C22.686 67.5736 22.7173 67.5148 22.7387 67.4501C22.76 67.3854 22.771 67.316 22.7709 67.246V65.9342C22.771 65.8227 22.7991 65.7141 22.851 65.6236C22.903 65.5331 22.9763 65.4653 23.0606 65.4296C23.315 65.3215 23.5632 65.1918 23.8035 65.0415C23.8833 64.9913 23.9738 64.9738 24.062 64.9915C24.1503 65.0092 24.2318 65.0613 24.2951 65.1403L25.0379 66.0705C25.1177 66.1704 25.226 66.2265 25.3389 66.2265C25.4517 66.2265 25.56 66.1704 25.6399 66.0705L27.3366 63.9461C27.3761 63.8967 27.4075 63.8381 27.4289 63.7735C27.4503 63.7089 27.4613 63.6397 27.4613 63.5698C27.4613 63.4998 27.4503 63.4306 27.4289 63.366C27.4075 63.3014 27.3761 63.2428 27.3366 63.1934L26.579 62.2445C26.5165 62.1658 26.4752 62.0646 26.4607 61.9551C26.4463 61.8456 26.4595 61.7331 26.4985 61.6334C26.6135 61.3375 26.7128 61.0323 26.7958 60.7201C26.8237 60.6136 26.8778 60.5209 26.9503 60.4553C27.0229 60.3896 27.1101 60.3543 27.1996 60.3544H28.2754C28.3312 60.3545 28.3866 60.3407 28.4382 60.3139C28.4898 60.2872 28.5367 60.2479 28.5762 60.1985C28.6157 60.149 28.647 60.0902 28.6684 60.0256C28.6898 59.961 28.7008 59.8917 28.7008 59.8217V56.8178C28.7008 56.7478 28.6898 56.6785 28.6684 56.6138C28.647 56.5491 28.6156 56.4903 28.5761 56.4409C28.5365 56.3914 28.4895 56.3522 28.4379 56.3254C28.3862 56.2987 28.3308 56.285 28.2749 56.2851ZM21.1467 62.7586C20.4456 62.7586 19.7602 62.4983 19.1772 62.0105C18.5942 61.5227 18.1399 60.8294 17.8715 60.0182C17.6032 59.2071 17.533 58.3145 17.6698 57.4534C17.8066 56.5923 18.1442 55.8013 18.64 55.1804C19.1358 54.5596 19.7675 54.1368 20.4551 53.9655C21.1428 53.7942 21.8556 53.8821 22.5033 54.2181C23.1511 54.5541 23.7048 55.1231 24.0943 55.8531C24.4838 56.5832 24.6918 57.4414 24.6918 58.3194C24.6918 58.9024 24.6001 59.4796 24.4219 60.0182C24.2438 60.5568 23.9826 61.0462 23.6534 61.4584C23.3243 61.8706 22.9335 62.1976 22.5033 62.4207C22.0732 62.6438 21.6123 62.7586 21.1467 62.7586Z" fill="#F4F4F4"/>
<path d="M19.9894 31.7377H18.4851C18.3656 31.738 18.2489 31.6916 18.1514 31.6052C18.0538 31.5187 17.9801 31.3964 17.9405 31.2551C17.8253 30.8411 17.6891 30.4368 17.5327 30.0446C17.4787 29.909 17.4602 29.7554 17.4799 29.6059C17.4996 29.4563 17.5564 29.3183 17.6423 29.2114L18.7113 27.8728C18.8199 27.7367 18.8809 27.5521 18.8809 27.3597C18.8809 27.1672 18.8199 26.9827 18.7113 26.8465L16.4019 23.9558C16.2932 23.8198 16.1458 23.7434 15.9921 23.7434C15.8384 23.7434 15.691 23.8198 15.5823 23.9558L14.494 25.3186C14.4093 25.4251 14.3001 25.4958 14.1817 25.5209C14.0633 25.5459 13.9417 25.524 13.8337 25.4582C13.5265 25.2704 13.2101 25.107 12.8864 24.9692C12.7723 24.9206 12.6733 24.8284 12.6032 24.7056C12.5332 24.5828 12.4956 24.4356 12.4959 24.2847V22.3542C12.4959 22.2589 12.4809 22.1646 12.4518 22.0766C12.4227 21.9886 12.3801 21.9086 12.3263 21.8413C12.2725 21.7739 12.2087 21.7205 12.1384 21.684C12.0681 21.6476 11.9928 21.6289 11.9167 21.6289H8.65182C8.57577 21.6289 8.50045 21.6476 8.43019 21.6841C8.35992 21.7205 8.29607 21.7739 8.2423 21.8413C8.18852 21.9087 8.14587 21.9886 8.11678 22.0766C8.08769 22.1646 8.07274 22.2589 8.07277 22.3542V24.2847C8.07297 24.4356 8.03541 24.5828 7.96537 24.7056C7.89533 24.8284 7.79632 24.9206 7.68227 24.9692C7.35855 25.107 7.04213 25.2703 6.73492 25.4582C6.62696 25.524 6.50529 25.5459 6.3869 25.5209C6.26852 25.4958 6.15934 25.4251 6.07462 25.3186L4.98632 23.9558C4.8776 23.8198 4.73022 23.7434 4.57654 23.7434C4.42287 23.7434 4.27548 23.8198 4.16676 23.9558L1.8571 26.8465C1.74849 26.9827 1.68749 27.1672 1.68749 27.3597C1.68749 27.5521 1.74849 27.7367 1.8571 27.8728L2.92622 29.2114C3.0121 29.3183 3.06891 29.4563 3.08856 29.6059C3.10821 29.7555 3.08971 29.909 3.03569 30.0446C2.87922 30.4366 2.74337 30.8409 2.62904 31.2551C2.58907 31.3963 2.51513 31.5186 2.41739 31.605C2.31966 31.6914 2.20293 31.7378 2.08327 31.7377H0.579166C0.503106 31.7377 0.427783 31.7564 0.357504 31.7928C0.287224 31.8293 0.223365 31.8827 0.169577 31.95C0.11579 32.0173 0.073128 32.0973 0.0440309 32.1853C0.0149338 32.2733 -2.82388e-05 32.3676 9.03199e-08 32.4629V36.5526C-4.24024e-05 36.6479 0.0149092 36.7422 0.0439999 36.8302C0.0730907 36.9182 0.11575 36.9982 0.169539 37.0655C0.223328 37.1329 0.287192 37.1863 0.357479 37.2228C0.427765 37.2592 0.503097 37.2779 0.579166 37.2778H2.04373C2.16553 37.2778 2.28424 37.3259 2.38292 37.4153C2.48161 37.5047 2.55522 37.6308 2.59326 37.7757C2.70629 38.2009 2.84149 38.6163 2.99798 39.0193C3.05107 39.155 3.06905 39.308 3.04941 39.4571C3.02977 39.6062 2.97348 39.7439 2.8884 39.8511L1.85689 41.1428C1.80306 41.2101 1.76037 41.29 1.73123 41.378C1.7021 41.466 1.68711 41.5603 1.68711 41.6555C1.68711 41.7508 1.7021 41.8451 1.73123 41.9331C1.76037 42.021 1.80306 42.101 1.85689 42.1683L4.16644 45.0602C4.27516 45.1962 4.42255 45.2726 4.57622 45.2726C4.72989 45.2726 4.87728 45.1962 4.986 45.0602L5.99714 43.7939C6.0833 43.6863 6.19432 43.6153 6.31448 43.5911C6.43463 43.5669 6.55783 43.5906 6.6666 43.659C6.99372 43.8636 7.33158 44.0401 7.67786 44.1872C7.79268 44.2358 7.89248 44.3283 7.96324 44.4515C8.03401 44.5747 8.07219 44.7226 8.07244 44.8744V46.6602C8.07231 46.7556 8.0872 46.85 8.11624 46.9381C8.14528 47.0262 8.18791 47.1063 8.24169 47.1738C8.29548 47.2413 8.35935 47.2948 8.42967 47.3313C8.49999 47.3679 8.57537 47.3867 8.6515 47.3867H11.9164C11.9925 47.3867 12.0679 47.3679 12.1382 47.3314C12.2086 47.2948 12.2725 47.2413 12.3263 47.1738C12.38 47.1064 12.4227 47.0263 12.4517 46.9381C12.4808 46.85 12.4957 46.7556 12.4955 46.6602V44.8744C12.4958 44.7226 12.534 44.5747 12.6047 44.4515C12.6755 44.3283 12.7753 44.2358 12.8901 44.1872C13.2364 44.0401 13.5742 43.8636 13.9013 43.659C14.0101 43.5906 14.1332 43.5669 14.2534 43.5911C14.3736 43.6153 14.4846 43.6863 14.5707 43.7939L15.582 45.0602C15.6907 45.1962 15.8381 45.2726 15.9918 45.2726C16.1454 45.2726 16.2928 45.1962 16.4015 45.0602L18.711 42.1683C18.7648 42.101 18.8075 42.021 18.8366 41.9331C18.8658 41.8451 18.8808 41.7508 18.8808 41.6555C18.8808 41.5603 18.8658 41.466 18.8366 41.378C18.8075 41.29 18.7648 41.2101 18.711 41.1428L17.6795 39.8511C17.5944 39.7439 17.5381 39.6062 17.5185 39.4571C17.4988 39.308 17.5168 39.155 17.5699 39.0193C17.7264 38.6163 17.8616 38.2009 17.9746 37.7757C18.0127 37.6308 18.0863 37.5047 18.185 37.4153C18.2836 37.3259 18.4023 37.2778 18.5242 37.2778H19.9888C20.0649 37.2779 20.1402 37.2591 20.2105 37.2227C20.2808 37.1863 20.3446 37.1329 20.3984 37.0655C20.4522 36.9981 20.4948 36.9182 20.5239 36.8302C20.553 36.7422 20.5679 36.6478 20.5679 36.5526V32.4629C20.5679 32.2706 20.507 32.0863 20.3985 31.9503C20.29 31.8143 20.1429 31.7379 19.9894 31.7377ZM10.2847 40.551C9.33008 40.5511 8.39688 40.1967 7.60312 39.5326C6.80935 38.8686 6.19067 37.9247 5.82532 36.8203C5.45996 35.7159 5.36435 34.5007 5.55056 33.3282C5.73678 32.1558 6.19646 31.0789 6.87147 30.2336C7.54648 29.3883 8.40651 28.8127 9.34278 28.5795C10.2791 28.3463 11.2495 28.466 12.1315 28.9236C13.0134 29.3811 13.7672 30.1558 14.2975 31.1498C14.8278 32.1438 15.1108 33.3123 15.1107 34.5077C15.1105 36.1104 14.602 37.6475 13.697 38.7808C12.792 39.914 11.5646 40.5508 10.2847 40.551Z" fill="#F4F4F4"/>
<path d="M15.2269 58.3561L71.881 58.3561C73.2723 58.3561 74.4001 56.9438 74.4001 55.2016V3.25967C74.4001 1.51747 73.2723 0.105133 71.881 0.105133L15.2269 0.105133C13.8357 0.105133 12.7078 1.51747 12.7078 3.25967L12.7078 55.2016C12.7078 56.9438 13.8357 58.3561 15.2269 58.3561Z" fill="white"/>
<path d="M12.6238 55.2016V3.25964C12.6246 2.39543 12.8991 1.56691 13.3871 0.955824C13.8752 0.344742 14.5368 0.000999838 15.2269 0L71.8812 0C72.5714 0.000999838 73.233 0.344742 73.721 0.955824C74.209 1.56691 74.4836 2.39543 74.4844 3.25964V55.2016C74.4836 56.0658 74.2091 56.8943 73.7211 57.5054C73.233 58.1165 72.5714 58.4603 71.8812 58.4612H15.2269C14.5368 58.4603 13.8751 58.1165 13.3871 57.5054C12.8991 56.8943 12.6246 56.0658 12.6238 55.2016ZM15.2269 0.210356C14.5813 0.211285 13.9624 0.532861 13.5058 1.10454C13.0493 1.67621 12.7925 2.45131 12.7918 3.25978V55.2016C12.7925 56.01 13.0493 56.7851 13.5058 57.3568C13.9624 57.9285 14.5813 58.2501 15.2269 58.251H71.8812C72.5268 58.2501 73.1458 57.9285 73.6023 57.3568C74.0589 56.7851 74.3157 56.01 74.3164 55.2016V3.25964C74.3157 2.45116 74.0589 1.67605 73.6024 1.10436C73.1458 0.532678 72.5269 0.211114 71.8812 0.210221L15.2269 0.210356Z" fill="#292A2E"/>
<path d="M12.7078 3.25924V6.43347H74.3999V3.25924C74.3999 2.4227 74.1346 1.62041 73.6622 1.02884C73.1899 0.437264 72.5493 0.104849 71.8812 0.104706H15.2269C14.5588 0.104706 13.9181 0.437057 13.4457 1.02865C12.9732 1.62024 12.7078 2.42261 12.7078 3.25924Z" fill="#292A2E"/>
<path d="M23.5668 35.3432C22.2178 35.3432 20.8991 34.8423 19.7775 33.9038C18.6558 32.9653 17.7816 31.6314 17.2653 30.0707C16.7491 28.51 16.614 26.7927 16.8772 25.1359C17.1404 23.4791 17.79 21.9572 18.7439 20.7627C19.6978 19.5682 20.9131 18.7547 22.2362 18.4252C23.5593 18.0956 24.9307 18.2648 26.177 18.9112C27.4233 19.5577 28.4886 20.6524 29.238 22.057C29.9875 23.4615 30.3875 25.1129 30.3875 26.8021C30.3854 29.0666 29.6662 31.2375 28.3875 32.8387C27.1088 34.4399 25.3752 35.3406 23.5668 35.3432ZM23.5668 18.5309C22.2604 18.5309 20.9834 19.016 19.8972 19.9249C18.811 20.8337 17.9644 22.1255 17.4644 23.6369C16.9645 25.1483 16.8337 26.8113 17.0886 28.4158C17.3434 30.0202 17.9725 31.494 18.8963 32.6508C19.82 33.8075 20.9969 34.5953 22.2782 34.9144C23.5595 35.2336 24.8876 35.0698 26.0945 34.4438C27.3015 33.8177 28.3331 32.7576 29.0588 31.3974C29.7846 30.0372 30.172 28.438 30.172 26.8021C30.1701 24.6092 29.4736 22.5067 28.2353 20.956C26.997 19.4052 25.3181 18.5329 23.5668 18.5304V18.5309Z" fill="#292A2E"/>
<path d="M43.5539 35.3432C42.2049 35.3432 40.8862 34.8423 39.7646 33.9038C38.6429 32.9653 37.7687 31.6314 37.2524 30.0707C36.7362 28.51 36.6011 26.7927 36.8643 25.1359C37.1275 23.4791 37.7771 21.9572 38.731 20.7627C39.6849 19.5682 40.9002 18.7547 42.2233 18.4252C43.5464 18.0956 44.9178 18.2648 46.1641 18.9112C47.4104 19.5577 48.4757 20.6524 49.2251 22.057C49.9746 23.4615 50.3746 25.1129 50.3746 26.8021C50.3725 29.0666 49.6533 31.2375 48.3746 32.8387C47.0959 34.4399 45.3622 35.3406 43.5539 35.3432ZM43.5539 18.5309C42.2475 18.5309 40.9705 19.016 39.8843 19.9249C38.7981 20.8337 37.9515 22.1255 37.4515 23.6369C36.9516 25.1483 36.8208 26.8113 37.0757 28.4158C37.3305 30.0202 37.9596 31.494 38.8834 32.6508C39.8071 33.8075 40.984 34.5953 42.2653 34.9144C43.5466 35.2336 44.8747 35.0698 46.0816 34.4438C47.2886 33.8177 48.3202 32.7576 49.0459 31.3974C49.7717 30.0372 50.1591 28.438 50.1591 26.8021C50.1572 24.6092 49.4607 22.5067 48.2224 20.956C46.9841 19.4052 45.3052 18.5329 43.5539 18.5304V18.5309Z" fill="#292A2E"/>
<path d="M63.5412 35.3432C62.1922 35.3432 60.8735 34.8423 59.7519 33.9038C58.6302 32.9653 57.756 31.6314 57.2397 30.0707C56.7235 28.51 56.5884 26.7927 56.8516 25.1359C57.1148 23.4791 57.7644 21.9572 58.7183 20.7627C59.6722 19.5682 60.8875 18.7547 62.2106 18.4252C63.5337 18.0956 64.9051 18.2648 66.1514 18.9112C67.3977 19.5577 68.463 20.6524 69.2124 22.057C69.9619 23.4615 70.3619 25.1129 70.3619 26.8021C70.3599 29.0666 69.6406 31.2375 68.3619 32.8387C67.0832 34.4399 65.3496 35.3406 63.5412 35.3432ZM63.5412 18.5309C62.2349 18.5309 60.9578 19.016 59.8716 19.9249C58.7854 20.8337 57.9388 22.1255 57.4388 23.6369C56.9389 25.1483 56.8081 26.8113 57.063 28.4158C57.3178 30.0202 57.9469 31.494 58.8707 32.6508C59.7944 33.8075 60.9714 34.5953 62.2526 34.9144C63.5339 35.2336 64.862 35.0698 66.0689 34.4438C67.2759 33.8177 68.3075 32.7576 69.0333 31.3974C69.759 30.0372 70.1464 28.438 70.1464 26.8021C70.1445 24.6092 69.448 22.5067 68.2097 20.956C66.9714 19.4052 65.2925 18.5329 63.5412 18.5304V18.5309Z" fill="#292A2E"/>
<path opacity="0.6" d="M67.7871 28.0326V22.7146H62.8871V26.8872H66.5101L67.7871 28.0326Z" fill="#0CBC8B"/>
<path d="M59.2952 31.8972V24.7049H65.9223V30.3481H61.0223L59.2952 31.8972Z" fill="#0CBC8B"/>
<path d="M60.7973 28.301C61.1145 28.301 61.3717 27.979 61.3717 27.5818C61.3717 27.1846 61.1145 26.8626 60.7973 26.8626C60.4802 26.8626 60.223 27.1846 60.223 27.5818C60.223 27.979 60.4802 28.301 60.7973 28.301Z" fill="white"/>
<path d="M62.6088 28.301C62.9259 28.301 63.1831 27.979 63.1831 27.5818C63.1831 27.1846 62.9259 26.8626 62.6088 26.8626C62.2916 26.8626 62.0344 27.1846 62.0344 27.5818C62.0344 27.979 62.2916 28.301 62.6088 28.301Z" fill="white"/>
<path d="M64.4202 28.301C64.7374 28.301 64.9945 27.979 64.9945 27.5818C64.9945 27.1846 64.7374 26.8626 64.4202 26.8626C64.103 26.8626 63.8459 27.1846 63.8459 27.5818C63.8459 27.979 64.103 28.301 64.4202 28.301Z" fill="white"/>
<path d="M26.9651 29.4155C27.0311 29.4706 27.0776 29.5555 27.095 29.6524C27.1124 29.7494 27.0993 29.851 27.0585 29.9362L26.687 30.7113C26.5885 30.921 26.4293 31.0751 26.2424 31.1418C25.6249 31.3539 24.2631 31.3965 22.0803 28.6635C19.8975 25.9305 19.9318 24.2243 20.1012 23.4514C20.1544 23.2174 20.2774 23.018 20.4447 22.8944L21.064 22.4293C21.132 22.3782 21.2131 22.3619 21.2905 22.3838C21.3679 22.4056 21.4356 22.4639 21.4796 22.5466L22.4668 24.4009C22.5099 24.4821 22.527 24.5808 22.5145 24.677C22.502 24.7733 22.4609 24.8601 22.3994 24.92L21.845 25.4597C21.7868 25.5159 21.7466 25.5964 21.7318 25.6865C21.7169 25.7766 21.7283 25.8704 21.7639 25.9509C21.9266 26.3173 22.0808 26.7493 22.8444 27.7066C23.6079 28.6639 23.9542 28.8558 24.2464 29.0595C24.3107 29.1041 24.3856 29.1184 24.4575 29.0997C24.5295 29.081 24.5937 29.0306 24.6384 28.9577L25.0694 28.2637C25.1173 28.1867 25.1866 28.1352 25.2635 28.1195C25.3404 28.1039 25.4192 28.1253 25.4841 28.1794L26.9651 29.4155Z" fill="#0CBC8B"/>
<path opacity="0.6" d="M47.0689 29.8042H40.0666C39.9879 29.8047 39.9122 29.766 39.8563 29.6967C39.8003 29.6273 39.7686 29.533 39.7682 29.4344L39.7437 24.179C39.7435 24.1354 39.7501 24.0923 39.7633 24.052C39.7764 24.0116 39.7957 23.975 39.8202 23.944C39.8446 23.9131 39.8737 23.8884 39.9057 23.8716C39.9378 23.8547 39.9722 23.8459 40.007 23.8457L47.0739 23.8004C47.144 23.7999 47.2114 23.8343 47.2613 23.8961C47.3112 23.9579 47.3394 24.0419 47.3398 24.1297L47.3642 29.4305C47.3645 29.4793 47.357 29.5277 47.3423 29.5729C47.3275 29.6181 47.3058 29.6592 47.2784 29.694C47.251 29.7287 47.2184 29.7563 47.1824 29.7752C47.1465 29.7941 47.1079 29.804 47.0689 29.8042Z" fill="#0CBC8B"/>
<path d="M47.2645 23.8995C46.8464 24.2841 43.8101 27.0825 43.8068 27.0852C43.7244 27.1431 43.631 27.1724 43.5365 27.1701C43.442 27.1677 43.3497 27.1337 43.2691 27.0717L39.8156 23.9508C39.8402 23.9178 39.8699 23.8915 39.9029 23.8734C39.9359 23.8553 39.9715 23.8458 40.0075 23.8456L47.0738 23.7997C47.1093 23.7995 47.1444 23.8083 47.1772 23.8255C47.2099 23.8426 47.2396 23.8678 47.2645 23.8995Z" fill="#0CBC8B"/>
<path d="M76.2472 30.3818C77.6035 30.3818 78.7029 29.0051 78.7029 27.3068C78.7029 25.6085 77.6035 24.2317 76.2472 24.2317C74.891 24.2317 73.7916 25.6085 73.7916 27.3068C73.7916 29.0051 74.891 30.3818 76.2472 30.3818Z" fill="#367CFF"/>
<path d="M75.0964 27.0155C75.0333 27.0155 74.9715 26.9923 74.9187 26.9489C74.8659 26.9054 74.8245 26.8436 74.7995 26.771C74.7552 26.6424 73.7272 23.5703 74.8438 19.0636C76.0532 14.182 80.2657 14.1252 80.3081 14.1252C80.3938 14.1252 80.476 14.1678 80.5366 14.2437C80.5973 14.3196 80.6313 14.4226 80.6313 14.53C80.6313 14.6373 80.5973 14.7403 80.5366 14.8162C80.476 14.8921 80.3938 14.9347 80.3081 14.9347C80.1542 14.9347 76.5273 14.9983 75.4606 19.3032C74.4142 23.5266 75.3826 26.4212 75.3925 26.45C75.4138 26.5115 75.4224 26.5787 75.4178 26.6455C75.4131 26.7124 75.3953 26.7767 75.3659 26.8327C75.3365 26.8888 75.2964 26.9348 75.2493 26.9666C75.2022 26.9985 75.1494 27.0152 75.0959 27.0152L75.0964 27.0155Z" fill="#367CFF"/>
<path d="M75.3582 30.3818C76.7144 30.3818 77.8138 29.0051 77.8138 27.3067C77.8138 25.6084 76.7144 24.2317 75.3582 24.2317C74.0019 24.2317 72.9025 25.6084 72.9025 27.3067C72.9025 29.0051 74.0019 30.3818 75.3582 30.3818Z" fill="#367CFF"/>
<path opacity="0.3" d="M75.3582 30.3818C76.7144 30.3818 77.8138 29.0051 77.8138 27.3067C77.8138 25.6084 76.7144 24.2317 75.3582 24.2317C74.0019 24.2317 72.9025 25.6084 72.9025 27.3067C72.9025 29.0051 74.0019 30.3818 75.3582 30.3818Z" fill="white"/>
<path d="M75.9474 30.3818C77.3036 30.3818 78.403 29.0051 78.403 27.3067C78.403 25.6084 77.3036 24.2317 75.9474 24.2317C74.5911 24.2317 73.4917 25.6084 73.4917 27.3067C73.4917 29.0051 74.5911 30.3818 75.9474 30.3818Z" fill="#367CFF"/>
<path d="M87.5308 21.7738C87.5308 21.7738 88.3197 26.5078 89.2619 27.9401C91.9747 32.0632 93.1652 37.0161 91.2187 40.0372C89.2722 43.0582 75.7119 45.4983 73.9784 39.598C72.5193 34.6305 74.0846 33.7509 74.1037 29.4466C74.1123 27.4989 74.3275 23.3913 74.3275 23.3913" fill="#0A0A0A"/>
<path d="M76.1976 37.0934C76.2223 37.0893 76.4974 42.805 81.8 42.3067C85.4709 41.9623 86.7797 37.0849 86.8643 37.0849C86.4686 36.9796 85.8021 36.8263 85.6264 36.709C85.0483 36.32 84.3334 35.9153 84.1467 34.5096C84.039 33.7 84.2216 29.5547 84.1655 28.7346L78.5307 30.3095C78.6095 32.0406 79.1605 36.0541 77.2291 36.7644C76.9072 36.8828 76.561 36.9908 76.1976 37.0934Z" fill="#E98862"/>
<path opacity="0.5" d="M78.4512 35.125C78.5394 34.7688 78.5963 34.4016 78.6207 34.0299C78.6826 33.1817 78.6703 32.3276 78.5838 31.4827C79.729 31.2892 80.8079 30.6972 81.6978 29.7742C81.8026 30.2581 82.378 32.3724 82.2186 32.8323C81.9177 33.7016 80.5026 35.125 78.4512 35.125Z" fill="#0C0C0C"/>
<path d="M79.4543 33.8695C81.6848 33.7645 84.4146 32.1807 84.6093 28.4095L84.785 25.0069C84.9798 21.2358 83.5559 18.0507 80.7204 17.821C77.8849 17.5916 75.6076 20.4768 75.4129 24.248L75.3351 25.7544C75.2604 27.2019 75.4749 34.0564 79.4543 33.8695Z" fill="#E98862"/>
<path opacity="0.1" d="M80.3353 28.8228C80.7035 28.8157 80.9986 28.5359 80.9944 28.1978C80.9903 27.8597 80.6885 27.5913 80.3204 27.5983C79.9523 27.6053 79.6572 27.8852 79.6613 28.2233C79.6654 28.5614 79.9672 28.8298 80.3353 28.8228Z" fill="#0C0C0C"/>
<path opacity="0.1" d="M76.3637 28.1381C76.367 28.4754 76.072 28.7554 75.7039 28.7631C75.6403 28.7642 75.5767 28.7571 75.5142 28.7419C75.4547 28.3485 75.4127 27.9675 75.3839 27.613C75.4812 27.5646 75.5848 27.5393 75.6894 27.5384C76.0578 27.5307 76.3595 27.7991 76.3637 28.1381Z" fill="#0C0C0C"/>
<path d="M76.2634 25.598C76.456 25.598 76.6122 25.4024 76.6122 25.1612C76.6122 24.92 76.456 24.7245 76.2634 24.7245C76.0708 24.7245 75.9146 24.92 75.9146 25.1612C75.9146 25.4024 76.0708 25.598 76.2634 25.598Z" fill="#0C0C0C"/>
<path d="M79.7148 25.9209C79.9074 25.9209 80.0636 25.7253 80.0636 25.4841C80.0636 25.2429 79.9074 25.0473 79.7148 25.0473C79.5222 25.0473 79.366 25.2429 79.366 25.4841C79.366 25.7253 79.5222 25.9209 79.7148 25.9209Z" fill="#0C0C0C"/>
<path opacity="0.5" d="M78.0756 28.8949H78.0701C77.9551 28.8844 77.8407 28.8662 77.7273 28.8401C77.5579 28.7996 77.3338 28.7238 77.3436 28.5353C77.3544 28.3204 77.9443 26.04 78.0117 25.7807C78.0181 25.7589 78.031 25.741 78.0477 25.7308C78.0643 25.7207 78.0835 25.719 78.1012 25.7262C78.1188 25.7334 78.1336 25.7488 78.1423 25.7693C78.1511 25.7898 78.1531 25.8138 78.1481 25.8362C77.8964 26.8077 77.4942 28.4023 77.4868 28.5469C77.5116 28.6095 77.7943 28.6924 78.0794 28.7156C78.0978 28.7173 78.115 28.7278 78.1273 28.7449C78.1397 28.762 78.1463 28.7845 78.1458 28.8075C78.1454 28.8306 78.1378 28.8526 78.1247 28.8689C78.1117 28.8852 78.0941 28.8945 78.0757 28.895L78.0756 28.8949Z" fill="#0C0C0C"/>
<path opacity="0.5" d="M78.6422 30.4227C78.1831 30.4191 77.731 30.2804 77.3225 30.0179C77.314 30.0127 77.3065 30.0055 77.3002 29.9967C77.294 29.9878 77.2892 29.9775 77.2862 29.9664C77.28 29.9439 77.2813 29.9192 77.2896 29.8978C77.298 29.8764 77.3128 29.8601 77.3308 29.8524C77.3487 29.8447 77.3684 29.8462 77.3855 29.8567C78.2666 30.3964 79.088 30.3791 79.76 29.8067C79.7736 29.7946 79.7877 29.7834 79.8022 29.7732C79.819 29.7635 79.8382 29.7625 79.8557 29.7701C79.8732 29.7778 79.8876 29.7937 79.896 29.8144C79.9043 29.8351 79.906 29.8591 79.9005 29.8813C79.8951 29.9035 79.883 29.9222 79.8668 29.9334C79.8614 29.9372 79.8527 29.9448 79.8405 29.9553C79.4871 30.2569 79.0699 30.4197 78.6422 30.4227Z" fill="#0C0C0C"/>
<path d="M87.0808 25.8208L84.5408 25.6334C82.5659 24.97 81.5961 20.9797 81.5961 20.9797C81.5961 20.9797 80.0163 24.1208 74.3229 23.3881C74.3229 23.3881 74.0454 13.4076 82.5089 15.0975C85.2306 15.641 87.4562 18.6347 87.6577 23.1197C87.7989 26.2629 87.0808 25.8208 87.0808 25.8208Z" fill="#0A0A0A"/>
<path d="M84.3739 29.5442C85.2359 29.6141 85.9937 28.5161 86.0494 27.4371C86.1051 26.3581 85.4374 25.7065 84.5757 25.6367L84.0942 26.3238L83.633 29.4843L84.3739 29.5442Z" fill="#E98862"/>
<path d="M77.2328 24.1734C77.0029 24.023 76.7452 23.9515 76.486 23.9661C76.3557 23.9725 76.2269 24.0034 76.104 24.0578C75.98 24.1119 75.8618 24.1853 75.7523 24.2762L75.7489 24.2789C75.7367 24.2883 75.722 24.2913 75.708 24.2873C75.6941 24.2833 75.6819 24.2727 75.6742 24.2576C75.6664 24.2425 75.6636 24.2243 75.6665 24.2067C75.6693 24.1891 75.6776 24.1736 75.6894 24.1636C75.8047 24.0605 75.9299 23.9761 76.062 23.9123C76.195 23.8473 76.335 23.8076 76.4774 23.7947C76.7656 23.7663 77.0547 23.8352 77.3144 23.9943C77.3339 24.0066 77.3488 24.028 77.3557 24.0539C77.3626 24.0799 77.361 24.1082 77.3512 24.1327C77.3415 24.1571 77.3244 24.1757 77.3037 24.1844C77.2829 24.193 77.2603 24.191 77.2408 24.1788L77.2388 24.1774L77.2328 24.1734Z" fill="#0C0C0C"/>
<path d="M79.5356 24.1829C79.8091 24.0655 80.1028 24.0422 80.386 24.1154C80.526 24.1504 80.661 24.2115 80.7865 24.2968C80.9113 24.3807 81.0271 24.4839 81.1313 24.6041C81.1418 24.616 81.1482 24.6326 81.1492 24.6503C81.1502 24.668 81.1457 24.6855 81.1366 24.6991C81.1275 24.7128 81.1145 24.7214 81.1004 24.7233C81.0863 24.7252 81.0721 24.7202 81.0609 24.7094L81.0576 24.7061C80.9581 24.5988 80.8481 24.5076 80.7305 24.4345C80.6139 24.3614 80.4891 24.3107 80.3604 24.2842C80.1048 24.2292 79.842 24.26 79.5989 24.3734L79.593 24.3764C79.5829 24.3813 79.5722 24.3837 79.5614 24.3834C79.5506 24.3831 79.5399 24.3802 79.53 24.3747C79.5201 24.3693 79.5111 24.3615 79.5037 24.3517C79.4962 24.3419 79.4903 24.3304 79.4863 24.3178C79.4824 24.3052 79.4805 24.2917 79.4807 24.2782C79.4809 24.2646 79.4833 24.2513 79.4876 24.2389C79.492 24.2265 79.4982 24.2153 79.506 24.2059C79.5138 24.1965 79.523 24.1891 79.5331 24.1842L79.5356 24.1829Z" fill="#0C0C0C"/>
<path opacity="0.52" d="M78.6284 31.2743C78.5454 31.2752 78.4625 31.2673 78.3806 31.2506C78.3713 31.2488 78.3624 31.2447 78.3544 31.2385C78.3463 31.2323 78.3394 31.2243 78.3338 31.2147C78.3283 31.2052 78.3243 31.1944 78.3222 31.1829C78.32 31.1714 78.3196 31.1595 78.3211 31.1479C78.3225 31.1363 78.3258 31.1251 78.3308 31.115C78.3357 31.105 78.3421 31.0963 78.3498 31.0893C78.3574 31.0824 78.366 31.0774 78.3752 31.0747C78.3843 31.072 78.3938 31.0715 78.4031 31.0733C78.8962 31.1716 79.1447 30.9024 79.1551 30.8909C79.1692 30.875 79.1878 30.8667 79.2068 30.8679C79.2258 30.8691 79.2436 30.8797 79.2564 30.8973C79.2691 30.915 79.2757 30.9383 79.2748 30.962C79.2738 30.9858 79.2653 31.0081 79.2512 31.0241C79.0729 31.1951 78.8529 31.2835 78.6284 31.2743Z" fill="#0C0C0C"/>
<path d="M84.5685 25.5861C82.8214 25.0919 82.1144 23.7462 81.8291 22.7043C81.6421 22.0089 81.5733 21.2723 81.627 20.5416L81.6808 20.5507C81.6282 21.2718 81.6964 21.9987 81.8811 22.6849C82.1624 23.7095 82.859 25.0326 84.581 25.5204L84.5685 25.5861Z" fill="#0C0C0C"/>
<path d="M57.7025 39.2936L55.9734 35.2107C55.9354 35.121 55.8829 35.0422 55.8192 34.9794C55.7555 34.9165 55.6821 34.8709 55.6036 34.8456C55.5251 34.8202 55.4432 34.8155 55.3632 34.8319C55.2832 34.8483 55.2068 34.8854 55.1389 34.9408C55.0159 35.048 54.9291 35.2084 54.8953 35.3911C54.8614 35.5738 54.883 35.7658 54.9557 35.9297L55.3265 36.8052L53.1514 34.7222C52.9128 34.4853 52.499 34.3857 52.3044 34.7384C52.2225 34.868 52.1781 35.0286 52.1784 35.1938C52.1787 35.3591 52.2237 35.5194 52.3061 35.6485C52.3038 35.6509 52.3016 35.6534 52.2996 35.6561C52.2982 35.6585 52.2979 35.6614 52.2967 35.6638L51.9288 35.2977C51.8607 35.2301 51.7813 35.1824 51.6965 35.158C51.6118 35.1337 51.5237 35.1334 51.4388 35.157C51.3539 35.1807 51.2743 35.2278 51.2058 35.2949C51.1373 35.362 51.0816 35.4473 51.0428 35.5448C50.9841 35.6998 50.9698 35.8753 51.0021 36.042C51.0344 36.2087 51.1114 36.3564 51.2203 36.4606L51.3769 36.616C51.3754 36.6238 51.375 36.6318 51.3757 36.6397C51.2505 36.5655 51.1083 36.5494 50.9745 36.5944C50.8406 36.6394 50.724 36.7425 50.6453 36.8853C50.5629 37.0448 50.5316 37.2373 50.5575 37.4245C50.5835 37.6116 50.6648 37.7797 50.7854 37.895L51.1742 38.281C51.1657 38.2804 51.1571 38.2824 51.1492 38.2867C51.1414 38.2911 51.1345 38.2977 51.1291 38.3061C51.1231 38.3165 51.1197 38.3288 51.1192 38.3415C50.993 38.3142 50.8631 38.3395 50.7495 38.4136C50.6359 38.4877 50.5449 38.6065 50.4904 38.7517C50.4358 38.9056 50.4242 39.0782 50.4576 39.2414C50.4909 39.4047 50.5673 39.549 50.6744 39.6511L53.9557 42.9085C54.4148 43.3641 54.9721 43.6377 55.5561 43.6942C56.1402 43.7507 56.7244 43.5875 57.2339 43.2256C57.6732 42.9135 57.998 42.3992 58.1393 41.792C58.2806 41.1848 58.2273 40.5325 57.9907 39.9737L57.7025 39.2936Z" fill="#E98862"/>
<g opacity="0.2">
<path d="M54.451 37.7234C54.4421 37.7371 54.4294 37.746 54.4154 37.7481C54.4014 37.7502 54.3874 37.7453 54.3762 37.7346L52.3097 35.7504C52.3041 35.745 52.2994 35.7383 52.2959 35.7306C52.2923 35.723 52.29 35.7145 52.2891 35.7057C52.2882 35.6969 52.2886 35.688 52.2905 35.6794C52.2923 35.6708 52.2955 35.6628 52.2998 35.6558C52.3041 35.6487 52.3094 35.6428 52.3156 35.6384C52.3217 35.634 52.3285 35.6311 52.3355 35.6299C52.3425 35.6288 52.3496 35.6294 52.3565 35.6317C52.3633 35.6339 52.3697 35.6379 52.3754 35.6433L54.4418 37.6276C54.4531 37.6385 54.4605 37.6545 54.4624 37.6722C54.4642 37.6899 54.4604 37.7078 54.4517 37.722L54.451 37.7234Z" fill="#0C0C0C"/>
</g>
<g opacity="0.2">
<path d="M53.7772 38.8888C53.7684 38.9025 53.7556 38.9114 53.7416 38.9134C53.7277 38.9155 53.7136 38.9107 53.7024 38.9L51.3965 36.6856C51.3852 36.6747 51.3778 36.6587 51.3759 36.641C51.3741 36.6233 51.3779 36.6054 51.3865 36.5912C51.3955 36.5776 51.4083 36.5687 51.4223 36.5664C51.4362 36.564 51.4504 36.5684 51.4619 36.5786L53.7681 38.7924C53.7795 38.8033 53.7869 38.8194 53.7888 38.8371C53.7906 38.8548 53.7868 38.8727 53.7782 38.8869L53.7772 38.8888Z" fill="#0C0C0C"/>
</g>
<g opacity="0.2">
<path d="M53.0534 40.1563C53.0446 40.17 53.0318 40.1789 53.0179 40.181C53.0039 40.1831 52.9898 40.1782 52.9787 40.1675L51.139 38.4011C51.1277 38.3902 51.1202 38.3741 51.1184 38.3564C51.1165 38.3386 51.1203 38.3207 51.129 38.3065C51.1377 38.2923 51.1506 38.283 51.1648 38.2806C51.1789 38.2783 51.1933 38.2831 51.2046 38.294L53.0442 40.0608C53.0555 40.0716 53.0629 40.0877 53.0648 40.1054C53.0666 40.1231 53.0628 40.141 53.0542 40.1552L53.0534 40.1563Z" fill="#0C0C0C"/>
</g>
<path d="M70.0184 39.5199L64.4273 51.7922L58.713 38.7263L51.8843 43.5007L61.0775 63.7294C61.3752 64.3794 61.7903 64.933 62.2897 65.3458C63.1273 66.0332 64.1487 66.2757 65.1291 66.0202C66.1096 65.7646 66.9688 65.0318 67.5178 63.983L67.565 63.8927L77.3704 45.1556L70.0184 39.5199Z" fill="#367CFF"/>
<path d="M57.7025 39.2936L55.9734 35.2107C55.9354 35.121 55.8829 35.0423 55.8192 34.9794C55.7555 34.9165 55.6821 34.871 55.6036 34.8456C55.5251 34.8202 55.4432 34.8156 55.3632 34.832C55.2832 34.8484 55.2068 34.8854 55.1389 34.9409C55.0159 35.048 54.9291 35.2084 54.8953 35.3912C54.8614 35.5739 54.883 35.7658 54.9557 35.9298L55.3265 36.8052L55.9029 38.386" fill="#E98862"/>
<path d="M81.8989 40.8779C85.5724 40.6611 85.727 36.7567 85.727 36.7567C85.727 36.7567 87.5472 36.9039 88.7571 37.109C90.7381 37.4446 92.0448 38.2858 93.0848 39.588C94.0522 40.7995 94.6412 42.1101 94.018 50.4783C93.5667 56.5367 93.8843 69.865 93.8843 69.865H71.7143C71.7143 69.865 70.3849 52.3962 70.1995 49.6687C69.8459 44.4619 68.3975 41.5271 70.4219 38.8449C71.8901 36.8998 75.6802 36.7567 77.2058 36.757C77.2307 36.757 76.8962 41.1733 81.8989 40.8779Z" fill="#367CFF"/>
<path d="M70.3286 48.798C70.3277 48.7801 70.3212 48.7634 70.3105 48.7516C70.2997 48.7397 70.2857 48.7337 70.2714 48.7348C70.2571 48.7359 70.2437 48.7441 70.2343 48.7576C70.2248 48.771 70.22 48.7886 70.2209 48.8065L70.6717 57.8237C70.6725 57.8398 70.678 57.8551 70.6871 57.8667C70.6961 57.8783 70.7083 57.8854 70.7212 57.8867C70.7237 57.8869 70.7263 57.8869 70.7288 57.8867C70.7359 57.8861 70.7428 57.8838 70.7492 57.8799C70.7555 57.876 70.7612 57.8706 70.7659 57.8639C70.7706 57.8573 70.7742 57.8495 70.7765 57.8411C70.7788 57.8327 70.7797 57.8239 70.7793 57.815" fill="#0C0C0C"/>
<path d="M75.2131 61.9609L71.6269 60.8697C71.5481 60.8457 71.4662 60.8426 71.3864 60.8604C71.3065 60.8783 71.2306 60.9168 71.1633 60.9734C71.096 61.0301 71.0388 61.1037 70.9955 61.1895C70.9521 61.2753 70.9235 61.3715 70.9115 61.4719C70.8938 61.6581 70.932 61.8459 71.0187 61.9989C71.1054 62.1518 71.2343 62.259 71.3805 62.2997L72.1495 62.5337L69.4615 63.1878C69.1618 63.2539 68.8275 63.5753 68.9091 63.9917C68.9321 64.1545 68.9985 64.3027 69.0974 64.4121C69.1963 64.5216 69.3219 64.5859 69.4537 64.5944C69.4534 64.5981 69.4534 64.6017 69.4537 64.6054C69.4537 64.6083 69.4556 64.6105 69.4563 64.6133L68.9939 64.7153C68.9083 64.7343 68.8271 64.777 68.7563 64.8402C68.6855 64.9035 68.6268 64.9857 68.5846 65.0809C68.5424 65.1762 68.5177 65.282 68.5123 65.3907C68.5069 65.4994 68.5209 65.6082 68.5533 65.7092C68.6069 65.8671 68.7022 65.9971 68.8232 66.0775C68.9442 66.1578 69.0836 66.1838 69.218 66.1509L69.4148 66.1074C69.4184 66.114 69.4229 66.1197 69.4281 66.1243C69.3007 66.1923 69.1967 66.3148 69.1347 66.47C69.0728 66.6252 69.0569 66.8029 69.09 66.9714C69.1305 67.1545 69.2246 67.3118 69.3536 67.4119C69.4825 67.5119 69.6369 67.5474 69.7859 67.5111L70.2746 67.4032C70.2686 67.4108 70.2641 67.4201 70.2615 67.4303C70.2589 67.4405 70.2582 67.4514 70.2597 67.462C70.2619 67.4745 70.2669 67.4859 70.2742 67.4949C70.1741 67.5949 70.103 67.7334 70.0718 67.8889C70.0407 68.0445 70.0512 68.2086 70.1018 68.3559C70.1574 68.5093 70.2528 68.6348 70.3724 68.7119C70.4921 68.789 70.629 68.8133 70.761 68.7808L74.8849 67.8699C75.4618 67.7425 75.9952 67.4023 76.4167 66.8928C76.8381 66.3834 77.1285 65.7279 77.2505 65.0104C77.3557 64.3918 77.2642 63.7462 76.9954 63.2107C76.7265 62.6752 76.3015 62.2921 75.8107 62.1428L75.2131 61.9609Z" fill="#E98862"/>
<g opacity="0.2">
<path d="M72.1169 63.9635C72.1192 63.981 72.1161 63.9988 72.108 64.0134C72.0999 64.0279 72.0876 64.0378 72.0738 64.0411L69.5169 64.6591C69.51 64.6608 69.5028 64.6607 69.4959 64.6589C69.489 64.6572 69.4824 64.6537 69.4765 64.6487C69.4707 64.6437 69.4657 64.6374 69.4618 64.63C69.4579 64.6226 69.4552 64.6143 69.4538 64.6056C69.4525 64.5969 69.4526 64.588 69.454 64.5793C69.4554 64.5706 69.4582 64.5624 69.4621 64.555C69.4661 64.5477 69.4712 64.5414 69.4771 64.5365C69.483 64.5316 69.4896 64.5283 69.4966 64.5266L72.0534 63.9085C72.0604 63.9068 72.0676 63.9069 72.0745 63.9087C72.0815 63.9105 72.0881 63.914 72.094 63.919C72.0998 63.924 72.1048 63.9305 72.1087 63.9379C72.1126 63.9454 72.1153 63.9537 72.1166 63.9625L72.1169 63.9635Z" fill="#0C0C0C"/>
</g>
<g opacity="0.2">
<path d="M72.3661 65.3681C72.3684 65.3856 72.3652 65.4034 72.3572 65.4179C72.3491 65.4324 72.3369 65.4423 72.323 65.4456L69.4695 66.1354C69.4626 66.137 69.4554 66.1369 69.4485 66.1351C69.4415 66.1333 69.4349 66.1298 69.4291 66.1248C69.4232 66.1198 69.4182 66.1133 69.4143 66.1059C69.4104 66.0985 69.4078 66.0901 69.4065 66.0814C69.4043 66.0638 69.4075 66.0459 69.4155 66.0312C69.4235 66.0165 69.4357 66.0062 69.4496 66.0025L72.3031 65.3127C72.3101 65.311 72.3172 65.3111 72.3242 65.3129C72.3311 65.3147 72.3377 65.3183 72.3436 65.3233C72.3494 65.3283 72.3544 65.3347 72.3583 65.3422C72.3622 65.3496 72.3648 65.3579 72.3661 65.3667V65.3681Z" fill="#0C0C0C"/>
</g>
<g opacity="0.2">
<path d="M72.6421 66.8875C72.6444 66.9049 72.6412 66.9227 72.6331 66.9372C72.6251 66.9517 72.6128 66.9616 72.599 66.9649L70.3228 67.5152C70.3159 67.5169 70.3087 67.5168 70.3018 67.515C70.2949 67.5133 70.2883 67.5098 70.2824 67.5048C70.2765 67.4999 70.2715 67.4935 70.2676 67.4861C70.2637 67.4787 70.261 67.4704 70.2597 67.4617C70.2583 67.453 70.2584 67.4441 70.2598 67.4354C70.2612 67.4267 70.264 67.4185 70.2679 67.4111C70.2719 67.4038 70.277 67.3975 70.2829 67.3926C70.2888 67.3877 70.2954 67.3844 70.3023 67.3827L72.5785 66.8324C72.5855 66.8307 72.5926 66.8308 72.5996 66.8326C72.6066 66.8344 72.6132 66.8379 72.619 66.843C72.6249 66.848 72.6299 66.8544 72.6338 66.8619C72.6377 66.8693 72.6403 66.8777 72.6416 66.8864L72.6421 66.8875Z" fill="#0C0C0C"/>
</g>
<path d="M74.8559 69.6363L94.1261 69.768C94.7467 69.8526 95.3746 69.7559 95.9604 69.4856C96.5462 69.2153 97.074 68.7787 97.5024 68.21C97.9308 67.6413 98.2482 66.9561 98.4296 66.208C98.611 65.46 98.6515 64.6695 98.548 63.8985L94.2549 42.3636C94.1697 41.7053 93.9814 41.0745 93.7008 40.5076C93.4202 39.9407 93.0528 39.4489 92.6199 39.0604C92.187 38.672 91.697 38.3945 91.1781 38.244C90.6592 38.0935 90.1217 38.0729 89.5965 38.1835C89.0712 38.2941 88.5686 38.5336 88.1175 38.8882C87.6665 39.2429 87.2759 39.7057 86.9682 40.2501C86.6605 40.7945 86.4417 41.4097 86.3246 42.0603C86.2074 42.711 86.1941 43.3842 86.2855 44.0412L89.578 60.2647L74.9491 60.867L74.8559 69.6363Z" fill="#367CFF"/>
<path d="M92.0968 60.1967C92.1103 60.1965 92.1233 60.19 92.1332 60.1784C92.143 60.1669 92.1491 60.151 92.15 60.1341C92.151 60.1173 92.1469 60.1005 92.1385 60.0872C92.1301 60.074 92.118 60.0652 92.1046 60.0625L89.609 60.176C89.602 60.1746 89.5948 60.1749 89.5879 60.177C89.581 60.1791 89.5745 60.1829 89.5688 60.1881C89.5631 60.1934 89.5583 60.2001 89.5547 60.2077C89.5511 60.2154 89.5487 60.2239 89.5478 60.2327C89.5457 60.2504 89.5493 60.2684 89.5578 60.2827C89.5662 60.2971 89.5789 60.3067 89.593 60.3093L92.0887 60.1959C92.0914 60.1964 92.0941 60.1967 92.0968 60.1967Z" fill="#0C0C0C"/>
<path d="M93.5655 69.865C93.5798 69.8661 93.5939 69.8601 93.6046 69.8483C93.6154 69.8365 93.622 69.8198 93.6229 69.8019C93.6238 69.784 93.619 69.7664 93.6096 69.7529C93.6002 69.7394 93.5868 69.7312 93.5725 69.73L74.9686 69.5847L75.0503 60.9492L89.5916 60.3092C89.6 60.3106 89.6085 60.3095 89.6165 60.3061C89.6244 60.3026 89.6317 60.2968 89.6375 60.2892C89.6434 60.2816 89.6477 60.2724 89.6502 60.2623C89.6527 60.2522 89.6533 60.2415 89.6519 60.2311L88.0661 50.4797C88.065 50.4709 88.0625 50.4625 88.0588 50.4549C88.0551 50.4473 88.0502 50.4408 88.0444 50.4356C88.0386 50.4304 88.0321 50.4268 88.0251 50.4249C88.0182 50.4229 88.011 50.4228 88.004 50.4244C87.9899 50.4273 87.9774 50.4372 87.9691 50.4518C87.9608 50.4663 87.9575 50.4844 87.9598 50.5021L89.533 60.1631L75.0094 60.8059C75.0022 60.8047 74.995 60.8053 74.988 60.8077C74.9811 60.8101 74.9746 60.8142 74.969 60.8198C74.9633 60.8253 74.9586 60.8323 74.9551 60.8401C74.9516 60.848 74.9495 60.8567 74.9487 60.8657L74.8555 69.6361C74.854 69.6537 74.858 69.6713 74.8667 69.6851C74.8754 69.699 74.8881 69.7081 74.9021 69.7103L93.5581 69.8643C93.5606 69.8647 93.563 69.865 93.5655 69.865Z" fill="#0C0C0C"/>
<path d="M65.7791 67.3311L60.5075 47.0391C60.4149 46.6825 60.2345 46.3718 59.9922 46.1514C59.7499 45.9311 59.4582 45.8124 59.1588 45.8124H37.6819C37.458 45.8124 37.2373 45.8788 37.0378 46.0061C36.8384 46.1334 36.6658 46.318 36.5342 46.5448C36.4027 46.7716 36.3158 47.0342 36.2809 47.3111C36.2459 47.588 36.2638 47.8714 36.333 48.138L41.6047 68.4301C41.6973 68.7867 41.8777 69.0974 42.12 69.3178C42.3622 69.5381 42.654 69.6568 42.9534 69.6568H64.4303C64.6542 69.6568 64.8749 69.5904 65.0743 69.4631C65.2738 69.3358 65.4464 69.1512 65.578 68.9243C65.7095 68.6975 65.7963 68.4349 65.8313 68.158C65.8663 67.8811 65.8484 67.5977 65.7791 67.3311Z" fill="#292A2E"/>
<path d="M75.8554 68.0115H61.479C61.1207 68.0115 60.8303 68.3751 60.8303 68.8237V68.8445C60.8303 69.2931 61.1207 69.6568 61.479 69.6568H75.8554C76.2137 69.6568 76.5041 69.2931 76.5041 68.8445V68.8237C76.5041 68.3751 76.2137 68.0115 75.8554 68.0115Z" fill="#292A2E"/>
<path d="M50.7329 61.1404C51.9769 61.1404 52.9854 59.8775 52.9854 58.3197C52.9854 56.7618 51.9769 55.499 50.7329 55.499C49.4888 55.499 48.4803 56.7618 48.4803 58.3197C48.4803 59.8775 49.4888 61.1404 50.7329 61.1404Z" fill="white"/>
<path d="M85.8389 26.8453C85.7531 26.8453 85.6709 26.8027 85.6103 26.7267C85.5497 26.6508 85.5156 26.5479 85.5156 26.4405V21.8294C85.5156 19.483 84.9969 17.6238 84.0157 16.4528C83.0857 15.3429 81.7511 14.8325 80.0504 14.9346C80.0079 14.9375 79.9653 14.9297 79.9252 14.9119C79.885 14.8941 79.8481 14.8665 79.8165 14.8308C79.7849 14.795 79.7592 14.7518 79.741 14.7036C79.7228 14.6553 79.7124 14.6031 79.7103 14.5498C79.7083 14.4965 79.7147 14.4433 79.7291 14.3931C79.7436 14.3429 79.7658 14.2968 79.7945 14.2574C79.8232 14.2181 79.8579 14.1862 79.8965 14.1636C79.9351 14.141 79.9768 14.1283 80.0194 14.126C81.9041 14.012 83.3991 14.5982 84.4622 15.8666C85.5745 17.1942 86.1625 19.256 86.1625 21.8293V26.4404C86.1626 26.4936 86.1542 26.5463 86.1379 26.5955C86.1217 26.6446 86.0978 26.6893 86.0678 26.7269C86.0377 26.7645 86.002 26.7943 85.9627 26.8146C85.9234 26.835 85.8814 26.8454 85.8389 26.8453Z" fill="#367CFF"/>
<path d="M85.3557 30.3818C86.7119 30.3818 87.8114 29.0051 87.8114 27.3068C87.8114 25.6085 86.7119 24.2317 85.3557 24.2317C83.9995 24.2317 82.9 25.6085 82.9 27.3068C82.9 29.0051 83.9995 30.3818 85.3557 30.3818Z" fill="#367CFF"/>
<path d="M85.4505 29.6103C85.4333 29.5947 85.4138 29.5835 85.3932 29.5774C85.3725 29.5712 85.3511 29.5702 85.3301 29.5744C85.3092 29.5786 85.2891 29.588 85.271 29.6019C85.2529 29.6158 85.2372 29.6341 85.2248 29.6556L85.037 29.9807C84.8067 30.3781 84.5046 30.7016 84.1554 30.9249C83.8062 31.1482 83.4198 31.265 83.0277 31.2656H80.038V31.1864C80.038 31.0791 80.004 30.9761 79.9434 30.9002C79.8827 30.8243 79.8005 30.7816 79.7148 30.7816H78.703C78.6173 30.7816 78.535 30.8243 78.4744 30.9002C78.4138 30.9761 78.3797 31.0791 78.3797 31.1864V31.779C78.3797 31.8864 78.4138 31.9894 78.4744 32.0653C78.535 32.1412 78.6173 32.1838 78.703 32.1838H79.7148C79.8005 32.1838 79.8827 32.1412 79.9434 32.0653C80.004 31.9894 80.038 31.8864 80.038 31.779V31.6711H83.0277C83.4709 31.6703 83.9077 31.5383 84.3023 31.2859C84.697 31.0335 85.0385 30.6678 85.2988 30.2187L85.4867 29.8937C85.4993 29.8721 85.5083 29.8477 85.5132 29.8217C85.5182 29.7958 85.519 29.7689 85.5157 29.7426C85.5123 29.7162 85.5048 29.691 85.4936 29.6683C85.4824 29.6456 85.4678 29.6259 85.4505 29.6103Z" fill="#367CFF"/>
<path d="M85.9449 30.3818C87.3011 30.3818 88.4006 29.0051 88.4006 27.3068C88.4006 25.6085 87.3011 24.2317 85.9449 24.2317C84.5887 24.2317 83.4892 25.6085 83.4892 27.3068C83.4892 29.0051 84.5887 30.3818 85.9449 30.3818Z" fill="#367CFF"/>
<path opacity="0.3" d="M85.9449 30.3818C87.3011 30.3818 88.4006 29.0051 88.4006 27.3068C88.4006 25.6085 87.3011 24.2317 85.9449 24.2317C84.5887 24.2317 83.4892 25.6085 83.4892 27.3068C83.4892 29.0051 84.5887 30.3818 85.9449 30.3818Z" fill="white"/>
<path d="M39.3055 69.9999H98.8922C98.9208 69.9999 98.9482 69.9857 98.9684 69.9604C98.9886 69.9351 99 69.9008 99 69.865C99 69.8292 98.9886 69.7949 98.9684 69.7696C98.9482 69.7443 98.9208 69.7301 98.8922 69.7301H39.3055C39.2769 69.7301 39.2495 69.7443 39.2293 69.7696C39.2091 69.7949 39.1977 69.8292 39.1977 69.865C39.1977 69.9008 39.2091 69.9351 39.2293 69.9604C39.2495 69.9857 39.2769 69.9999 39.3055 69.9999Z" fill="#292A2E"/>
</svg>
