<svg width="170" height="99" viewBox="0 0 170 99" fill="none" xmlns="http://www.w3.org/2000/svg">
<g clip-path="url(#clip0_33_1666)">
<path d="M152.535 58.502L150.567 58.928L153.035 68.4831L155.003 68.0571L152.535 58.502Z" fill="#F0F6FF"/>
<path d="M154.701 57.7612L153.011 66.1479L154.104 66.3325L155.794 57.9457L154.701 57.7612Z" fill="#C1D8ED"/>
<path d="M154.702 57.7583L154.509 58.6833L155.601 58.8735L155.793 57.9485L154.702 57.7583Z" fill="#DEE8F5"/>
<path d="M151.318 59.891L150.711 60.1099L154.252 68.3386L154.859 68.1198L151.318 59.891Z" fill="#0CBC8B"/>
<path d="M155.88 63.4929H150.542V69.7384H155.88V63.4929Z" fill="#C1D8ED"/>
<path d="M170 99H0C1.86277 94.6509 5.30278 90.9614 10.1521 89.8669C17.2458 88.268 24.753 92.6648 31.8309 91.0113C35.8522 90.0732 39.018 87.339 42.3447 85.0685C54.8948 76.5011 72.0925 73.97 86.9448 78.5035C94.7072 80.8727 101.781 85.0154 109.732 86.7774C120.015 89.0559 130.768 87.1663 141.343 86.8549C151.641 86.5523 166.396 90.3934 170 99Z" fill="#F3F5FD"/>
<path d="M135.016 0H32.9749V67.6572H135.016V0Z" fill="#DEE8F5"/>
<path d="M135.016 0H32.9749V5.57325H135.016V0Z" fill="#C1D8ED"/>
<path d="M131.599 4.18505C132.442 4.18505 133.126 3.55901 133.126 2.78674C133.126 2.01447 132.442 1.38843 131.599 1.38843C130.755 1.38843 130.071 2.01447 130.071 2.78674C130.071 3.55901 130.755 4.18505 131.599 4.18505Z" fill="white"/>
<path d="M107.655 9.20129H37.4511V20.1116H107.655V9.20129Z" fill="white"/>
<path d="M107.655 23.5062H37.4511V34.4166H107.655V23.5062Z" fill="#C1D8ED"/>
<path d="M107.655 37.8113H37.4511V48.7216H107.655V37.8113Z" fill="white"/>
<path d="M107.655 52.1163H37.4511V63.0267H107.655V52.1163Z" fill="white"/>
<path d="M130.928 9.49268H111.898V24.6417H130.928V9.49268Z" fill="white"/>
<path d="M130.928 28.7286H111.898V43.8777H130.928V28.7286Z" fill="white"/>
<path d="M130.928 48.1689H111.898V63.318H130.928V48.1689Z" fill="white"/>
<path d="M64.4602 97.274L61.0342 96.9012C61.1884 95.7141 61.3628 94.288 61.3746 94.0542C61.3746 94.0692 61.3746 94.0814 61.3746 94.0911H64.8248C64.8239 94.1854 64.824 94.4734 64.4602 97.274Z" fill="#E98862"/>
<path d="M50.7127 97.6515L47.2625 97.6413C47.2625 97.6413 47.2742 94.3794 47.2742 94.0906H50.7243C50.7243 94.3801 50.7127 97.6515 50.7127 97.6515Z" fill="#E98862"/>
<path d="M59.6554 96.2766L65.7343 96.1818C65.4488 89.5585 65.4314 82.611 65.3423 75.9717C64.1561 68.8156 63.5313 60.9573 62.0671 53.8524L62.0232 53.8643L61.8947 53.0626L49.3957 52.3556C49.3957 52.3556 49.0342 57.9634 48.9094 59.8315C48.3003 68.899 47.1171 85.6961 46.3746 96.0959L52.4319 96.5645C53.5233 86.368 55.0479 71.5108 56.0868 60.7993C57.2797 66.0143 58.2555 71.4142 59.2928 76.5845C59.499 83.0579 59.6743 89.8238 59.6554 96.2766Z" fill="#262626"/>
<path d="M54.9073 98.8732C55.0863 98.8724 55.2577 98.8066 55.3837 98.6902C55.5097 98.5738 55.5801 98.4163 55.5793 98.2524C55.5793 98.2373 55.5793 98.2223 55.5771 98.2073C55.5671 98.0899 55.5207 97.9775 55.4433 97.8835C55.3659 97.7894 55.2608 97.7176 55.1403 97.6764L51.1244 96.4451C51.0466 96.4214 50.9642 96.4135 50.8827 96.4218C50.8013 96.43 50.7228 96.4544 50.6526 96.4931C50.1005 96.8437 49.4401 97.023 48.7684 97.0045C48.2453 96.9704 47.7433 96.8025 47.3193 96.5198C47.2821 96.4919 47.2369 96.4742 47.1891 96.4689C47.1413 96.4636 47.0928 96.4708 47.0493 96.4897C47.0058 96.5086 46.9691 96.5384 46.9434 96.5757C46.9177 96.613 46.9041 96.6562 46.9042 96.7003V98.4982C46.9042 98.605 46.9505 98.7075 47.033 98.783C47.1156 98.8586 47.2275 98.901 47.3442 98.901H47.3458L54.9073 98.8732Z" fill="#C1D8ED"/>
<path d="M68.6639 98.8732C68.7525 98.8729 68.8401 98.8566 68.9219 98.8252C69.0036 98.7938 69.0777 98.748 69.1401 98.6904C69.2025 98.6328 69.2519 98.5645 69.2854 98.4894C69.319 98.4143 69.336 98.3339 69.3357 98.2528C69.3357 98.2377 69.3357 98.2227 69.3335 98.2076C69.3235 98.0903 69.2771 97.9779 69.1998 97.8839C69.1224 97.7898 69.0173 97.718 68.8968 97.6768L64.881 96.4454C64.8032 96.4218 64.7208 96.4138 64.6393 96.4221C64.5579 96.4304 64.4793 96.4547 64.4091 96.4934C63.857 96.8441 63.1966 97.0233 62.525 97.0049C62.0019 96.9708 61.4998 96.8029 61.0759 96.5202C61.0386 96.4922 60.9935 96.4745 60.9456 96.4692C60.8978 96.4638 60.8493 96.471 60.8057 96.4899C60.7622 96.5088 60.7254 96.5387 60.6997 96.576C60.674 96.6133 60.6604 96.6566 60.6606 96.7007V98.4985C60.6605 98.5515 60.6719 98.604 60.694 98.653C60.7161 98.7019 60.7486 98.7464 60.7895 98.7839C60.8304 98.8214 60.879 98.851 60.9325 98.8713C60.986 98.8915 61.0433 98.9019 61.1012 98.9018H61.103L68.6639 98.8732Z" fill="#C1D8ED"/>
<path d="M53.336 36.6235C53.336 36.6235 54.6572 36.1039 54.6572 32.926L57.3131 32.6782C57.3131 32.6782 56.7656 35.4864 58.0087 36.4839L53.336 36.6235Z" fill="#E98862"/>
<path d="M53.2826 31.5904C53.3779 32.5618 53.8675 33.5115 54.7626 33.8902C55.7356 34.3312 56.8118 34.5476 57.8971 34.5203C60.7802 34.5203 60.7476 28.5158 59.4918 27.2549C58.2359 25.9941 54.1796 26.4287 53.5208 28.3291C53.1802 29.3128 53.1917 30.6659 53.2826 31.5904Z" fill="#E98862"/>
<path d="M45.7158 57.7767C45.7158 58.2251 45.9744 59.7236 45.5586 59.8307C45.3092 59.895 45.0148 58.7778 45.0148 58.7778" fill="#E98862"/>
<path d="M43.753 57.541C43.753 57.541 42.3953 60.5666 43.9439 62.3047C43.9834 62.3489 44.0365 62.3812 44.0964 62.3973C44.1562 62.4135 44.22 62.4127 44.2794 62.3951C44.3387 62.3776 44.3909 62.344 44.4292 62.2989C44.4674 62.2538 44.4899 62.1991 44.4936 62.1421C44.5689 60.9702 44.827 58.5628 45.671 58.8441V56.9542" fill="#E98862"/>
<path d="M74.3678 41.4213C74.3678 41.4213 76.2641 40.0422 76.3982 39.5469C76.5323 39.0516 75.1969 38.0773 75.1969 38.0773C75.1969 38.0773 76.9726 36.4377 76.6185 36.2009C76.2007 35.9204 74.1401 38.3041 74.1401 38.3041C74.1401 38.3041 74.4314 37.4467 74.0685 37.3903C73.9195 37.3671 73.8013 37.5012 73.5681 38.1081C73.3022 38.8001 72.7709 39.8402 72.7709 39.8402L74.3678 41.4213Z" fill="#E98862"/>
<path d="M72.3718 39.5878L66.7631 45.365L62.3765 38.1758C61.9611 37.0399 61.0156 36.2791 59.0868 36.2033C58.4271 36.1774 55.2084 36.1732 52.852 36.1732C51.2687 36.1732 49.9689 36.618 49.2184 37.3053C48.8404 37.6464 48.5575 38.0658 48.3935 38.5281L48.3708 38.5204L44.5994 47.9091C44.5572 48.0144 44.5268 48.1233 44.5087 48.2343L42.9867 57.6226L46.5302 58.104L48.0253 48.8832L49.5483 45.0915C49.7071 45.6743 49.7938 46.2716 49.8068 46.8721C49.8068 50.0309 48.246 51.4476 48.361 53.0687C48.5417 55.6175 62.0677 55.0154 62.757 53.5676C63.4666 52.0744 62.0263 51.1545 62.0894 46.2707C62.0962 45.7392 62.1412 45.1831 62.2028 44.6171L64.8644 48.9793C65.0037 49.2078 65.2007 49.4025 65.439 49.547C65.6773 49.6915 65.9498 49.7817 66.234 49.8101C66.5181 49.8385 66.8056 49.8041 67.0722 49.71C67.3389 49.6159 67.5771 49.4647 67.767 49.269L75.1412 41.3719L72.3718 39.5878Z" fill="#367CFF"/>
<path d="M57.4647 31.161C57.5962 31.161 57.7028 31.0634 57.7028 30.9431C57.7028 30.8227 57.5962 30.7251 57.4647 30.7251C57.3332 30.7251 57.2266 30.8227 57.2266 30.9431C57.2266 31.0634 57.3332 31.161 57.4647 31.161Z" fill="#367CFF"/>
<path d="M56.997 30.5113C56.9688 30.5112 56.9418 30.5013 56.9212 30.4837C56.9007 30.4661 56.8881 30.4421 56.886 30.4164C56.884 30.3907 56.8925 30.3653 56.91 30.3451C56.9276 30.325 56.9527 30.3116 56.9805 30.3076L57.6124 30.2174C57.6412 30.2143 57.6702 30.2215 57.6933 30.2375C57.7164 30.2535 57.7318 30.2772 57.7362 30.3034C57.7407 30.3296 57.7338 30.3564 57.7171 30.3781C57.7004 30.3998 57.6752 30.4147 57.6467 30.4197L57.0149 30.51C57.009 30.5109 57.003 30.5113 56.997 30.5113Z" fill="#367CFF"/>
<path d="M59.2098 29.2537C58.0824 33.8837 57.0443 35.1214 54.4303 34.1943C53.831 33.9818 52.3951 32.6782 52.2513 29.9043C52.1925 28.978 52.5058 28.0641 53.1323 27.3347C53.7588 26.6054 54.6551 26.1112 55.6522 25.9452C60.829 25.2861 61.0107 29.5657 61.0107 29.5657C58.4127 29.9735 54.8744 29.2998 54.8744 29.2998" fill="#0F1011"/>
<path d="M59.3314 31.868C59.3333 31.9894 59.309 32.11 59.2599 32.2228C59.2108 32.3357 59.1379 32.4385 59.0454 32.5255C58.9528 32.6125 58.8425 32.682 58.7206 32.7299C58.5987 32.7778 58.4677 32.8033 58.3351 32.8049C58.2024 32.8064 58.0708 32.784 57.9476 32.7389C57.8244 32.6938 57.7122 32.627 57.6173 32.5421C57.5223 32.4573 57.4466 32.3562 57.3944 32.2445C57.3422 32.1329 57.3146 32.0129 57.3131 31.8915V31.868C57.3086 31.627 57.4089 31.3943 57.5918 31.221C57.7748 31.0477 58.0254 30.9481 58.2886 30.944C58.2998 30.944 58.3111 30.944 58.3215 30.944C59.0411 30.9765 59.3314 31.3576 59.3314 31.868Z" fill="#E98862"/>
<path d="M49.2324 30.7424C49.1338 28.5119 49.6893 27.1602 50.4841 26.4421C51.2683 25.7336 53.7904 25.2078 54.8567 27.9728C55.5525 29.7779 55.3272 30.3987 55.6111 33.2475C55.895 36.0963 56.6281 36.0924 56.7656 38.7139C56.912 41.5012 55.6724 43.6789 52.4085 43.6604C49.7438 43.6453 48.0501 42.4729 47.8058 40.0224C47.4554 36.5057 49.4256 35.1134 49.2324 30.7424Z" fill="#0F1011"/>
<path d="M17.1384 90.4262C15.8002 90.0745 14.7929 88.9782 14.3927 87.7574C13.9925 86.5366 14.1335 85.2118 14.5241 83.9883C14.843 82.9899 15.3266 82.0248 15.4457 80.9904C15.8424 77.5458 12.1926 74.0259 13.9105 70.94C14.4658 69.942 15.5405 69.1621 15.7322 68.0557C15.8907 67.141 15.3985 66.2519 15.1537 65.3531C14.8171 64.116 14.9878 62.7125 15.8643 61.7219C16.7408 60.7314 18.3972 60.2987 19.605 60.933C21.1847 61.7627 21.3217 63.8108 20.9157 65.4363C20.5097 67.0617 19.7573 68.734 20.2533 70.3382C20.7261 71.8674 22.2647 73.0188 22.5406 74.5879C22.7706 75.8922 22.0745 77.164 21.7684 78.4552C21.288 80.4845 21.7769 82.5882 21.7978 84.6644C21.8187 86.7407 21.1797 89.0694 17.1384 90.4262Z" fill="#8DDBE0"/>
<path d="M15.0734 90.6233C14.277 90.3916 13.5624 89.97 13.0028 89.4019C12.4433 88.8337 12.059 88.1394 11.8894 87.3903C11.6275 86.1548 11.9492 84.767 11.2105 83.705C10.2096 82.2667 9.18342 82.1041 7.93741 80.8363C6.02173 78.887 5.95437 78.0235 6.08088 74.4134C6.13427 72.8866 3.83185 71.1643 4.64264 69.6968C5.35716 68.4043 7.52881 68.3977 8.76036 69.3072C9.99191 70.2166 10.5329 71.6743 11.0695 73.0376C11.6061 74.4009 12.2827 75.8421 13.643 76.5817C14.4588 77.0253 15.5268 77.2303 15.9775 77.9949C16.3389 78.6091 16.1571 79.3589 16.0115 80.0441C15.6458 81.7664 15.7375 83.8673 17.3162 84.8621C18.0284 85.3109 18.9611 85.4654 19.5466 86.048C20.1256 86.6238 20.2189 87.477 20.1798 88.2592C20.1028 89.7624 19.6504 91.2294 18.8574 92.5475" fill="#DEE8F5"/>
<path d="M16.9771 91.8228C15.5558 90.3359 15.3548 87.9804 16.5067 86.3095C17.4732 84.9075 19.2744 83.9419 19.6526 82.3207C19.9894 80.8766 19.0552 79.3845 19.3349 77.9302C19.639 76.3488 21.2346 75.3111 22.5021 74.2014C22.8319 73.9315 23.1156 73.6179 23.3437 73.2709C23.9011 72.3523 23.7457 71.2252 23.9351 70.1891C24.2976 68.2035 26.0838 66.4436 28.2525 66.1154C30.1545 65.8276 31.517 66.8279 31.517 68.6703C31.517 70.8529 29.7311 71.7881 28.8201 72.7768C27.5116 74.2075 26.8171 76.0256 26.8666 77.8911C26.9309 79.9746 27.8999 82.1931 26.8647 84.0493C26.105 85.4117 24.4824 86.1381 23.2073 87.1266C22.2438 87.8824 21.4595 88.8108 20.9027 89.8545C20.3458 90.8982 20.0282 92.0353 19.9694 93.1957" fill="#F3F5FD"/>
<path d="M23.1115 88.4008H11.6419V98.9018H23.1115V88.4008Z" fill="#0CBC8B"/>
<g opacity="0.42">
<path d="M23.1115 90.4484H11.6419V92.498H23.1115V90.4484Z" fill="white"/>
</g>
<path d="M136.295 81.0197H134.299V99.0001H136.295V81.0197Z" fill="#C1D8ED"/>
<path d="M134.652 81.0197H132.656V99.0001H134.652V81.0197Z" fill="#DEE8F5"/>
<path d="M161.16 81.0197H159.164V99.0001H161.16V81.0197Z" fill="#C1D8ED"/>
<path d="M159.517 81.0197H157.521V99.0001H159.517V81.0197Z" fill="#DEE8F5"/>
<path d="M141.77 81.0197H139.774V99.0001H141.77V81.0197Z" fill="#C1D8ED"/>
<path d="M140.127 81.0197H138.131V99.0001H140.127V81.0197Z" fill="#DEE8F5"/>
<path d="M166.636 81.0197H164.64V99.0001H166.636V81.0197Z" fill="#C1D8ED"/>
<path d="M164.993 81.0197H162.997V99.0001H164.993V81.0197Z" fill="#DEE8F5"/>
<path d="M166.636 69.5104H139.786V81.4508H166.636V69.5104Z" fill="#C1D8ED"/>
<path d="M159.505 69.5104H132.656V81.4508H159.505V69.5104Z" fill="#DEE8F5"/>
<g opacity="0.53">
<path d="M158.061 71.2078H134.1V79.7005H158.061V71.2078Z" fill="#F3F5FD"/>
</g>
<path d="M146.08 76.4284C146.668 76.4284 147.144 75.9922 147.144 75.4541C147.144 74.9161 146.668 74.4799 146.08 74.4799C145.493 74.4799 145.016 74.9161 145.016 75.4541C145.016 75.9922 145.493 76.4284 146.08 76.4284Z" fill="white"/>
</g>
<defs>
<clipPath id="clip0_33_1666">
<rect width="170" height="99" fill="white"/>
</clipPath>
</defs>
</svg>
