<svg width="25" height="25" viewBox="0 0 25 25" fill="none" xmlns="http://www.w3.org/2000/svg">
<rect width="25" height="25" rx="12.5" fill="#D9D9D9"/>
<path d="M15.4999 21.75C15.7919 21.7506 16.075 21.6489 16.2999 21.4625C16.4264 21.3576 16.5311 21.2287 16.6078 21.0833C16.6845 20.9378 16.7317 20.7787 16.7468 20.615C16.7619 20.4513 16.7445 20.2862 16.6957 20.1292C16.6469 19.9722 16.5676 19.8263 16.4624 19.7L10.8624 13L16.2624 6.28752C16.3662 6.15966 16.4437 6.01254 16.4905 5.85461C16.5373 5.69669 16.5524 5.53107 16.535 5.36729C16.5176 5.2035 16.468 5.04478 16.389 4.90023C16.31 4.75568 16.2033 4.62817 16.0749 4.52502C15.9455 4.41122 15.7941 4.32539 15.63 4.2729C15.4659 4.22041 15.2928 4.20241 15.1214 4.22002C14.95 4.23762 14.7842 4.29046 14.6342 4.37521C14.4842 4.45996 14.3534 4.5748 14.2499 4.71252L8.21237 12.2125C8.02852 12.4362 7.92801 12.7167 7.92801 13.0063C7.92801 13.2958 8.02852 13.5764 8.21237 13.8L14.4624 21.3C14.5878 21.4513 14.7471 21.5709 14.9273 21.6491C15.1076 21.7272 15.3037 21.7618 15.4999 21.75Z" fill="#231F20"/>
</svg>
