<svg width="108" height="133" viewBox="0 0 108 133" fill="none" xmlns="http://www.w3.org/2000/svg">
<path d="M43.0906 121.778C43.0906 121.778 40.8213 125.196 43.2964 128.038C45.7716 130.88 43.1042 132.435 43.1042 132.435L33.0432 122.184L38.0708 117.063L43.0906 121.778Z" fill="#E4EEFF"/>
<path d="M43.6256 51.478C43.6256 51.478 43.6702 50.26 43.6599 53.0229C43.6443 57.6111 44.0727 69.7356 43.7717 85.3624C43.5316 97.8539 34.9967 119.289 34.9967 119.289L42.694 124.919C42.694 124.919 54.2726 105.784 56.1101 86.841C57.0507 77.1446 58.9743 51.0589 58.9743 51.0589L43.6256 51.478Z" fill="#262626"/>
<path d="M67.3775 125.389C67.3775 125.389 68.1447 129.441 71.8679 129.666C75.5912 129.892 74.7836 132.914 74.7836 132.914H60.5555V125.671L67.3775 125.389Z" fill="#DEEAFF"/>
<path d="M69.1859 52.2783C69.1859 52.2783 70.3538 87.5008 70.232 89.2224L69.1344 127.708L59.9394 127.881L58.4567 87.8303C58.4567 87.8303 57.4854 76.7826 54.8648 66.5237C53.5243 61.2586 52.7177 55.8672 52.4575 50.4343L69.1859 52.2783Z" fill="#262626"/>
<path d="M57.0557 77.251L57.8223 65.3042C57.8223 65.3042 58.6099 70.2708 58.6099 74.5518C58.6099 76.6442 58.1869 84.929 58.1869 84.929L57.0557 77.251Z" fill="#0A0A0A"/>
<path d="M43.5248 51.4769L43.4941 51.4787C43.4941 51.4787 43.5155 50.8779 43.5248 51.4769Z" fill="#333333"/>
<path d="M43.5625 51.4769L43.5319 51.4786C43.5319 51.4786 43.5539 50.8778 43.5625 51.4769Z" fill="#333333"/>
<path d="M49.5832 6.98138C49.5832 6.98138 48.8425 11.0034 47.7747 12.3654C44.7004 16.286 43.3947 20.9589 45.6837 23.7622C47.9726 26.5655 64.4305 28.6052 66.3493 23.0327C67.9646 18.341 65.7723 17.5484 65.6905 13.5058C65.6537 11.6767 65.4137 7.8214 65.4137 7.8214" fill="#0A0A0A"/>
<path d="M62.9348 20.9071C62.9062 20.9034 62.5885 26.2718 56.4669 25.8044C52.229 25.4809 50.718 20.8996 50.6207 20.8996C51.0776 20.8006 51.8472 20.6567 52.0501 20.5464C52.7174 20.181 53.543 19.8009 53.7581 18.4803C53.8821 17.7193 53.6724 13.8259 53.7365 13.056L60.2418 14.5354C60.1511 16.1616 59.5148 19.9316 61.7445 20.5992C62.1162 20.7093 62.5153 20.8108 62.9348 20.9071Z" fill="#E98862"/>
<path opacity="0.52" d="M60.3324 19.0581C60.2306 18.7235 60.1649 18.3786 60.1368 18.0295C60.0653 17.2327 60.0795 16.4303 60.1793 15.6367C58.8573 15.4548 57.6119 14.8987 56.5845 14.0318C56.4644 14.4861 55.7993 16.4725 55.9842 16.9045C56.331 17.7211 57.9656 19.0581 60.3324 19.0581Z" fill="#0C0C0C"/>
<path d="M59.1784 17.7609C56.6024 17.7019 53.4292 16.2627 53.152 12.724L52.9019 9.53119C52.6248 5.99255 54.2243 2.97571 57.4942 2.70974C60.7642 2.44395 63.433 5.11375 63.7102 8.65239L63.8208 10.0659C63.9271 11.4237 63.7747 17.8665 59.1784 17.7609Z" fill="#E98862"/>
<path d="M61.9455 10.3014C62.1687 10.3014 62.3496 10.1171 62.3496 9.88973C62.3496 9.66235 62.1687 9.47803 61.9455 9.47803C61.7223 9.47803 61.5414 9.66235 61.5414 9.88973C61.5414 10.1171 61.7223 10.3014 61.9455 10.3014Z" fill="#0C0C0C"/>
<path d="M58.2664 10.3014C58.4896 10.3014 58.6705 10.1171 58.6705 9.88973C58.6705 9.66235 58.4896 9.47803 58.2664 9.47803C58.0433 9.47803 57.8624 9.66235 57.8624 9.88973C57.8624 10.1171 58.0433 10.3014 58.2664 10.3014Z" fill="#0C0C0C"/>
<path opacity="0.52" d="M60.7009 13.064H60.7074C60.8398 13.0522 60.9715 13.033 61.1018 13.0065C61.2968 12.9655 61.5544 12.8903 61.5406 12.7135C61.5249 12.5118 60.8125 10.3804 60.7312 10.138C60.7238 10.1173 60.7087 10.1004 60.6891 10.0908C60.6696 10.0813 60.6471 10.08 60.6266 10.0871C60.6061 10.0942 60.5892 10.1093 60.5794 10.129C60.5697 10.1487 60.5679 10.1715 60.5745 10.1926C60.8785 11.1002 61.3649 12.5911 61.3756 12.7264C61.3478 12.7858 61.0226 12.8686 60.6938 12.8954C60.6727 12.8973 60.653 12.9075 60.639 12.9238C60.625 12.9401 60.6177 12.9612 60.6185 12.9828C60.6194 13.0045 60.6284 13.025 60.6436 13.04C60.6589 13.0551 60.6793 13.0636 60.7005 13.0638L60.7009 13.064Z" fill="#0C0C0C"/>
<path opacity="0.52" d="M60.1664 13.9064C59.6364 13.9165 59.1161 14.0533 58.6474 14.3057C58.6372 14.3104 58.628 14.3172 58.6205 14.3255C58.6129 14.3339 58.6071 14.3438 58.6033 14.3545C58.5996 14.3652 58.598 14.3766 58.5987 14.388C58.5994 14.3994 58.6024 14.4105 58.6074 14.4207C58.6124 14.4308 58.6194 14.4399 58.628 14.4472C58.6365 14.4546 58.6465 14.4601 58.6571 14.4634C58.6678 14.4667 58.6791 14.4678 58.6902 14.4666C58.7013 14.4654 58.7121 14.4619 58.7218 14.4564C59.7337 13.937 60.6811 13.9417 61.4636 14.4698C61.4793 14.481 61.4957 14.4914 61.5126 14.5008C61.5322 14.5095 61.5543 14.5102 61.5743 14.5028C61.5944 14.4953 61.6108 14.4803 61.6203 14.4608C61.6297 14.4412 61.6314 14.4188 61.6249 14.398C61.6185 14.3773 61.6044 14.3599 61.5857 14.3494C61.5793 14.3459 61.5685 14.3388 61.5551 14.3292C61.1438 14.0506 60.6603 13.9034 60.1664 13.9064Z" fill="#0C0C0C"/>
<path d="M50.2228 10.3399L53.1523 10.1188C55.4229 9.4609 56.4869 5.69631 56.4869 5.69631C56.4869 5.69631 58.8518 8.61093 65.4137 7.82194C65.4137 7.82194 65.0928 -1.41889 55.3517 0.187567C52.2107 0.705693 49.6897 3.59742 49.5194 7.81373C49.4 10.7678 50.2228 10.3399 50.2228 10.3399Z" fill="#0A0A0A"/>
<path d="M53.4394 13.7856C52.4457 13.8663 51.5554 12.8486 51.476 11.8361C51.3966 10.8236 52.1586 10.1997 53.1523 10.1188L53.7183 10.7558L54.2946 13.716L53.4394 13.7856Z" fill="#E98862"/>
<path d="M61.4939 8.54472C61.7978 8.38895 62.1372 8.31941 62.4765 8.34341C62.6436 8.35413 62.8082 8.39036 62.9648 8.45088C63.1197 8.50974 63.2668 8.58824 63.4025 8.68452C63.4219 8.69687 63.4358 8.71659 63.441 8.73935C63.4462 8.76211 63.4423 8.78604 63.4302 8.80588C63.418 8.82572 63.3987 8.83983 63.3763 8.84513C63.354 8.85042 63.3305 8.84645 63.311 8.8341L63.3052 8.83061C63.1789 8.74905 63.0431 8.68405 62.9008 8.63716C62.7604 8.59006 62.6138 8.56478 62.466 8.56219C62.1727 8.55535 61.8827 8.6277 61.6256 8.77189L61.6172 8.77678C61.5873 8.79421 61.5519 8.79882 61.5186 8.78959C61.4854 8.78037 61.4571 8.75807 61.44 8.72759C61.4229 8.69712 61.4184 8.66097 61.4274 8.6271C61.4365 8.59323 61.4584 8.56442 61.4883 8.54699L61.4939 8.54472Z" fill="#0C0C0C"/>
<path d="M58.867 8.87672C58.5912 8.77495 58.294 8.74927 58.0053 8.80228C57.8595 8.82807 57.7184 8.87608 57.5867 8.94469C57.4533 9.01347 57.3289 9.099 57.2164 9.1993L57.2114 9.20367C57.2028 9.21124 57.1928 9.21702 57.1821 9.22066C57.1713 9.22431 57.1599 9.22576 57.1486 9.22492C57.1372 9.22409 57.1262 9.22098 57.116 9.21579C57.1059 9.2106 57.0968 9.20343 57.0894 9.19467C57.0819 9.18592 57.0763 9.17576 57.0727 9.16477C57.0691 9.15378 57.0677 9.14219 57.0685 9.13064C57.0693 9.1191 57.0724 9.10783 57.0775 9.09748C57.0826 9.08713 57.0896 9.07791 57.0982 9.07034C57.2178 8.95343 57.3513 8.85228 57.4956 8.76925C57.6411 8.68489 57.7983 8.62328 57.9618 8.58646C58.2934 8.50945 58.6392 8.52478 58.963 8.63085C58.9948 8.64259 59.0209 8.66651 59.0357 8.69751C59.0504 8.72852 59.0528 8.76417 59.0422 8.7969C59.0316 8.82963 59.0089 8.85687 58.9789 8.87281C58.9489 8.88876 58.914 8.89217 58.8815 8.88231L58.8764 8.88039L58.867 8.87672Z" fill="#0C0C0C"/>
<path d="M53.1624 10.0825L53.1425 9.99824C56.9231 9.06701 56.4183 5.33003 56.4127 5.29229L56.4967 5.27936C56.5024 5.3178 57.0196 9.1322 53.1624 10.0825Z" fill="#0C0C0C"/>
<path opacity="0.1" d="M58.0913 13.0357C58.5164 13.0357 58.861 12.7781 58.861 12.4604C58.861 12.1427 58.5164 11.8852 58.0913 11.8852C57.6662 11.8852 57.3215 12.1427 57.3215 12.4604C57.3215 12.7781 57.6662 13.0357 58.0913 13.0357Z" fill="#0C0C0C"/>
<path opacity="0.1" d="M62.6662 12.3229C62.6662 12.6402 63.0116 12.8976 63.4366 12.8983C63.5101 12.8982 63.5834 12.8905 63.6553 12.8751C63.7184 12.5044 63.7618 12.1459 63.7899 11.8124C63.677 11.7686 63.5571 11.7466 63.4363 11.7478C63.0113 11.7471 62.6667 12.0047 62.6662 12.3229Z" fill="#0C0C0C"/>
<path d="M70.5406 32.7273C70.3477 35.0354 69.4097 49.4353 69.2245 52.2782H43.6745C43.5301 49.714 42.882 38.502 42.3347 33.4878C41.8123 28.703 40.7872 26.3076 41.5385 24.893C42.7664 22.5811 46.1214 21.2453 48.409 20.9297C49.8061 20.7375 51.9077 20.5988 51.9077 20.5988C51.9077 20.5988 52.0856 24.2657 56.3276 24.4698C62.1021 24.7473 61.7166 20.5988 61.745 20.5988C62.6806 20.5988 68.0246 21.2022 69.3322 21.9918C72.8942 24.1414 70.9499 27.8368 70.5406 32.7273Z" fill="white"/>
<path d="M89.9607 36.9473C89.99 36.8647 90.0357 36.789 90.0947 36.7249C90.1538 36.6609 90.225 36.6097 90.3041 36.5747C90.3832 36.5396 90.4685 36.5214 90.5548 36.521C90.641 36.5207 90.7265 36.5382 90.8058 36.5727C90.9572 36.6446 91.0761 36.7724 91.1385 36.9303C91.2009 37.0881 91.2022 37.2642 91.142 37.423L90.8504 38.2443L92.6873 36.3359C92.9156 36.0912 93.3491 35.9408 93.6011 36.2197C93.8194 36.4315 94.324 36.4968 94.406 36.8937C94.4087 36.8958 94.4036 40.5284 94.1919 40.7556C93.2934 41.7167 91.1219 41.9028 89.9102 41.4148L88.0032 40.6459L89.9607 36.9473Z" fill="#E98862"/>
<g opacity="0.1">
<path d="M89.9607 36.9473C89.99 36.8647 90.0357 36.789 90.0947 36.7249C90.1538 36.6609 90.225 36.6097 90.3041 36.5747C90.3832 36.5396 90.4685 36.5214 90.5548 36.521C90.641 36.5207 90.7265 36.5382 90.8058 36.5727C90.9572 36.6446 91.0761 36.7724 91.1385 36.9303C91.2009 37.0881 91.2022 37.2642 91.142 37.423L90.8504 38.2443L92.6873 36.3359C92.9156 36.0912 93.3491 35.9408 93.6011 36.2197C93.8194 36.4315 94.324 36.4968 94.406 36.8937C94.4087 36.8958 94.4036 40.5284 94.1919 40.7556C93.2934 41.7167 91.1219 41.9028 89.9102 41.4148L88.0032 40.6459L89.9607 36.9473Z" fill="#0C0C0C"/>
</g>
<path d="M97.8743 51.7529L65.1037 56.7435C64.4802 56.8384 63.8431 56.7611 63.259 56.5196C62.6748 56.278 62.1651 55.8811 61.7829 55.3703C61.4007 54.8594 61.1601 54.2534 61.0862 53.6155C61.0123 52.9776 61.1079 52.3312 61.3629 51.7438L73.8838 22.9048C74.124 22.3519 74.4974 21.8698 74.9693 21.5033C75.4412 21.1367 75.9965 20.8977 76.5834 20.8083C77.1703 20.7189 77.7698 20.7821 78.3263 20.992C78.8828 21.2019 79.3782 21.5517 79.7666 22.0089L100.017 45.8572C100.429 46.343 100.706 46.9327 100.818 47.5647C100.931 48.1967 100.875 48.8479 100.656 49.4502C100.437 50.0526 100.063 50.584 99.5741 50.9891C99.0848 51.3941 98.4978 51.6579 97.8743 51.7529Z" fill="#E3FF36"/>
<path opacity="0.48" d="M97.8743 51.7529L65.1037 56.7435C64.4802 56.8384 63.8431 56.7611 63.259 56.5196C62.6748 56.278 62.1651 55.8811 61.7829 55.3703C61.4007 54.8594 61.1601 54.2534 61.0862 53.6155C61.0123 52.9776 61.1079 52.3312 61.3629 51.7438L73.8838 22.9048C74.124 22.3519 74.4974 21.8698 74.9693 21.5033C75.4412 21.1367 75.9965 20.8977 76.5834 20.8083C77.1703 20.7189 77.7698 20.7821 78.3263 20.992C78.8828 21.2019 79.3782 21.5517 79.7666 22.0089L100.017 45.8572C100.429 46.343 100.706 46.9327 100.818 47.5647C100.931 48.1967 100.875 48.8479 100.656 49.4502C100.437 50.0526 100.063 50.584 99.5741 50.9891C99.0848 51.3941 98.4978 51.6579 97.8743 51.7529Z" fill="#DBFF00"/>
<path d="M64.5634 56.8721C63.9647 56.8683 63.3762 56.7128 62.8511 56.4195C62.3261 56.1263 61.8808 55.7046 61.5556 55.1924C61.2303 54.6801 61.0352 54.0935 60.9879 53.4853C60.9406 52.8771 61.0425 52.2665 61.2846 51.7085L73.8055 22.8697C74.0514 22.3032 74.4338 21.8092 74.9173 21.4337C75.4007 21.0581 75.9695 20.8132 76.5708 20.7216C77.172 20.63 77.7862 20.6947 78.3563 20.9098C78.9265 21.1249 79.434 21.4833 79.8317 21.9517L100.082 45.7999C100.504 46.2975 100.788 46.9016 100.903 47.5491C101.018 48.1966 100.96 48.8637 100.736 49.4808C100.512 50.0978 100.129 50.6422 99.6278 51.057C99.1265 51.4719 98.5251 51.742 97.8863 51.8392L65.1157 56.83C64.9329 56.8579 64.7483 56.872 64.5634 56.8721ZM77.1111 20.8552C76.9389 20.8553 76.7669 20.8683 76.5966 20.8943C76.0234 20.98 75.4809 21.2128 75.0202 21.5706C74.5595 21.9285 74.1955 22.3998 73.9626 22.9403L61.4425 51.7791C61.1937 52.3522 61.1005 52.9829 61.1726 53.6052C61.2446 54.2276 61.4794 54.8188 61.8523 55.3172C62.2251 55.8156 62.7225 56.2029 63.2924 56.4386C63.8623 56.6742 64.4839 56.7497 65.0922 56.6571L97.8627 51.6665C98.471 51.5739 99.0437 51.3165 99.5211 50.9214C99.9985 50.5262 100.363 50.0077 100.577 49.42C100.79 48.8323 100.845 48.197 100.735 47.5803C100.626 46.9637 100.356 46.3883 99.9532 45.9143L79.7021 22.066C79.3812 21.686 78.9836 21.3811 78.5365 21.1721C78.0893 20.9631 77.6031 20.855 77.1111 20.8552Z" fill="#0C0C0C"/>
<path d="M76.5525 34.3309L75.8399 30.4628L80.0737 29.818L80.5025 33.7292L81.2275 42.7715L78.4547 43.1937L76.5525 34.3309ZM77.9395 47.7899C77.7147 46.257 78.6266 44.9097 80.0902 44.6868C81.5539 44.4638 82.8132 45.4805 83.0381 47.0135C83.261 48.5363 82.3495 49.8832 80.8853 50.1066C79.4212 50.3299 78.163 49.3134 77.9395 47.7899Z" fill="black"/>
<path d="M92.2972 39.7994C92.2732 39.6865 92.286 39.5687 92.3337 39.464C92.3814 39.3592 92.4614 39.2732 92.5615 39.219C92.556 39.2117 92.5375 39.1975 92.5505 39.1884L92.1171 39.2049C91.9895 39.2125 91.8635 39.1728 91.7624 39.0931C91.6613 39.0135 91.5919 38.8992 91.5669 38.7715C91.5465 38.6445 91.573 38.5143 91.6413 38.4062C91.7097 38.298 91.815 38.2195 91.9369 38.1859C91.9331 38.1824 91.9329 38.1765 91.9304 38.1719L91.7522 38.1786C91.6319 38.1853 91.5131 38.1494 91.4158 38.077C91.3185 38.0047 91.2487 37.9003 91.2183 37.7815C91.2007 37.7067 91.1996 37.6288 91.2151 37.5535C91.2307 37.4782 91.2624 37.4073 91.3081 37.346C91.3537 37.2847 91.4122 37.2345 91.4792 37.199C91.5462 37.1635 91.6201 37.1436 91.6956 37.1407L92.1072 37.1252C92.1072 37.1229 92.1046 37.1217 92.1044 37.1194C92.1043 37.1172 92.1068 37.1144 92.1072 37.1116C91.9936 37.0899 91.8906 37.0295 91.8152 36.9403C91.7397 36.8512 91.6962 36.7385 91.6918 36.6209C91.6611 36.3179 91.981 36.1316 92.2468 36.1223L93.0872 36.1573C93.2167 36.1627 93.3429 36.2006 93.4546 36.2677C93.5663 36.3348 93.66 36.4289 93.7274 36.5417C94.3105 37.5185 95.7747 40.1066 94.9263 40.1389L92.838 40.2175C92.715 40.2191 92.5951 40.1788 92.4971 40.103C92.3992 40.0273 92.3288 39.9204 92.2972 39.7994Z" fill="#E98862"/>
<path d="M70.7447 44.059C70.7367 43.932 70.6902 43.8106 70.6116 43.7116C70.533 43.6127 70.4261 43.541 70.3058 43.5066C70.3112 43.4967 70.3134 43.4854 70.312 43.4741C70.3096 43.4649 70.3049 43.4564 70.2983 43.4496C70.2917 43.4428 70.2835 43.4379 70.2745 43.4353L70.7766 43.3219C70.9253 43.2917 71.0582 43.2077 71.1508 43.0854C71.2434 42.9631 71.2894 42.8108 71.2803 42.6567C71.2666 42.5047 71.198 42.3634 71.0878 42.26C70.9776 42.1567 70.8336 42.0988 70.6838 42.0975C70.6871 42.0922 70.6856 42.0854 70.6873 42.08L70.8931 42.0333C71.0332 42.0044 71.1591 41.927 71.2496 41.8143C71.3401 41.7015 71.3895 41.5604 71.3894 41.4147C71.3876 41.3235 71.3659 41.2338 71.326 41.1521C71.286 41.0704 71.2288 40.9988 71.1584 40.9423C71.0879 40.8859 71.0061 40.8461 70.9188 40.8258C70.8314 40.8055 70.7408 40.8052 70.6533 40.825L70.1772 40.9328C70.1772 40.93 70.1791 40.9279 70.1786 40.9253C70.1781 40.9226 70.1743 40.9202 70.1733 40.9169C70.2972 40.8573 70.3975 40.7567 70.4579 40.6314C70.5183 40.5061 70.535 40.3636 70.5055 40.2273C70.4516 39.8703 70.0302 39.7555 69.7222 39.8254L66.9438 40.4021L67.603 39.911C67.7334 39.818 67.8242 39.6781 67.8571 39.5195C67.89 39.3609 67.8626 39.1955 67.7804 39.0567C67.7355 38.9865 67.6772 38.9265 67.6088 38.8801C67.5404 38.8337 67.4634 38.802 67.3826 38.7869C67.3018 38.7719 67.2188 38.7737 67.1388 38.7924C67.0587 38.8111 66.9832 38.8462 66.9169 38.8956L63.3167 41.5765C62.8946 41.8911 62.6094 42.3609 62.5218 42.8862C62.4341 43.4115 62.5509 43.951 62.8473 44.39C63.1913 44.8992 63.6767 45.2921 64.2412 45.5184C64.8058 45.7447 65.4238 45.794 66.0161 45.66L70.2484 44.703C70.3902 44.6682 70.5164 44.5858 70.6064 44.4689C70.6965 44.352 70.7452 44.2076 70.7447 44.059Z" fill="#E98862"/>
<g opacity="0.25">
<path d="M67.4277 41.5021C67.431 41.5166 67.4397 41.5292 67.452 41.5372C67.4642 41.5452 67.4791 41.548 67.4934 41.5451L70.1346 40.993C70.1418 40.9915 70.1486 40.9886 70.1547 40.9844C70.1607 40.9802 70.1659 40.9749 70.17 40.9686C70.174 40.9624 70.1768 40.9554 70.1781 40.9481C70.1795 40.9408 70.1795 40.9332 70.178 40.9259C70.1765 40.9186 70.1737 40.9117 70.1696 40.9055C70.1654 40.8993 70.1602 40.894 70.1541 40.8899C70.148 40.8858 70.1411 40.883 70.1339 40.8816C70.1267 40.8802 70.1193 40.8802 70.1122 40.8817L67.4709 41.4336C67.4564 41.4366 67.4437 41.4455 67.4356 41.4581C67.4274 41.4707 67.4246 41.4861 67.4275 41.5009L67.4277 41.5021Z" fill="#0C0C0C"/>
</g>
<g opacity="0.25">
<path d="M67.6345 42.6952C67.6378 42.7097 67.6465 42.7223 67.6588 42.7303C67.671 42.7383 67.6859 42.7411 67.7002 42.7382L70.6484 42.1222C70.6629 42.1191 70.6757 42.1103 70.6838 42.0977C70.692 42.0851 70.6949 42.0697 70.692 42.0549C70.6885 42.0404 70.6797 42.0278 70.6675 42.0196C70.6552 42.0114 70.6404 42.0082 70.6259 42.0107L67.6777 42.6267C67.6632 42.6297 67.6505 42.6386 67.6424 42.6512C67.6342 42.6638 67.6313 42.6792 67.6343 42.694L67.6345 42.6952Z" fill="#0C0C0C"/>
</g>
<g opacity="0.25">
<path d="M67.8513 43.9896C67.8545 44.004 67.8632 44.0166 67.8754 44.0247C67.8877 44.0327 67.9025 44.0355 67.9168 44.0326L70.2687 43.5412C70.2832 43.5381 70.2959 43.5294 70.304 43.5168C70.3122 43.5042 70.3151 43.4888 70.3121 43.4741C70.3091 43.4593 70.3005 43.4463 70.2881 43.4381C70.2758 43.4298 70.2607 43.4268 70.2462 43.4298L67.8943 43.9212C67.8872 43.9227 67.8803 43.9257 67.8743 43.9298C67.8682 43.934 67.863 43.9394 67.859 43.9456C67.855 43.9519 67.8522 43.9588 67.8508 43.9662C67.8494 43.9735 67.8495 43.981 67.8509 43.9883L67.8513 43.9896Z" fill="#0C0C0C"/>
</g>
<path d="M65.7548 47.3673L42.7921 51.5962C42.0756 51.6757 41.3507 51.5849 40.6744 51.3309C39.998 51.077 39.3886 50.6668 38.894 50.1326C38.3994 49.5984 38.033 48.9547 37.8236 48.252C37.6142 47.5492 37.5674 46.8066 37.687 46.0824L40.9018 26.6136C41.0002 25.9951 41.2176 25.4025 41.5417 24.87C41.8657 24.3374 42.2898 23.8754 42.7897 23.5105C43.2896 23.1455 43.8554 22.8849 44.4545 22.7436C45.0536 22.6023 45.6742 22.583 46.2807 22.687C46.8871 22.791 47.4674 23.0161 47.9881 23.3494C48.5089 23.6827 48.9598 24.1176 49.3149 24.6291C49.6701 25.1406 49.9225 25.7186 50.0576 26.3299C50.1928 26.9411 50.2079 27.5736 50.1023 28.1909L47.9102 41.5923L64.7453 39.4381L65.7548 47.3673Z" fill="white"/>
<path d="M42.7919 51.6821C42.7716 51.6805 42.7525 51.6717 42.738 51.6572C42.7235 51.6426 42.7146 51.6233 42.7128 51.6026C42.711 51.582 42.7165 51.5614 42.7282 51.5445C42.74 51.5276 42.7572 51.5154 42.7769 51.5103L65.6602 47.297L64.6716 39.5348L47.9206 41.6783C47.9075 41.6801 47.8941 41.6787 47.8816 41.6742C47.8692 41.6697 47.8579 41.6622 47.8488 41.6524C47.8396 41.6427 47.8328 41.6309 47.8289 41.618C47.825 41.6051 47.824 41.5915 47.8261 41.5782L49.2196 33.0126C49.2258 32.9925 49.2389 32.9753 49.2565 32.9643C49.2741 32.9532 49.2951 32.949 49.3155 32.9525C49.3359 32.9559 49.3544 32.9668 49.3676 32.983C49.3807 32.9993 49.3877 33.0198 49.3872 33.0409L48.0124 41.492L64.7344 39.3522C64.7567 39.3495 64.7791 39.3559 64.7969 39.3699C64.8146 39.3838 64.8263 39.4044 64.8294 39.427L65.8391 47.3562C65.8417 47.3781 65.8361 47.4003 65.8234 47.4182C65.8107 47.4361 65.7917 47.4484 65.7705 47.4527L42.8078 51.6816C42.8025 51.6821 42.7972 51.6823 42.7919 51.6821Z" fill="#0C0C0C"/>
<path d="M47.8969 41.5068L46.4199 41.7478L46.4468 41.9189L47.9238 41.678L47.8969 41.5068Z" fill="#0C0C0C"/>
<path d="M95.2629 133H19.548C19.5128 133 19.4791 132.986 19.4542 132.96C19.4294 132.935 19.4154 132.901 19.4154 132.865C19.4154 132.829 19.4294 132.795 19.4542 132.769C19.4791 132.744 19.5128 132.73 19.548 132.73H95.2629C95.2981 132.73 95.3318 132.744 95.3567 132.769C95.3815 132.795 95.3955 132.829 95.3955 132.865C95.3955 132.901 95.3815 132.935 95.3567 132.96C95.3318 132.986 95.2981 133 95.2629 133Z" fill="#3F3F3F"/>
<path d="M24.5685 90.3499L2.35829 90.3347C1.93576 90.3343 1.52107 90.2184 1.15751 89.999C0.79396 89.7797 0.494872 89.4649 0.291472 89.0875C0.0880727 88.7102 -0.0121799 88.2841 0.00118047 87.8538C0.0145408 87.4235 0.141024 87.0047 0.367426 86.6412L11.4842 68.7946C11.6974 68.4524 11.992 68.1707 12.3407 67.9755C12.6893 67.7804 13.0808 67.6782 13.4786 67.6785C13.8764 67.6788 14.2676 67.7815 14.6161 67.9771C14.9645 68.1727 15.2587 68.4549 15.4714 68.7974L26.5647 86.6592C26.7906 87.0231 26.9165 87.442 26.9293 87.8724C26.9421 88.3027 26.8412 88.7287 26.6373 89.1058C26.4333 89.4828 26.1338 89.7972 25.7699 90.0161C25.406 90.2349 24.9911 90.3502 24.5685 90.3499Z" fill="#DBFF00"/>
<path d="M11.7423 85.7021C11.7423 84.663 12.4798 83.8627 13.4714 83.8634C14.4631 83.8641 15.1989 84.6655 15.1982 85.7045C15.1982 86.7364 14.4607 87.5368 13.4692 87.5361C12.4777 87.5354 11.7416 86.7341 11.7423 85.7021ZM12.1378 76.6397L12.0433 74.0036L14.9128 74.0057L14.8144 76.6416L14.4117 82.709L12.5333 82.7076L12.1378 76.6397Z" fill="black"/>
<path d="M33.2417 31.7711L15.3666 31.7589C15.0265 31.7586 14.6927 31.6654 14.4001 31.4888C14.1075 31.3123 13.8667 31.0589 13.703 30.7552C13.5392 30.4515 13.4585 30.1086 13.4693 29.7622C13.48 29.4159 13.5818 29.0788 13.7641 28.7862L22.7111 14.423C22.8826 14.1476 23.1197 13.9208 23.4003 13.7637C23.6809 13.6067 23.996 13.5244 24.3161 13.5246C24.6363 13.5248 24.9512 13.6075 25.2316 13.7649C25.512 13.9224 25.7488 14.1495 25.92 14.4251L34.848 28.8007C35.0299 29.0935 35.1313 29.4307 35.1416 29.7771C35.1519 30.1234 35.0708 30.4663 34.9066 30.7698C34.7425 31.0733 34.5014 31.3263 34.2085 31.5024C33.9157 31.6786 33.5818 31.7714 33.2417 31.7711Z" fill="#DBFF00"/>
<path d="M22.9193 28.031C22.9305 27.7532 23.0216 27.4849 23.1812 27.2594C23.3409 27.034 23.5621 26.8614 23.8173 26.763C24.0725 26.6646 24.3504 26.6448 24.6166 26.7061C24.8827 26.7674 25.1253 26.9071 25.3141 27.1078C25.503 27.3084 25.6298 27.5612 25.6787 27.8347C25.7277 28.1082 25.6967 28.3904 25.5895 28.646C25.4823 28.9017 25.3038 29.1196 25.076 29.2727C24.8482 29.4258 24.5813 29.5073 24.3085 29.507C24.1211 29.5067 23.9357 29.4678 23.7634 29.3928C23.591 29.3177 23.4354 29.208 23.3057 29.0701C23.176 28.9323 23.0749 28.7692 23.0085 28.5907C22.9421 28.4121 22.9118 28.2217 22.9193 28.031ZM23.2376 20.7384L23.1613 18.6169L25.4704 18.6187L25.3917 20.7398L25.0678 25.6226L23.5552 25.6215L23.2376 20.7384Z" fill="black"/>
<path d="M105.925 107.208L86.4188 107.195C86.0476 107.195 85.6832 107.093 85.3638 106.9C85.0444 106.708 84.7815 106.431 84.6028 106.1C84.4241 105.768 84.3359 105.394 84.3477 105.016C84.3594 104.638 84.4705 104.27 84.6694 103.951L94.4333 88.276C94.6206 87.9754 94.8793 87.7279 95.1856 87.5565C95.4918 87.3851 95.8357 87.2954 96.1851 87.2957C96.5345 87.2959 96.8782 87.3861 97.1842 87.5579C97.4902 87.7297 97.7486 87.9776 97.9355 88.2784L107.679 103.966C107.877 104.286 107.988 104.654 107.999 105.032C108.01 105.41 107.922 105.784 107.743 106.115C107.563 106.447 107.3 106.723 106.981 106.915C106.661 107.107 106.297 107.209 105.925 107.208Z" fill="#DBFF00"/>
<path d="M94.6611 103.127C94.6611 102.214 95.3082 101.512 96.1796 101.512C97.051 101.513 97.6964 102.217 97.6959 103.129C97.7026 103.337 97.6683 103.543 97.5949 103.737C97.5216 103.931 97.4108 104.107 97.2691 104.256C97.1273 104.406 96.9576 104.524 96.77 104.605C96.5824 104.686 96.3807 104.728 96.177 104.727C95.9732 104.727 95.7716 104.685 95.5841 104.604C95.3966 104.523 95.227 104.404 95.0855 104.255C94.944 104.106 94.8334 103.929 94.7603 103.735C94.6873 103.541 94.6532 103.334 94.6602 103.127H94.6611ZM95.0083 95.1681L94.9252 92.853L97.4453 92.8548L97.3596 95.1697L97.0057 100.498L95.3543 100.497L95.0083 95.1681Z" fill="black"/>
</svg>
